<?xml version="1.0" encoding="UTF-8"?>
<svg id="a" data-name="Layer 3" xmlns="http://www.w3.org/2000/svg" width="235.713" height="154.24" viewBox="0 0 235.713 154.24">
  <g id="b" data-name="Layer 1">
    <g>
      <path d="M26.197,132.453c-.056-.021-.061-.095-.011-.124,2.611-1.572,4.508-4.918,4.508-8.664,0-6.071-4.695-10.47-10.83-10.47H0v40.966c0,.042.034.077.077.077h21.337c2.516,0,4.807-.683,6.653-1.91,2.963-1.945,4.833-5.23,4.833-9.219,0-4.876-2.735-9.172-6.703-10.656ZM7.968,120.644c0-.042.034-.077.077-.077h9.621c2.513,0,4.632,1.998,4.64,4.508.008,2.561-2.013,4.54-4.524,4.54h-9.737c-.043,0-.077-.035-.077-.077v-8.894ZM19.211,146.862h-11.166c-.043,0-.077-.034-.077-.076v-10.143c0-.042.034-.076.077-.076h11.348c2.966,0,5.196,2.346,5.116,5.266-.076,2.823-2.476,5.029-5.298,5.029Z" fill="#fff"/>
      <path d="M75.031,154.131l-15.703-40.889c-.011-.03-.04-.048-.071-.048h-9.598c-.031,0-.061.018-.071.048l-15.063,39.085-.73,1.91h8.804c.034,0,.063-.021.074-.053l.664-1.857,2.148-6.008c.013-.032.04-.053.074-.053h17.562c.032,0,.061.021.072.051l2.875,7.867c.011.032.04.053.072.053h8.82c.052,0,.089-.056.071-.106ZM60.265,138.709h-11.852c-.053,0-.09-.053-.071-.104l5.949-16.181c.027-.067.119-.067.146,0l5.899,16.181c.018.051-.019.104-.071.104Z" fill="#fff"/>
      <path d="M95.352,113.192h-15.983c-.043,0-.077.034-.077.077v40.892c0,.042.034.077.077.077h15.983c11.957,0,20.938-8.804,20.938-20.523s-8.981-20.523-20.938-20.523ZM95.172,146.505h-7.595c-.042,0-.076-.034-.076-.077v-25.427c0-.042.034-.077.076-.077h7.595c7.259,0,12.671,5.474,12.671,12.791s-5.412,12.79-12.671,12.79Z" fill="#fff"/>
      <path d="M234.914,146.63c.04-.045.013-.114-.042-.124h-32.454c-.042,0-.075.034-.076.075v-.076h-1.664c-2.558,0-4.64-1.069-6.187-3.272l-2.794-4.016c-.032-.042-.008-.101.042-.114,5.772-1.518,9.772-6.317,9.772-12.465,0-7.674-6.01-13.446-13.922-13.446h-18.185c-.042,0-.076.034-.076.077v40.894c0,.043.034.077.076.077h8.056c.042,0,.076-.034.076-.077v-14.48c0-.043.035-.077.077-.077h4.463c.026,0,.05.013.063.034l4.677,7.46c2.677,4.82,6.96,7.14,12.968,7.14h2.481c.043,0,.077-.034.077-.077h0c0,.041.035.075.076.075h26.02l6.476-7.608ZM187.411,132.466h-9.798c-.042,0-.077-.034-.077-.077v-11.385c0-.043.035-.077.077-.077h9.798c3.212,0,5.654,2.497,5.654,5.769s-2.442,5.77-5.654,5.77Z" fill="#fff"/>
      <path d="M164.645,113.289c.01-.047-.026-.093-.075-.093h-8.27c-.035,0-.066.025-.074.06l-4.981,22.083-4.944-21.822-.062-.322h-8.291l-.038.184-.024.114-4.895,21.673-4.944-21.911c-.008-.035-.039-.06-.074-.06h-8.257c-.049,0-.086.046-.075.094l8.864,39.263.285,1.226h0v.014l.099.446h8.204l.098-.393.013-.054v-.012h0s4.895-21.648,4.895-21.648h0s0,0,0,0l4.932,21.846h0s.062.261.062.261h8.29s0,0,0,0l.062-.26h0s9.199-40.689,9.199-40.689Z" fill="#fff"/>
      <path d="M211.127,124.496l5.063-5.664-4.777-5.608c-.016-.019-.038-.029-.059-.029h-9.679c-.064,0-.101.076-.058.127l9.51,11.174Z" fill="#fff"/>
      <path d="M235.637,113.194h-9.677c-.024,0-.045.011-.058.029l-4.796,5.637-.048.056-2.397,2.817-.003-.003-4.339,5.09-.607.712-11.312,13.282c-.042.051-.008.127.059.127h9.676c.024,0,.045-.01.058-.026l6.458-7.581,6.458,7.582c.016.015.037.026.061.026h9.687c.066,0,.101-.077.058-.127l-11.311-13.282h0s12.092-14.211,12.092-14.211c.042-.05.008-.127-.058-.127Z" fill="#fff"/>
      <path d="M108.874,50.187c.934.079,1.87.31,2.794.45-1.521-1.164-3.693-1.823-5.58-2.193-2.036-.4-4.068-.36-6.126-.516-.259-.019-.5.018-.672-.236,5.251-3.018,11.465-3.711,17.388-2.592,6.777,1.28,11.637,5.582,16.274,10.37-.984-2.585-2.153-4.778-3.798-6.995-2.379-3.206-5.241-6.055-8.275-8.631.793-.231,1.77.201,2.516.502,4.69,1.886,9.478,7.005,12.248,11.151,4.248,6.359,6.494,13.832,6.822,21.483l.227-.149c.207-1.793.641-3.566.829-5.362,1.555-14.999-3.646-28.228-15.246-37.741-6.095-4.997-14.517-7.14-22.12-4.452-5.577,1.968-9.65,5.007-15.999,5.433-5.082.341-9.074-.857-14.27.225-1.542.32-3.015.857-4.523,1.286-.053-.265.137-.371.299-.529.648-.63,1.661-1.043,2.317-1.609.156-.135.318-.145.251-.426l-7.999-.002c2.529-1.831,5.64-2.773,8.261-4.495,3.016-1.979,5.36-4.836,8.122-7.124,7.272-6.026,16.398-10.47,26.011-10.594.17-.514.453-.982.805-1.387.214-.248,1.378-.915.881-1.235-.373-.079-.754-.177-1.135-.222-11.547-1.31-25.219,2.447-33.89,10.338-3.471,3.156-3.944,6.918-8.299,9.364-2.701,1.516-5.925,2.455-8.909,3.244-.037.399-.005.243.225.299,1.65.383,3.164.394,4.129,2.063,2.532,4.383-2.608,9.145-6.92,7.751,1.912,1.981,5.417,2.817,8.095,3.151,8.317,1.037,15.255-4.352,23.35.351,2.415,1.402,5.161,3.675,3.997,6.804-1.449,3.9-12.705,11.28-16.798,11.28-1.103,0-2.224.05-3.322,0-.069-.003-.262-.389-.225.074,2.399,1.968,5.738,1.91,8.632,1.238,3.206-.743,5.269-2.484,8.02-4.055,7.471-4.264,12.579-7.084,21.613-6.312ZM76.193,36.598l.654-.548c1.775-.86,5.671-.124,7.592.378l2.169.773-10.415-.603Z" fill="#fff"/>
      <path d="M110.311,11.993c.333-.003-.003.468.034.661.098.548,1.124.463,1.534.228.373-.215.741-.992,1.072-1.344.981-1.048,1.785-1.886,3.166-2.418,5.174-1.984,8.629,1.013,6.688,6.386-.659,1.828-1.73,2.669-3.336,3.608-.495.289-3.066,1.177-1.236,1.333,2.093.178,3.849-.06,5.651-1.145,5.251-3.161,5.502-12.251-.339-14.883-6.232-2.809-13.335,2.632-14.139,8.931l.905-1.357Z" fill="#fff"/>
      <path d="M131.477,20.146c.436.357.748,1.061,1.024,1.283.531.421,3.01,1.161,3.875,1.558,5.182,2.373,10.134,6.455,14.319,10.288,1.683,1.539,2.918,3.344,4.447,4.984-1.907-5.645-5.455-10.566-9.579-14.799-.78-.798-1.825-1.513-2.574-2.407-1.082-1.288-.775-1.5-2.484-2.497-2.759-1.611-6.013-2.772-9.06-3.696-.024.141-.005.194.069.307.188.286,1.941,1.453,2.357,1.72,2.283,1.463,4.963,2.531,6.782,4.613l-8.568-2.071c-.413-.037-.918-.093-1.322-.04-.768.101.502.582.714.757Z" fill="#fff"/>
      <path d="M104.798,91.095c.482-.942,1.021-.852,1.725-1.297,6.754-4.269,6.917-18.234,2.19-24.051-.135-.164-.939-1.09-1.119-.918l.088.46c-.4.27-.911.061-1.069.595-1.27-1.711-2.389-3.672-4.455-4.526,1.881,1.979,3.246,4.822,4.145,7.402,2.286,6.55,1.987,13.171-.449,19.615-.331.878-1.016,1.818-1.056,2.72Z" fill="#fff"/>
      <path d="M140.624,39.27c3.918,5.537,7.606,11.711,9.497,18.28.214.748.132,1.745.645,2.298.141-1.806.043-3.677-.169-5.491-1.333-11.402-8.904-21.592-19.454-26.06,3.632,3.225,6.682,7.013,9.481,10.973Z" fill="#fff"/>
      <path d="M123.292,81.886c1.172-7.946-.458-19.493-8.106-23.821-3.317-1.876-7.039-2.492-10.764-3.048l3.762,1.897c7.314,4.616,12.193,11.693,14.158,20.11l.95,4.862Z" fill="#fff"/>
      <path d="M81.405,45.356c-.956.286-2.516,1.498-3.175,2.262-.402.466-2.799,3.971-2.791,4.307.011.357,1.326,1.317,1.667,1.497,1.907.995,4.798-.688,6.129-2.082,1.294-1.357,2.27-3.238,2.619-5.079-2.934-.212-5.185,2.026-6.941,4.074.674-1.447,1.478-2.889,2.285-4.278.056-.095.799-.878.207-.701Z" fill="#fff"/>
      <path d="M116.049,83.093c.227.008.256-.527.28-.696.958-6.489-.704-13.772-5.415-18.475.643,1.351,1.362,2.645,1.923,4.039,1.915,4.754,3.132,9.992,3.212,15.132Z" fill="#fff"/>
      <path d="M94.004,19.088c-2.089-.32-4.095-.471-6.195-.085-3.272.606-6.703,2.931-8.142,5.971,3.856-1.691,6.967-4.857,11.285-5.545l3.052-.341Z" fill="#fff"/>
      <path d="M59.74,33.58c.272-.175.516-.873.566-1.167.235-1.36.016-2.174-1.243-2.762-1.9-.889-6.116-1.539-6.418,1.363,2.55-.268,6.764-1.019,7.095,2.566Z" fill="#fff"/>
      <path d="M146.69,37.053l-2.418-3.545c-3.534-4.211-8.169-7.227-13.431-8.833,1.895,1.402,4.162,2.299,6.117,3.616,2.01,1.357,3.912,3.09,5.737,4.683l3.995,4.079Z" fill="#fff"/>
      <path d="M74.624,56.057c.725.754,1.022.91,2.019.54.182-.066,1.598-.762,1.664-.828.227-.238-.053-.257-.212-.315-.64-.235-1.127-.256-1.799-.619-1.158-.627-2.111-1.751-3.272-2.386.267,1.265.69,2.661,1.6,3.608Z" fill="#fff"/>
      <path d="M85.601,25.249c-.686.476-1.41.55-2.162.857,1.013.968,2.783,1.103,3.976.355.918-.58,1.093-1.752,1.458-2.693-.609.18-1.897.116-2.373.497-.251.201-.444.669-.899.984Z" fill="#fff"/>
      <path d="M68.125,43.251c-.307.011-1.323-.423-1.442-.312-.235.756,2.987,3.997,3.17,3.775l-.757-3.775c-.394-.064-.587.296-.971.312Z" fill="#fff"/>
      <path d="M62.736,42.809l-2.092-.624c.164,1.452,1.103,3.079,2.415,3.772-.281-1.05-.344-2.058-.323-3.148Z" fill="#fff"/>
      <path d="M68.193,53.356c.019.841.81,2.095,1.411,2.664.455.429,1.285,1.021,1.891.635.675-1.05-2.802-2.545-3.302-3.299Z" fill="#fff"/>
      <path d="M103.346,1.654c-3.247-1.959-6.942-2.228-9.555-.54-1.139.735-1.876,1.716-2.349,2.575,1.45-.606,3.324-1.239,5.56-1.645,2.486-.452,4.664-.486,6.344-.39Z" fill="#fff"/>
    </g>
  </g>
</svg>