<?xml version="1.0" encoding="UTF-8"?>
<svg id="a" data-name="Layer 3" xmlns="http://www.w3.org/2000/svg" width="216.076" height="173.149" viewBox="0 0 216.076 173.149">
  <g id="b" data-name="Layer 1">
    <g>
      <g>
        <path d="M14.806,43.572c0-.079.063-.143.142-.143h21.087c5.506,0,9.653,4.364,9.505,9.791-.143,5.243-4.603,9.343-9.848,9.343H14.948c-.079,0-.142-.064-.142-.142v-18.849ZM14.948,13.704h17.877c4.666,0,8.605,3.709,8.62,8.375.016,4.757-3.743,8.433-8.404,8.433H14.948c-.079,0-.142-.063-.142-.142V13.846c0-.078.063-.142.142-.142M48.677,35.786c-.103-.039-.116-.173-.022-.23,4.854-2.917,8.378-9.138,8.378-16.096C57.033,8.178,48.307.005,36.91.005H0v76.116c0,.079.064.143.143.143h39.645c4.674,0,8.933-1.267,12.364-3.546,5.503-3.615,8.98-9.717,8.98-17.131,0-9.059-5.086-17.039-12.455-19.8" fill="#fff"/>
        <path d="M89.822,47.222l11.055-30.067c.046-.124.222-.124.267,0l10.964,30.067c.034.093-.035.191-.133.191h-22.019c-.099,0-.168-.098-.134-.191M110.1.005h-17.833c-.059,0-.112.036-.133.091l-27.986,72.622-1.359,3.546h16.363c.06,0,.114-.038.134-.095l1.233-3.451,3.995-11.165c.02-.057.074-.094.134-.094h32.634c.06,0,.113.037.134.093l5.342,14.618c.021.056.074.094.134.094h16.386c.1,0,.169-.101.133-.194L110.233.096c-.021-.055-.074-.091-.133-.091" fill="#fff"/>
        <path d="M162.579,14.511v47.243c0,.078.064.142.142.142h14.116c13.484,0,23.544-10.168,23.544-23.764s-10.06-23.763-23.544-23.763h-14.116c-.078,0-.142.064-.142.142M147.327.142c0-.079.064-.142.142-.142h29.701c22.215,0,38.906,16.359,38.906,38.132s-16.691,38.133-38.906,38.133h-29.701c-.078,0-.142-.063-.142-.142V.142Z" fill="#fff"/>
        <path d="M125.925,132.696h-18.206c-.079,0-.143-.064-.143-.143v-21.155c0-.079.064-.143.143-.143h18.206c5.967,0,10.499,4.64,10.499,10.721s-4.532,10.72-10.499,10.72M150.575,158.781c-4.758,0-8.626-1.991-11.497-6.08l-5.195-7.462c-.054-.078-.01-.186.083-.211,10.725-2.821,18.152-11.737,18.152-23.165,0-14.255-11.162-24.98-25.864-24.98h-33.787c-.079,0-.143.064-.143.143v75.98c0,.078.064.142.143.142h14.967c.078,0,.142-.064.142-.142v-26.906c0-.079.064-.138.143-.138h8.287c.049,0,.098.025.123.064l8.69,13.861c4.974,8.951,12.932,13.261,24.095,13.261h4.61c.079,0,.143-.064.143-.142v-14.225h-3.092Z" fill="#fff"/>
        <path d="M214.186,159.013l-12.033,14.136h-48.346c-.079,0-.143-.064-.143-.142v-14.082c0-.079.064-.143.143-.143h60.3c.104.02.153.147.079.231" fill="#fff"/>
        <path d="M32.637,172.296v.023l-.207.829h-15.243l-.184-.829v-.023l-.53-2.279L.004,97.063c-.02-.089.047-.174.139-.174h15.342c.066,0,.124.046.139.111l9.185,40.713,1.036,4.582,5.272,23.347,1.52,6.654Z" fill="#fff"/>
      </g>
      <polygon points="49.538 97.488 48.686 101.31 48.686 101.333 43.275 125.256 43.275 125.279 41.732 132.072 32.638 172.296 32.638 172.319 32.43 173.148 17.188 173.148 17.004 172.319 17.004 172.296 17.027 172.135 22.484 148.005 24.809 137.713 33.904 97.442 34.019 96.889 49.423 96.889 49.538 97.488" fill="#fff"/>
      <path d="M83.483,96.89c.091,0,.159.085.139.174l-17.092,75.601-.115.484h-15.403l-.116-.484,1.866-8.266v-.023l5.41-23.9.553-2.417v-.023l9.254-41.035c.015-.065.072-.111.139-.111h15.365Z" fill="#fff"/>
      <polygon points="66.53 172.665 66.415 173.148 51.011 173.148 50.896 172.665 41.732 132.072 40.489 126.615 35.239 103.337 35.239 103.314 33.904 97.442 34.019 96.89 49.422 96.89 49.538 97.489 58.725 138.035 58.725 138.058 61.465 150.239 66.53 172.665" fill="#fff"/>
      <g>
        <path d="M179.398,107.363l-9.413,10.519-17.665-20.757c-.079-.094-.015-.236.108-.236h17.98c.044,0,.084.019.113.049l8.877,10.425Z" fill="#fff"/>
        <path d="M214.08,148.445h-18.005c-.039,0-.078-.02-.108-.054l-11.998-14.087-9.177-10.774,9.192-10.78.005.005,9.177,10.775,21.022,24.679c.079.093.01.236-.108.236" fill="#fff"/>
        <path d="M215.53,96.89c.121,0,.187.142.108.235l-22.471,26.405-9.198,10.776-11.999,14.087c-.027.032-.067.05-.108.05h-17.983c-.121,0-.187-.142-.108-.235l21.02-24.678,9.197-10.776,13.451-15.814c.027-.032.066-.05.108-.05h17.983Z" fill="#fff"/>
      </g>
    </g>
  </g>
</svg>