<?xml version="1.0" encoding="UTF-8"?>
<svg id="a" data-name="Layer 2" xmlns="http://www.w3.org/2000/svg" width="361.504" height="62.955" viewBox="0 0 361.504 62.955">
  <g id="b" data-name="Layer 1">
    <g>
      <path d="M40.178,29.539c-.085-.032-.096-.143-.018-.19,4.007-2.407,6.915-7.543,6.915-13.285C47.075,6.751,39.873.004,30.465.004H0v62.827c0,.065.053.118.118.118h32.723c3.858,0,7.374-1.045,10.206-2.927,4.542-2.984,7.411-8.02,7.411-14.14,0-7.478-4.198-14.064-10.28-16.343ZM12.22,11.43c0-.065.053-.118.118-.118h14.756c3.851,0,7.102,3.062,7.115,6.913.013,3.927-3.09,6.961-6.937,6.961h-14.934c-.065,0-.118-.053-.118-.118v-13.638ZM29.46,51.641H12.338c-.065,0-.118-.053-.118-.118v-15.558c0-.065.053-.117.118-.117h17.405c4.545,0,7.968,3.601,7.846,8.081-.118,4.328-3.8,7.712-8.129,7.712Z" fill="#fff"/>
      <path d="M90.877.005h-14.719c-.049,0-.093.03-.11.075l-23.1,59.943-1.122,2.927h13.506c.05,0,.094-.032.111-.078l1.017-2.849,3.298-9.216c.017-.047.061-.078.111-.078h26.936c.05,0,.093.031.111.077l4.409,12.066c.017.047.061.078.111.078h13.525c.083,0,.139-.083.11-.16L90.987.08c-.018-.045-.061-.075-.11-.075ZM92.424,39.136h-18.174c-.082,0-.139-.081-.111-.158l9.125-24.817c.038-.103.183-.103.221,0l9.05,24.818c.028.076-.029.157-.111.157Z" fill="#fff"/>
      <path d="M146.237,0h-24.514c-.066,0-.118.053-.118.118v62.715c0,.065.052.118.118.118h24.514c18.337,0,32.114-13.502,32.114-31.475S164.574,0,146.237,0ZM145.962,51.09h-11.65c-.065,0-.118-.052-.118-.117V11.979c0-.065.053-.118.118-.118h11.65c11.131,0,19.435,8.394,19.435,19.615s-8.304,19.614-19.435,19.614Z" fill="#fff"/>
      <path d="M310.44,51.093c-.063,0-.113.051-.116.113v-.114h-2.552c-3.927,0-7.12-1.639-9.49-5.015l-4.288-6.162c-.045-.065-.008-.155.069-.175,8.853-2.329,14.983-9.684,14.983-19.117C309.046,8.854,299.832.005,287.697.005h-27.888c-.065,0-.118.053-.118.118v62.714c0,.065.053.118.118.118h12.354c.065,0,.117-.053.117-.118v-22.208c0-.065.053-.118.118-.118h6.841c.04,0,.081.02.101.053l7.173,11.441c4.105,7.392,10.674,10.95,19.888,10.95h3.805c.064,0,.116-.052.117-.116.002.062.053.114.117.114h39.906l9.931-11.668c.061-.069.02-.174-.065-.191h-49.772ZM287.426,29.565h-15.028c-.065,0-.118-.053-.118-.118V11.982c0-.065.053-.118.118-.118h15.028c4.925,0,8.666,3.83,8.666,8.848s-3.741,8.853-8.666,8.853Z" fill="#fff"/>
      <path d="M252.393.007h-12.682c-.055,0-.103.038-.115.092l-7.639,33.868L224.375.502l-.095-.494h0s-12.714,0-12.714,0l-.095.456-7.507,33.24h0s0,0,0,0L196.382.099c-.012-.053-.06-.091-.115-.091h-12.663c-.075,0-.131.07-.115.143l13.594,60.216.438,1.881h0v.02l.152.684h0s12.581,0,12.581,0l.099-.396.073-.289v-.019l7.506-33.201h0s7.564,33.505,7.564,33.505l.095.399h0s12.714,0,12.714,0h0s0,0,0,0l.045-.187.051-.212L252.508.15c.016-.073-.04-.143-.115-.143Z" fill="#fff"/>
      <path d="M323.798,17.336l7.765-8.686L324.236.049c-.025-.028-.057-.041-.09-.041h-14.844c-.102,0-.155.118-.09.191l14.586,17.137Z" fill="#fff"/>
      <path d="M361.386.008h-14.844c-.033,0-.065.013-.089.041l-7.352,8.646-.6.701-3.149,3.705h0s-.004-.004-.004-.004l-6.705,7.864-.882,1.034-17.352,20.37c-.065.078-.008.195.089.195h14.845c.033,0,.065-.016.09-.04l9.903-11.628h0s9.904,11.627,9.904,11.627c.024.025.056.041.089.041h14.861c.097,0,.154-.118.089-.195l-17.352-20.37h0s0,0,0,0L361.476.199c.065-.073.012-.191-.09-.191Z" fill="#fff"/>
    </g>
  </g>
</svg>