<?xml version="1.0" encoding="UTF-8"?>
<svg id="b" data-name="Layer 2" xmlns="http://www.w3.org/2000/svg" width="338.768" height="442.283" viewBox="0 0 338.768 442.283">
  <g id="c" data-name="Layer 1">
    <g>
      <rect x="6" y="6" width="326.768" height="430.283" fill="#242422" stroke="#636257" stroke-miterlimit="10" stroke-width="12"/>
      <g>
        <path d="M173.675,160.774c1.992.169,3.988.661,5.959.96-3.244-2.483-7.876-3.888-11.901-4.677-4.342-.853-8.676-.768-13.065-1.1-.552-.041-1.066.038-1.433-.503,11.199-6.437,24.452-7.915,37.085-5.528,14.454,2.73,24.819,11.905,34.709,22.117-2.099-5.513-4.592-10.19-8.1-14.919-5.074-6.838-11.178-12.914-17.649-18.408,1.691-.493,3.775.429,5.366,1.071,10.003,4.022,20.214,14.94,26.122,23.783,9.06,13.562,13.85,29.501,14.55,45.818l.484-.318c.441-3.824,1.367-7.605,1.768-11.436,3.316-31.989-7.776-60.204-32.516-80.493-12.999-10.657-30.962-15.228-47.177-9.495-11.895,4.197-20.581,10.679-34.122,11.587-10.839.727-19.353-1.828-30.435.48-3.289.683-6.43,1.828-9.646,2.743-.113-.565.292-.791.638-1.128,1.382-1.344,3.543-2.225,4.942-3.432.333-.288.678-.309.535-.909l-17.06-.004c5.394-3.905,12.029-5.914,17.619-9.587,6.432-4.221,11.432-10.314,17.322-15.194,15.509-12.852,34.973-22.33,55.476-22.595.363-1.096.966-2.094,1.717-2.958.457-.529,2.939-1.951,1.879-2.634-.796-.168-1.608-.378-2.421-.473-24.627-2.794-53.786,5.219-72.28,22.048-7.403,6.731-8.412,14.755-17.7,19.971-5.761,3.233-12.637,5.236-19.001,6.919-.079.851-.011.518.48.638,3.519.817,6.748.84,8.806,4.4,5.4,9.348-5.562,19.504-14.759,16.531,4.078,4.225,11.553,6.008,17.265,6.72,17.738,2.212,32.535-9.282,49.8.749,5.151,2.99,11.007,7.838,8.525,14.511-3.09,8.318-27.097,24.058-35.826,24.058-2.352,0-4.743.107-7.085,0-.147-.006-.559-.83-.48.158,5.116,4.197,12.238,4.074,18.41,2.64,6.838-1.585,11.238-5.298,17.105-8.648,15.934-9.094,26.828-15.109,46.096-13.462ZM103.974,131.792l1.395-1.169c3.786-1.834,12.095-.265,16.192.806l4.626,1.649-22.213-1.286Z" fill="#636257"/>
        <path d="M176.74,79.316c.71-.006-.007.998.073,1.41.209,1.169,2.397.987,3.272.486.795-.458,1.58-2.116,2.286-2.866,2.092-2.235,3.807-4.022,6.752-5.157,11.035-4.231,18.404,2.16,14.264,13.62-1.405,3.899-3.69,5.692-7.115,7.695-1.056.616-6.539,2.51-2.636,2.843,4.464.38,8.209-.128,12.052-2.442,11.199-6.742,11.734-26.129-.723-31.742-13.292-5.991-28.441,5.613-30.155,19.048l1.93-2.894Z" fill="#636257"/>
        <path d="M221.881,96.704c.93.762,1.595,2.263,2.184,2.736,1.133.898,6.42,2.476,8.264,3.323,11.052,5.061,21.614,13.767,30.539,21.942,3.589,3.282,6.223,7.132,9.484,10.63-4.067-12.04-11.634-22.535-20.43-31.563-1.663-1.702-3.892-3.227-5.49-5.134-2.308-2.747-1.653-3.199-5.298-5.326-5.884-3.436-12.824-5.912-19.323-7.883-.051.301-.011.414.147.655.401.61,4.14,3.099,5.027,3.668,4.869,3.12,10.585,5.398,14.465,9.838l-18.274-4.417c-.881-.079-1.958-.198-2.82-.085-1.638.215,1.071,1.241,1.523,1.614Z" fill="#636257"/>
        <path d="M164.981,248.023c1.028-2.009,2.178-1.817,3.679-2.766,14.405-9.105,14.753-38.889,4.671-51.295-.288-.35-2.003-2.325-2.386-1.958l.188.981c-.853.576-1.943.13-2.28,1.269-2.709-3.649-5.095-7.832-9.502-9.653,4.012,4.221,6.923,10.284,8.84,15.787,4.876,13.97,4.238,28.091-.958,41.834-.706,1.873-2.167,3.877-2.252,5.801Z" fill="#636257"/>
        <path d="M241.39,137.49c8.356,11.809,16.222,24.977,20.255,38.987.457,1.595.282,3.722,1.376,4.901.301-3.852.092-7.842-.36-11.711-2.843-24.318-18.99-46.051-41.491-55.58,7.746,6.878,14.251,14.957,20.221,23.403Z" fill="#636257"/>
        <path d="M204.425,228.382c2.5-16.947-.977-41.574-17.288-50.805-7.074-4.001-15.013-5.315-22.957-6.501l8.024,4.046c15.599,9.845,26.005,24.938,30.196,42.89l2.026,10.37Z" fill="#636257"/>
        <path d="M115.09,150.472c-2.039.61-5.366,3.195-6.772,4.824-.857.994-5.97,8.469-5.953,9.186.024.761,2.828,2.809,3.555,3.193,4.067,2.122,10.233-1.467,13.072-4.44,2.76-2.894,4.841-6.906,5.586-10.832-6.258-.452-11.058,4.321-14.804,8.689,1.438-3.086,3.152-6.162,4.873-9.124.119-.203,1.704-1.873.441-1.495Z" fill="#636257"/>
        <path d="M188.977,230.956c.484.017.546-1.124.597-1.484,2.043-13.84-1.502-29.373-11.549-39.403,1.371,2.881,2.905,5.641,4.101,8.614,4.084,10.139,6.68,21.311,6.85,32.273Z" fill="#636257"/>
        <path d="M141.961,94.448c-4.455-.683-8.734-1.005-13.213-.181-6.979,1.292-14.296,6.251-17.365,12.735,8.224-3.606,14.859-10.359,24.068-11.826l6.509-.727Z" fill="#636257"/>
        <path d="M68.882,125.355c.58-.373,1.1-1.862,1.207-2.489.501-2.901.034-4.637-2.651-5.891-4.052-1.896-13.044-3.282-13.688,2.907,5.439-.572,14.426-2.173,15.132,5.473Z" fill="#636257"/>
        <path d="M254.328,132.763l-5.157-7.561c-7.537-8.981-17.423-15.414-28.645-18.839,4.042,2.99,8.877,4.903,13.046,7.712,4.287,2.894,8.343,6.59,12.236,9.988l8.52,8.7Z" fill="#636257"/>
        <path d="M100.628,173.293c1.546,1.608,2.18,1.941,4.306,1.152.388-.141,3.408-1.625,3.549-1.766.484-.508-.113-.548-.452-.672-1.365-.501-2.404-.546-3.837-1.32-2.47-1.337-4.502-3.735-6.979-5.089.57,2.698,1.472,5.675,3.413,7.695Z" fill="#636257"/>
        <path d="M124.038,107.587c-1.463,1.015-3.007,1.173-4.611,1.828,2.16,2.065,5.936,2.353,8.48.757,1.958-1.237,2.331-3.737,3.11-5.744-1.299.384-4.046.247-5.061,1.06-.535.429-.947,1.427-1.917,2.099Z" fill="#636257"/>
        <path d="M86.766,145.981c-.655.023-2.822-.902-3.075-.665-.501,1.612,6.371,8.525,6.761,8.051l-1.614-8.051c-.84-.136-1.252.631-2.071.665Z" fill="#636257"/>
        <path d="M75.273,145.039l-4.462-1.331c.35,3.097,2.353,6.567,5.151,8.045-.599-2.24-.734-4.389-.689-6.714Z" fill="#636257"/>
        <path d="M86.912,167.533c.04,1.794,1.728,4.468,3.009,5.682.97.915,2.741,2.178,4.033,1.354,1.44-2.239-5.976-5.428-7.042-7.036Z" fill="#636257"/>
        <path d="M161.884,57.266c-6.925-4.178-14.806-4.752-20.379-1.152-2.429,1.568-4.001,3.66-5.01,5.492,3.092-1.292,7.089-2.643,11.858-3.508,5.302-.964,9.947-1.036,13.53-.832Z" fill="#636257"/>
      </g>
      <g>
        <polygon points="152.015 275.506 128.606 205.241 180.275 205.241 196.273 259.142 152.015 275.506" fill="#242422"/>
        <path d="M76.152,256.515c0-.079.063-.143.142-.143h21.087c5.506,0,9.653,4.364,9.505,9.791-.143,5.243-4.603,9.343-9.848,9.343h-20.744c-.079,0-.142-.064-.142-.142v-18.849ZM76.294,226.647h17.877c4.666,0,8.605,3.709,8.62,8.375.016,4.757-3.743,8.433-8.404,8.433h-18.093c-.079,0-.142-.063-.142-.142v-16.524c0-.078.063-.142.142-.142M110.023,248.729c-.103-.039-.116-.173-.022-.23,4.854-2.917,8.378-9.138,8.378-16.096,0-11.282-8.726-19.456-20.123-19.456h-36.91v76.116c0,.079.064.143.143.143h39.645c4.674,0,8.933-1.267,12.364-3.546,5.503-3.615,8.98-9.717,8.98-17.131,0-9.059-5.086-17.039-12.455-19.8" fill="#636257"/>
        <path d="M151.168,260.164l11.055-30.067c.046-.124.222-.124.267,0l10.964,30.067c.034.093-.035.191-.133.191h-22.019c-.099,0-.168-.098-.134-.191M171.446,212.947h-17.833c-.059,0-.112.036-.133.091l-27.986,72.622-1.359,3.546h16.363c.06,0,.114-.038.134-.095l1.233-3.451,3.995-11.165c.02-.057.074-.094.134-.094h32.634c.06,0,.113.037.134.093l5.342,14.618c.021.056.074.094.134.094h16.386c.1,0,.169-.101.133-.194l-29.178-75.974c-.021-.055-.074-.091-.133-.091" fill="#636257"/>
        <path d="M223.925,227.453v47.243c0,.078.064.142.142.142h14.116c13.484,0,23.544-10.168,23.544-23.764s-10.06-23.763-23.544-23.763h-14.116c-.078,0-.142.064-.142.142M208.673,213.084c0-.079.064-.142.142-.142h29.701c22.215,0,38.906,16.359,38.906,38.132s-16.691,38.133-38.906,38.133h-29.701c-.078,0-.142-.063-.142-.142v-75.981Z" fill="#636257"/>
        <path d="M187.271,337.719h-18.206c-.079,0-.143-.064-.143-.143v-21.155c0-.079.064-.143.143-.143h18.206c5.967,0,10.499,4.64,10.499,10.721s-4.532,10.72-10.499,10.72M211.921,363.804c-4.758,0-8.626-1.991-11.497-6.08l-5.195-7.462c-.054-.078-.01-.186.083-.211,10.725-2.821,18.152-11.737,18.152-23.165,0-14.255-11.162-24.98-25.864-24.98h-33.787c-.079,0-.143.064-.143.143v75.98c0,.078.064.142.143.142h14.967c.078,0,.142-.064.142-.142v-26.906c0-.079.064-.138.143-.138h8.287c.049,0,.098.025.123.064l8.69,13.861c4.974,8.951,12.932,13.261,24.095,13.261h4.61c.079,0,.143-.064.143-.142v-14.225h-3.092Z" fill="#636257"/>
        <path d="M275.532,364.035l-12.033,14.136h-48.346c-.079,0-.143-.064-.143-.142v-14.082c0-.079.064-.143.143-.143h60.3c.104.02.153.147.079.231" fill="#636257"/>
        <path d="M93.983,377.319v.023l-.207.829h-15.243l-.184-.829v-.023l-.53-2.279-16.469-72.954c-.02-.089.047-.174.139-.174h15.342c.066,0,.124.046.139.111l9.185,40.713,1.036,4.582,5.272,23.347,1.52,6.654Z" fill="#636257"/>
        <polygon points="110.884 302.511 110.032 306.333 110.032 306.356 104.621 330.279 104.621 330.302 103.078 337.095 93.984 377.319 93.984 377.342 93.776 378.171 78.534 378.171 78.35 377.342 78.35 377.319 78.373 377.158 83.83 353.028 86.155 342.736 95.25 302.465 95.365 301.912 110.769 301.912 110.884 302.511" fill="#636257"/>
        <path d="M144.828,301.912c.091,0,.159.085.139.174l-17.092,75.601-.115.484h-15.403l-.116-.484,1.866-8.266v-.023l5.41-23.9.553-2.417v-.023l9.254-41.035c.015-.065.072-.111.139-.111h15.365Z" fill="#636257"/>
        <polygon points="127.876 377.687 127.761 378.17 112.357 378.17 112.242 377.687 103.078 337.094 101.835 331.637 96.585 308.359 96.585 308.336 95.25 302.464 95.365 301.912 110.768 301.912 110.884 302.511 120.071 343.057 120.071 343.08 122.811 355.261 127.876 377.687" fill="#636257"/>
        <path d="M240.744,312.385l-9.413,10.519-17.665-20.757c-.079-.094-.015-.236.108-.236h17.98c.044,0,.084.019.113.049l8.877,10.425Z" fill="#636257"/>
        <path d="M275.426,353.467h-18.005c-.039,0-.078-.02-.108-.054l-11.998-14.087-9.177-10.774,9.192-10.78.005.005,9.177,10.775,21.022,24.679c.079.093.01.236-.108.236" fill="#636257"/>
        <path d="M276.876,301.912c.121,0,.187.142.108.235l-22.471,26.405-9.198,10.776-11.999,14.087c-.027.032-.067.05-.108.05h-17.983c-.121,0-.187-.142-.108-.235l21.02-24.678,9.197-10.776,13.451-15.814c.027-.032.066-.05.108-.05h17.983Z" fill="#636257"/>
      </g>
    </g>
  </g>
</svg>