<?xml version="1.0" encoding="UTF-8"?>
<svg id="a" data-name="Layer 2" xmlns="http://www.w3.org/2000/svg" width="282.305" height="210.405" viewBox="0 0 282.305 210.405">
  <g id="b" data-name="Layer 1">
    <g>
      <g>
        <path d="M48.151,43.572c0-.079.063-.143.142-.143h21.087c5.506,0,9.653,4.364,9.505,9.791-.143,5.243-4.603,9.343-9.848,9.343h-20.744c-.079,0-.142-.064-.142-.142v-18.849ZM48.293,13.704h17.877c4.666,0,8.605,3.709,8.62,8.375.016,4.757-3.743,8.433-8.404,8.433h-18.093c-.079,0-.142-.063-.142-.142V13.846c0-.078.063-.142.142-.142M82.022,35.786c-.103-.039-.116-.173-.022-.23,4.854-2.917,8.378-9.138,8.378-16.096C90.379,8.178,81.652.005,70.255.005h-36.91v76.116c0,.079.064.143.143.143h39.645c4.674,0,8.933-1.267,12.364-3.546,5.503-3.615,8.98-9.717,8.98-17.131,0-9.059-5.086-17.039-12.455-19.8" fill="#d22026"/>
        <path d="M123.168,47.222l11.055-30.067c.046-.124.222-.124.267,0l10.964,30.067c.034.093-.035.191-.133.191h-22.019c-.099,0-.168-.098-.134-.191M143.446.005h-17.833c-.059,0-.112.036-.133.091l-27.986,72.622-1.359,3.546h16.363c.06,0,.114-.038.134-.095l1.233-3.451,3.995-11.165c.02-.057.074-.094.134-.094h32.634c.06,0,.113.037.134.093l5.342,14.618c.021.056.074.094.134.094h16.386c.1,0,.169-.101.133-.194L143.579.096c-.021-.055-.074-.091-.133-.091" fill="#d22026"/>
        <path d="M195.925,14.511v47.243c0,.078.064.142.142.142h14.116c13.484,0,23.544-10.168,23.544-23.764s-10.06-23.763-23.544-23.763h-14.116c-.078,0-.142.064-.142.142M180.673.142c0-.079.064-.142.142-.142h29.701c22.215,0,38.906,16.359,38.906,38.132s-16.691,38.133-38.906,38.133h-29.701c-.078,0-.142-.063-.142-.142V.142Z" fill="#d22026"/>
        <path d="M159.27,124.776h-18.206c-.079,0-.143-.064-.143-.143v-21.155c0-.079.064-.143.143-.143h18.206c5.967,0,10.499,4.64,10.499,10.721s-4.532,10.72-10.499,10.72M183.92,150.861c-4.758,0-8.626-1.991-11.497-6.08l-5.195-7.462c-.054-.078-.01-.186.083-.211,10.725-2.821,18.152-11.737,18.152-23.165,0-14.255-11.162-24.98-25.864-24.98h-33.787c-.079,0-.143.064-.143.143v75.98c0,.078.064.142.143.142h14.967c.078,0,.142-.064.142-.142v-26.906c0-.079.064-.138.143-.138h8.287c.049,0,.098.025.123.064l8.69,13.861c4.974,8.951,12.932,13.261,24.095,13.261h4.61c.079,0,.143-.064.143-.142v-14.225h-3.092Z" fill="#d22026"/>
        <path d="M247.531,151.093l-12.033,14.136h-48.346c-.079,0-.143-.064-.143-.142v-14.082c0-.079.064-.143.143-.143h60.3c.104.02.153.147.079.231" fill="#d22026"/>
        <path d="M65.983,164.376v.023l-.207.829h-15.243l-.184-.829v-.023l-.53-2.279-16.469-72.954c-.02-.089.047-.174.139-.174h15.342c.066,0,.124.046.139.111l9.185,40.713,1.036,4.582,5.272,23.347,1.52,6.654Z" fill="#d22026"/>
        <polygon points="82.883 89.568 82.031 93.39 82.031 93.413 76.62 117.336 76.62 117.359 75.077 124.152 65.983 164.376 65.983 164.399 65.775 165.228 50.533 165.228 50.349 164.399 50.349 164.376 50.372 164.215 55.829 140.085 58.154 129.793 67.249 89.522 67.364 88.969 82.768 88.969 82.883 89.568" fill="#d22026"/>
        <path d="M116.828,88.97c.091,0,.159.085.139.174l-17.092,75.601-.115.484h-15.403l-.116-.484,1.866-8.266v-.023l5.41-23.9.553-2.417v-.023l9.254-41.035c.015-.065.072-.111.139-.111h15.365Z" fill="#d22026"/>
        <polygon points="99.876 164.745 99.761 165.228 84.357 165.228 84.241 164.745 75.078 124.152 73.835 118.695 68.585 95.417 68.585 95.394 67.25 89.522 67.365 88.97 82.768 88.97 82.884 89.569 92.071 130.115 92.071 130.138 94.811 142.319 99.876 164.745" fill="#d22026"/>
        <path d="M212.744,99.443l-9.413,10.519-17.665-20.757c-.079-.094-.015-.236.108-.236h17.98c.044,0,.084.019.113.049l8.877,10.425Z" fill="#d22026"/>
        <path d="M247.425,140.525h-18.005c-.039,0-.078-.02-.108-.054l-11.998-14.087-9.177-10.774,9.192-10.78.005.005,9.177,10.775,21.022,24.679c.079.093.01.236-.108.236" fill="#d22026"/>
        <path d="M248.875,88.97c.121,0,.187.142.108.235l-22.471,26.405-9.198,10.776-11.999,14.087c-.027.032-.067.05-.108.05h-17.983c-.121,0-.187-.142-.108-.235l21.02-24.678,9.197-10.776,13.451-15.814c.027-.032.066-.05.108-.05h17.983Z" fill="#d22026"/>
      </g>
      <g>
        <path d="M14.891,197.775c0,1.173-.268,2.212-.803,3.116s-1.296,1.61-2.281,2.12-2.159.764-3.52.764H3.79v6.373H0v-18.103h8.133c2.167,0,3.835.499,5.004,1.497s1.754,2.409,1.754,4.234ZM11.075,197.839c0-1.902-1.122-2.852-3.366-2.852h-3.919v5.872h4.022c1.045,0,1.85-.259,2.415-.777s.848-1.266.848-2.242Z" fill="#d22026"/>
        <path d="M23.973,203.274v6.874h-3.79v-18.103h9.045c2.159,0,3.825.465,4.998,1.394s1.76,2.263,1.76,4.002c0,1.268-.36,2.362-1.079,3.283s-1.692,1.527-2.917,1.818l4.895,7.606h-4.266l-4.201-6.874h-4.446ZM32.17,197.595c0-.865-.278-1.516-.835-1.953s-1.392-.655-2.505-.655h-4.857v5.345h4.959c1.062,0,1.867-.24,2.415-.72s.822-1.152.822-2.017Z" fill="#d22026"/>
        <path d="M56.58,207.218v2.929h-14.763v-18.103h14.236v2.929h-10.446v4.548h9.662v2.929h-9.662v4.767h10.973Z" fill="#d22026"/>
        <path d="M70.454,207.424c2.296,0,3.885-1.148,4.767-3.443l3.302,1.246c-.711,1.747-1.754,3.047-3.129,3.899s-3.022,1.278-4.94,1.278c-1.936,0-3.585-.37-4.947-1.111s-2.401-1.814-3.116-3.219-1.073-3.092-1.073-5.062c0-1.987.343-3.666,1.028-5.037s1.696-2.413,3.032-3.129,2.972-1.073,4.908-1.073c2.124,0,3.855.426,5.191,1.278s2.274,2.105,2.814,3.758l-3.341.912c-.283-.908-.837-1.63-1.664-2.165s-1.801-.803-2.923-.803c-1.713,0-3.013.531-3.899,1.593s-1.33,2.617-1.33,4.664c0,1.388.203,2.557.61,3.508s1.006,1.672,1.799,2.165,1.762.739,2.91.739Z" fill="#d22026"/>
        <path d="M87.423,192.044v18.103h-3.79v-18.103h3.79Z" fill="#d22026"/>
        <path d="M108.338,204.931c0,1.773-.657,3.129-1.972,4.067s-3.244,1.407-5.788,1.407c-4.583,0-7.251-1.657-8.005-4.972l3.662-.604c.248.959.732,1.655,1.452,2.088s1.717.649,2.994.649c1.328,0,2.321-.201,2.981-.604s.989-1.006.989-1.812c0-.514-.15-.938-.45-1.272s-.728-.612-1.285-.835c-.274-.111-.677-.233-1.208-.366s-1.191-.281-1.979-.443c-.908-.214-1.619-.396-2.133-.546s-.925-.296-1.233-.437-.608-.298-.899-.469c-.642-.385-1.144-.899-1.503-1.542s-.54-1.443-.54-2.403c0-1.636.615-2.889,1.844-3.758s3.017-1.304,5.364-1.304c2.244,0,3.929.351,5.056,1.054s1.852,1.863,2.178,3.482l-3.675.501c-.188-.779-.572-1.366-1.15-1.76s-1.407-.591-2.486-.591c-1.148,0-2.009.18-2.583.54s-.861.899-.861,1.619c0,.471.122.857.366,1.156s.606.557,1.086.771c.454.206,1.426.467,2.917.784.865.188,1.61.366,2.236.533s1.126.328,1.503.482c.377.163.713.334,1.009.514s.55.373.764.578c.437.42.771.919,1.002,1.497s.347,1.244.347,1.998Z" fill="#d22026"/>
        <path d="M117.548,192.044v18.103h-3.79v-18.103h3.79Z" fill="#d22026"/>
        <path d="M141.302,201.013c0,1.884-.379,3.531-1.137,4.94s-1.824,2.503-3.199,3.283-2.987,1.169-4.837,1.169c-1.893,0-3.52-.379-4.882-1.137s-2.407-1.839-3.135-3.244-1.092-3.075-1.092-5.011.362-3.593,1.086-4.972,1.769-2.435,3.135-3.167,3.004-1.099,4.915-1.099,3.559.37,4.921,1.111,2.407,1.801,3.135,3.18,1.092,3.028,1.092,4.947ZM137.435,201.013c0-1.953-.463-3.484-1.388-4.593s-2.223-1.664-3.893-1.664c-1.696,0-3.007.55-3.932,1.651s-1.388,2.636-1.388,4.606c0,1.319.214,2.458.642,3.418s1.039,1.698,1.831,2.216,1.732.777,2.82.777c1.696,0,3.004-.557,3.925-1.67s1.381-2.694,1.381-4.741Z" fill="#d22026"/>
        <path d="M150.166,199.471v10.677h-3.366v-18.103h4.33l8.005,14.056c-.154-1.302-.231-2.48-.231-3.533v-10.523h3.366v18.103h-4.446l-7.889-13.941c.077.677.135,1.287.173,1.831s.058,1.021.058,1.433Z" fill="#d22026"/>
        <path d="M182.165,203.274v6.874h-3.79v-18.103h9.045c2.159,0,3.825.465,4.998,1.394s1.76,2.263,1.76,4.002c0,1.268-.36,2.362-1.079,3.283s-1.692,1.527-2.917,1.818l4.895,7.606h-4.266l-4.201-6.874h-4.446ZM190.362,197.595c0-.865-.278-1.516-.835-1.953s-1.392-.655-2.505-.655h-4.857v5.345h4.959c1.062,0,1.867-.24,2.415-.72s.822-1.152.822-2.017Z" fill="#d22026"/>
        <path d="M203.799,192.044v18.103h-3.79v-18.103h3.79Z" fill="#d22026"/>
        <path d="M213.742,203.505v6.643h-3.79v-18.103h13.349v2.929h-9.559v5.602h9.264v2.929h-9.264Z" fill="#d22026"/>
        <path d="M242.16,207.218v2.929h-13.504v-18.103h3.79v15.174h9.713Z" fill="#d22026"/>
        <path d="M262.122,207.218v2.929h-14.763v-18.103h14.236v2.929h-10.446v4.548h9.662v2.929h-9.662v4.767h10.973Z" fill="#d22026"/>
        <path d="M282.305,204.931c0,1.773-.657,3.129-1.972,4.067s-3.244,1.407-5.788,1.407c-4.583,0-7.251-1.657-8.005-4.972l3.662-.604c.248.959.732,1.655,1.452,2.088s1.717.649,2.994.649c1.328,0,2.321-.201,2.981-.604s.989-1.006.989-1.812c0-.514-.15-.938-.45-1.272s-.728-.612-1.285-.835c-.274-.111-.677-.233-1.208-.366s-1.191-.281-1.979-.443c-.908-.214-1.619-.396-2.133-.546s-.925-.296-1.233-.437-.608-.298-.899-.469c-.642-.385-1.144-.899-1.503-1.542s-.54-1.443-.54-2.403c0-1.636.615-2.889,1.844-3.758s3.017-1.304,5.364-1.304c2.244,0,3.929.351,5.056,1.054s1.852,1.863,2.178,3.482l-3.675.501c-.188-.779-.572-1.366-1.15-1.76s-1.407-.591-2.486-.591c-1.148,0-2.009.18-2.583.54s-.861.899-.861,1.619c0,.471.122.857.366,1.156s.606.557,1.086.771c.454.206,1.426.467,2.917.784.865.188,1.61.366,2.236.533s1.126.328,1.503.482c.377.163.713.334,1.009.514s.55.373.764.578c.437.42.771.919,1.002,1.497s.347,1.244.347,1.998Z" fill="#d22026"/>
      </g>
    </g>
  </g>
</svg>