<?xml version="1.0" encoding="UTF-8"?>
<svg id="a" data-name="Layer 3" xmlns="http://www.w3.org/2000/svg" width="361.504" height="259.429" viewBox="0 0 361.504 259.429">
  <g id="b" data-name="Layer 1">
    <g>
      <g>
        <path d="M171.109,75.335c1.402.119,2.807.465,4.194.676-2.283-1.747-5.544-2.736-8.376-3.292-3.056-.6-6.106-.54-9.196-.775-.389-.029-.751.027-1.009-.354,7.882-4.53,17.21-5.571,26.101-3.891,10.173,1.921,17.468,8.379,24.429,15.566-1.477-3.88-3.232-7.172-5.701-10.5-3.571-4.812-7.867-9.089-12.421-12.956,1.19-.347,2.657.302,3.777.754,7.04,2.831,14.227,10.515,18.385,16.739,6.377,9.545,9.748,20.763,10.24,32.248l.341-.224c.311-2.691.962-5.353,1.244-8.049,2.334-22.515-5.473-42.373-22.886-56.653-9.149-7.501-21.791-10.718-33.204-6.683-8.372,2.954-14.486,7.516-24.016,8.155-7.628.512-13.621-1.286-21.421.338-2.315.48-4.526,1.286-6.789,1.93-.08-.398.206-.557.449-.794.973-.946,2.493-1.566,3.478-2.415.234-.203.477-.218.377-.64l-12.007-.003c3.796-2.748,8.466-4.162,12.4-6.747,4.527-2.971,8.046-7.259,12.192-10.694,10.916-9.046,24.615-15.716,39.045-15.903.255-.772.68-1.474,1.208-2.082.321-.372,2.068-1.373,1.323-1.854-.56-.119-1.132-.266-1.704-.333-17.333-1.966-37.856,3.673-50.872,15.518-5.21,4.737-5.92,10.385-12.458,14.056-4.054,2.276-8.894,3.685-13.373,4.87-.056.599-.008.365.338.449,2.477.575,4.749.591,6.198,3.097,3.801,6.579-3.915,13.728-10.388,11.635,2.87,2.974,8.131,4.229,12.151,4.73,12.485,1.557,22.899-6.533,35.051.527,3.625,2.104,7.747,5.516,6,10.213-2.175,5.854-19.071,16.932-25.215,16.932-1.656,0-3.338.075-4.987,0-.104-.004-.393-.584-.338.111,3.601,2.954,8.613,2.867,12.957,1.858,4.812-1.115,7.909-3.729,12.039-6.087,11.215-6.401,18.882-10.634,32.443-9.475ZM122.052,54.937l.982-.823c2.664-1.291,8.513-.186,11.396.567l3.256,1.16-15.634-.905Z" fill="#fff"/>
        <path d="M173.266,18.003c.5-.004-.005.702.051.992.147.823,1.687.695,2.303.342.56-.323,1.112-1.489,1.609-2.017,1.473-1.573,2.679-2.831,4.752-3.63,7.767-2.978,12.953,1.521,10.039,9.586-.989,2.744-2.597,4.006-5.008,5.416-.743.434-4.602,1.767-1.855,2.001,3.142.267,5.778-.09,8.483-1.719,7.882-4.745,8.259-18.39-.509-22.341-9.355-4.217-20.017,3.951-21.224,13.406l1.359-2.037Z" fill="#fff"/>
        <path d="M205.037,30.241c.655.536,1.123,1.593,1.537,1.926.797.632,4.518,1.743,5.817,2.339,7.779,3.562,15.212,9.69,21.494,15.443,2.526,2.31,4.38,5.02,6.675,7.481-2.863-8.474-8.188-15.861-14.379-22.215-1.171-1.198-2.74-2.271-3.864-3.613-1.624-1.933-1.163-2.252-3.729-3.748-4.142-2.418-9.026-4.161-13.6-5.548-.036.212-.008.291.104.461.282.429,2.914,2.181,3.538,2.582,3.427,2.196,7.45,3.799,10.18,6.924l-12.861-3.109c-.62-.056-1.378-.14-1.984-.06-1.153.152.754.874,1.072,1.136Z" fill="#fff"/>
        <path d="M164.99,136.742c.724-1.414,1.533-1.279,2.589-1.947,10.138-6.408,10.383-27.371,3.287-36.103-.203-.246-1.409-1.636-1.68-1.378l.132.691c-.6.405-1.368.092-1.605.893-1.906-2.568-3.586-5.512-6.687-6.794,2.824,2.971,4.873,7.238,6.222,11.111,3.432,9.832,2.983,19.771-.674,29.444-.497,1.318-1.525,2.729-1.585,4.083Z" fill="#fff"/>
        <path d="M218.768,58.947c5.881,8.312,11.417,17.579,14.256,27.44.321,1.123.198,2.619.968,3.45.212-2.711.065-5.52-.254-8.243-2.001-17.115-13.366-32.412-29.202-39.118,5.452,4.841,10.03,10.527,14.232,16.472Z" fill="#fff"/>
        <path d="M192.751,122.919c1.759-11.928-.687-29.261-12.168-35.757-4.979-2.816-10.566-3.741-16.158-4.575l5.647,2.848c10.979,6.929,18.303,17.552,21.252,30.187l1.426,7.298Z" fill="#fff"/>
        <path d="M129.875,68.084c-1.435.429-3.777,2.249-4.766,3.396-.603.7-4.202,5.961-4.19,6.465.017.536,1.991,1.977,2.502,2.247,2.863,1.494,7.202-1.033,9.2-3.125,1.942-2.037,3.408-4.86,3.931-7.624-4.404-.318-7.783,3.041-10.419,6.115,1.012-2.172,2.219-4.337,3.43-6.422.084-.143,1.199-1.318.311-1.052Z" fill="#fff"/>
        <path d="M181.879,124.73c.341.012.384-.791.42-1.045,1.438-9.741-1.057-20.673-8.128-27.733.965,2.028,2.044,3.97,2.887,6.063,2.875,7.136,4.701,14.999,4.821,22.715Z" fill="#fff"/>
        <path d="M148.788,28.653c-3.136-.48-6.147-.707-9.299-.128-4.912.91-10.062,4.4-12.222,8.963,5.788-2.538,10.458-7.291,16.94-8.324l4.581-.512Z" fill="#fff"/>
        <path d="M97.353,50.406c.408-.263.775-1.31.85-1.752.353-2.042.024-3.263-1.866-4.146-2.852-1.334-9.181-2.31-9.634,2.046,3.828-.402,10.153-1.53,10.65,3.852Z" fill="#fff"/>
        <path d="M227.874,55.62l-3.63-5.321c-5.305-6.321-12.262-10.848-20.161-13.259,2.845,2.104,6.248,3.451,9.182,5.428,3.017,2.037,5.872,4.638,8.612,7.03l5.997,6.123Z" fill="#fff"/>
        <path d="M119.696,84.146c1.088,1.132,1.534,1.366,3.031.811.273-.099,2.399-1.144,2.498-1.243.341-.357-.08-.386-.318-.473-.961-.353-1.692-.384-2.7-.929-1.738-.941-3.169-2.628-4.912-3.582.401,1.899,1.036,3.994,2.402,5.416Z" fill="#fff"/>
        <path d="M136.173,37.901c-1.03.715-2.116.826-3.245,1.286,1.521,1.453,4.178,1.656,5.968.533,1.378-.871,1.641-2.63,2.189-4.042-.914.27-2.848.174-3.562.746-.377.302-.667,1.004-1.35,1.477Z" fill="#fff"/>
        <path d="M109.94,64.923c-.461.016-1.986-.635-2.165-.468-.353,1.135,4.484,6,4.758,5.667l-1.136-5.667c-.591-.096-.881.444-1.458.468Z" fill="#fff"/>
        <path d="M101.851,64.26l-3.14-.937c.246,2.18,1.656,4.622,3.625,5.662-.422-1.576-.516-3.089-.485-4.725Z" fill="#fff"/>
        <path d="M110.043,80.092c.028,1.262,1.216,3.145,2.118,3.999.683.644,1.929,1.533,2.839.953,1.013-1.576-4.206-3.82-4.957-4.952Z" fill="#fff"/>
        <path d="M162.81,2.483c-4.874-2.941-10.421-3.344-14.343-.811-1.71,1.103-2.816,2.576-3.526,3.865,2.177-.91,4.99-1.86,8.346-2.469,3.732-.678,7.001-.729,9.523-.585Z" fill="#fff"/>
      </g>
      <g>
        <path d="M19.069,243.255c0,1.503-.343,2.833-1.028,3.99s-1.659,2.062-2.92,2.715-2.764.979-4.508.979h-5.759v8.161H0v-23.182h10.415c2.775,0,4.911.639,6.408,1.917s2.246,3.085,2.246,5.421ZM14.182,243.338c0-2.435-1.437-3.653-4.311-3.653h-5.018v7.519h5.15c1.338,0,2.369-.332,3.093-.995s1.086-1.621,1.086-2.871Z" fill="#fff"/>
        <path d="M30.698,250.297v8.802h-4.854v-23.182h11.583c2.764,0,4.897.595,6.4,1.785s2.254,2.898,2.254,5.125c0,1.623-.461,3.025-1.382,4.204s-2.166,1.955-3.735,2.328l6.269,9.74h-5.462l-5.38-8.802h-5.693ZM41.195,243.025c0-1.108-.356-1.941-1.069-2.501s-1.782-.839-3.208-.839h-6.219v6.844h6.351c1.36,0,2.391-.307,3.093-.921s1.053-1.475,1.053-2.583Z" fill="#fff"/>
        <path d="M72.453,255.348v3.751h-18.904v-23.182h18.23v3.751h-13.376v5.824h12.373v3.751h-12.373v6.104h14.051Z" fill="#fff"/>
        <path d="M90.22,255.612c2.94,0,4.974-1.47,6.104-4.409l4.228,1.596c-.91,2.238-2.246,3.902-4.006,4.993s-3.869,1.637-6.326,1.637c-2.479,0-4.59-.474-6.334-1.423s-3.074-2.323-3.99-4.121-1.374-3.96-1.374-6.482c0-2.545.439-4.695,1.316-6.45s2.172-3.09,3.883-4.006,3.806-1.374,6.285-1.374c2.72,0,4.936.546,6.647,1.637s2.912,2.696,3.603,4.812l-4.278,1.168c-.362-1.163-1.072-2.087-2.131-2.772s-2.306-1.028-3.743-1.028c-2.194,0-3.858.68-4.993,2.04s-1.703,3.351-1.703,5.972c0,1.777.261,3.274.782,4.492s1.289,2.142,2.303,2.772,2.257.946,3.727.946Z" fill="#fff"/>
        <path d="M111.949,235.917v23.182h-4.854v-23.182h4.854Z" fill="#fff"/>
        <path d="M138.731,252.42c0,2.271-.842,4.006-2.526,5.207s-4.154,1.802-7.412,1.802c-5.868,0-9.285-2.122-10.25-6.367l4.689-.773c.318,1.228.938,2.12,1.859,2.674s2.199.831,3.834.831c1.7,0,2.973-.258,3.817-.773s1.267-1.289,1.267-2.32c0-.658-.192-1.201-.576-1.629s-.932-.784-1.645-1.069c-.351-.143-.867-.299-1.547-.469s-1.525-.359-2.534-.568c-1.163-.274-2.073-.507-2.731-.699s-1.185-.378-1.579-.559-.779-.381-1.152-.601c-.823-.494-1.464-1.152-1.925-1.974s-.691-1.848-.691-3.077c0-2.095.787-3.699,2.361-4.812s3.864-1.67,6.869-1.67c2.874,0,5.032.45,6.474,1.349s2.372,2.386,2.789,4.459l-4.706.642c-.241-.998-.732-1.749-1.473-2.254s-1.802-.757-3.184-.757c-1.47,0-2.572.23-3.307.691s-1.102,1.152-1.102,2.073c0,.603.156,1.097.469,1.481s.776.713,1.39.987c.581.263,1.826.598,3.735,1.004,1.108.241,2.062.469,2.863.683s1.442.42,1.925.617c.483.208.913.428,1.292.658s.705.477.979.74c.559.537.987,1.176,1.283,1.917s.444,1.593.444,2.558Z" fill="#fff"/>
        <path d="M150.525,235.917v23.182h-4.854v-23.182h4.854Z" fill="#fff"/>
        <path d="M180.944,247.402c0,2.413-.485,4.522-1.456,6.326s-2.336,3.206-4.097,4.204-3.825,1.497-6.195,1.497c-2.424,0-4.508-.485-6.252-1.456s-3.082-2.356-4.015-4.154-1.399-3.938-1.399-6.417.463-4.601,1.39-6.367,2.265-3.118,4.015-4.056,3.847-1.407,6.293-1.407,4.557.474,6.301,1.423,3.082,2.306,4.015,4.072,1.399,3.877,1.399,6.334ZM175.992,247.402c0-2.501-.592-4.461-1.777-5.882s-2.846-2.131-4.985-2.131c-2.172,0-3.85.705-5.035,2.114s-1.777,3.376-1.777,5.898c0,1.689.274,3.148.823,4.376s1.33,2.175,2.345,2.838,2.218.995,3.611.995c2.172,0,3.847-.713,5.026-2.139s1.769-3.45,1.769-6.071Z" fill="#fff"/>
        <path d="M192.294,245.427v13.672h-4.311v-23.182h5.545l10.25,18c-.197-1.667-.296-3.175-.296-4.525v-13.475h4.311v23.182h-5.693l-10.102-17.851c.099.867.173,1.648.222,2.345s.074,1.308.074,1.835Z" fill="#fff"/>
        <path d="M233.27,250.297v8.802h-4.854v-23.182h11.583c2.764,0,4.897.595,6.4,1.785s2.254,2.898,2.254,5.125c0,1.623-.461,3.025-1.382,4.204s-2.166,1.955-3.735,2.328l6.269,9.74h-5.462l-5.38-8.802h-5.693ZM243.767,243.025c0-1.108-.356-1.941-1.069-2.501s-1.782-.839-3.208-.839h-6.219v6.844h6.351c1.36,0,2.391-.307,3.093-.921s1.053-1.475,1.053-2.583Z" fill="#fff"/>
        <path d="M260.974,235.917v23.182h-4.854v-23.182h4.854Z" fill="#fff"/>
        <path d="M273.706,250.593v8.506h-4.854v-23.182h17.095v3.751h-12.241v7.173h11.863v3.751h-11.863Z" fill="#fff"/>
        <path d="M310.097,255.348v3.751h-17.292v-23.182h4.854v19.431h12.438Z" fill="#fff"/>
        <path d="M335.66,255.348v3.751h-18.904v-23.182h18.23v3.751h-13.376v5.824h12.373v3.751h-12.373v6.104h14.051Z" fill="#fff"/>
        <path d="M361.504,252.42c0,2.271-.842,4.006-2.526,5.207s-4.154,1.802-7.412,1.802c-5.868,0-9.285-2.122-10.25-6.367l4.689-.773c.318,1.228.938,2.12,1.859,2.674s2.199.831,3.834.831c1.7,0,2.973-.258,3.817-.773s1.267-1.289,1.267-2.32c0-.658-.192-1.201-.576-1.629s-.932-.784-1.645-1.069c-.351-.143-.867-.299-1.547-.469s-1.525-.359-2.534-.568c-1.163-.274-2.073-.507-2.731-.699s-1.185-.378-1.579-.559-.779-.381-1.152-.601c-.823-.494-1.464-1.152-1.925-1.974s-.691-1.848-.691-3.077c0-2.095.787-3.699,2.361-4.812s3.864-1.67,6.869-1.67c2.874,0,5.032.45,6.474,1.349s2.372,2.386,2.789,4.459l-4.706.642c-.241-.998-.732-1.749-1.473-2.254s-1.802-.757-3.184-.757c-1.47,0-2.572.23-3.307.691s-1.102,1.152-1.102,2.073c0,.603.156,1.097.469,1.481s.776.713,1.39.987c.581.263,1.826.598,3.735,1.004,1.108.241,2.062.469,2.863.683s1.442.42,1.925.617c.483.208.913.428,1.292.658s.705.477.979.74c.559.537.987,1.176,1.283,1.917s.444,1.593.444,2.558Z" fill="#fff"/>
      </g>
      <g>
        <g>
          <path d="M40.185,184.217c-.085-.032-.096-.143-.018-.19,4.007-2.407,6.915-7.543,6.915-13.285,0-9.313-7.202-16.06-16.61-16.06H.007v62.827c0,.065.053.118.118.118h32.723c3.858,0,7.374-1.045,10.206-2.927,4.542-2.984,7.411-8.02,7.411-14.14,0-7.478-4.198-14.064-10.28-16.343ZM12.227,166.108c0-.065.053-.118.118-.118h14.756c3.851,0,7.102,3.062,7.115,6.913.013,3.927-3.09,6.961-6.937,6.961h-14.934c-.065,0-.118-.053-.118-.118v-13.638ZM29.467,206.319H12.345c-.065,0-.118-.053-.118-.118v-15.558c0-.065.053-.117.118-.117h17.405c4.545,0,7.968,3.601,7.846,8.081-.118,4.328-3.8,7.712-8.129,7.712Z" fill="#fff"/>
          <path d="M90.884,154.682h-14.719c-.049,0-.093.03-.11.075l-23.1,59.943-1.122,2.927h13.506c.05,0,.094-.032.111-.078l1.017-2.849,3.298-9.216c.017-.047.061-.078.111-.078h26.936c.05,0,.093.031.111.077l4.409,12.066c.017.047.061.078.111.078h13.525c.083,0,.139-.083.11-.16l-24.084-62.71c-.018-.045-.061-.075-.11-.075ZM92.431,193.813h-18.174c-.082,0-.139-.081-.111-.158l9.125-24.817c.038-.103.183-.103.221,0l9.05,24.818c.028.076-.029.157-.111.157Z" fill="#fff"/>
          <path d="M146.244,154.677h-24.514c-.066,0-.118.053-.118.118v62.715c0,.065.052.118.118.118h24.514c18.337,0,32.114-13.502,32.114-31.475s-13.777-31.476-32.114-31.476ZM145.969,205.767h-11.65c-.065,0-.118-.052-.118-.117v-38.994c0-.065.053-.118.118-.118h11.65c11.131,0,19.435,8.394,19.435,19.615s-8.304,19.614-19.435,19.614Z" fill="#fff"/>
          <path d="M310.447,205.77c-.063,0-.113.051-.116.113v-.114h-2.552c-3.927,0-7.12-1.639-9.49-5.015l-4.288-6.162c-.045-.065-.008-.155.069-.175,8.853-2.329,14.983-9.684,14.983-19.117,0-11.769-9.214-20.618-21.349-20.618h-27.888c-.065,0-.118.053-.118.118v62.714c0,.065.053.118.118.118h12.354c.065,0,.117-.053.117-.118v-22.208c0-.065.053-.118.118-.118h6.841c.04,0,.081.02.101.053l7.173,11.441c4.105,7.392,10.674,10.95,19.888,10.95h3.805c.064,0,.116-.052.117-.116.002.062.053.114.117.114h39.906l9.931-11.668c.061-.069.02-.174-.065-.191h-49.772ZM287.433,184.242h-15.028c-.065,0-.118-.053-.118-.118v-17.465c0-.065.053-.118.118-.118h15.028c4.925,0,8.666,3.83,8.666,8.848s-3.741,8.853-8.666,8.853Z" fill="#fff"/>
          <path d="M252.4,154.685h-12.682c-.055,0-.103.038-.115.092l-7.639,33.868-7.583-33.466-.095-.494h0s-12.714,0-12.714,0l-.095.456-7.507,33.24h0s0,0,0,0l-7.581-33.605c-.012-.053-.06-.091-.115-.091h-12.663c-.075,0-.131.07-.115.143l13.594,60.216.438,1.881h0v.02l.152.684h0s12.581,0,12.581,0l.099-.396.073-.289v-.019l7.506-33.201h0s7.564,33.505,7.564,33.505l.095.399h0s12.714,0,12.714,0h0s0,0,0,0l.045-.187.051-.212,14.107-62.402c.016-.073-.04-.143-.115-.143Z" fill="#fff"/>
        </g>
        <path d="M309.28,154.686h14.844c.033,0,.065.013.09.041l7.327,8.601-7.765,8.686-14.586-17.137" fill="#fff"/>
        <path d="M360.168,197.237h-14.861c-.033,0-.065-.016-.089-.041l-9.904-11.627-7.574-8.897,7.586-8.898.004.004,7.575,8.894,17.352,20.37c.065.077.008.195-.089.195" fill="#fff"/>
        <path d="M361.454,154.877l-18.549,21.795-7.591,8.897-9.903,11.628c-.025.024-.057.04-.09.04h-14.845c-.097,0-.154-.117-.089-.195l17.352-20.37,7.591-8.893,3.149-3.705.6-.701,7.352-8.646c.024-.028.056-.041.089-.041h14.844c.102,0,.155.118.09.191" fill="#d22026"/>
      </g>
    </g>
  </g>
</svg>