<?xml version="1.0" encoding="UTF-8"?>
<svg id="a" data-name="Layer 3" xmlns="http://www.w3.org/2000/svg" width="558.174" height="152.228" viewBox="0 0 558.174 152.228">
  <g id="b" data-name="Layer 1">
    <g>
      <g>
        <path d="M93.965,83.867c1.561.132,3.125.518,4.669.752-2.542-1.945-6.171-3.046-9.325-3.665-3.402-.668-6.798-.602-10.237-.862-.433-.032-.836.03-1.123-.394,8.775-5.043,19.159-6.201,29.057-4.331,11.325,2.139,19.446,9.328,27.195,17.329-1.644-4.32-3.598-7.984-6.347-11.689-3.975-5.357-8.758-10.118-13.828-14.423,1.325-.386,2.958.336,4.204.839,7.837,3.152,15.838,11.706,20.467,18.634,7.099,10.626,10.852,23.115,11.4,35.9l.379-.249c.346-2.996,1.071-5.959,1.385-8.96,2.599-25.065-6.093-47.171-25.477-63.068-10.185-8.35-24.259-11.932-36.964-7.44-9.32,3.289-16.126,8.367-26.736,9.079-8.492.57-15.163-1.432-23.846.376-2.577.535-5.038,1.432-7.558,2.149-.089-.443.229-.62.5-.884,1.083-1.053,2.776-1.743,3.872-2.689.261-.226.531-.242.42-.712l-13.367-.003c4.226-3.06,9.425-4.634,13.805-7.512,5.04-3.307,8.957-8.081,13.573-11.905,12.152-10.07,27.402-17.496,43.467-17.703.284-.859.757-1.641,1.345-2.318.358-.414,2.303-1.529,1.472-2.064-.623-.132-1.26-.296-1.897-.371-19.296-2.189-42.143,4.089-56.633,17.276-5.8,5.274-6.591,11.561-13.868,15.648-4.514,2.533-9.901,4.103-14.888,5.421-.062.667-.008.406.376.5,2.757.64,5.287.658,6.9,3.447,4.231,7.324-4.358,15.282-11.564,12.953,3.195,3.31,9.052,4.707,13.527,5.266,13.898,1.733,25.492-7.273,39.02.587,4.036,2.343,8.624,6.141,6.679,11.37-2.421,6.517-21.231,18.85-28.071,18.85-1.843,0-3.716.084-5.551,0-.115-.005-.438-.65-.376.124,4.009,3.289,9.589,3.192,14.425,2.069,5.357-1.242,8.805-4.151,13.402-6.776,12.485-7.125,21.021-11.838,36.117-10.548ZM39.352,61.158l1.093-.916c2.966-1.437,9.477-.207,12.687.632l3.625,1.292-17.404-1.008Z" fill="#fff"/>
        <path d="M96.366,20.042c.556-.005-.005.782.057,1.105.164.916,1.878.774,2.563.381.623-.359,1.238-1.658,1.791-2.246,1.639-1.751,2.983-3.152,5.291-4.041,8.646-3.315,14.42,1.693,11.176,10.672-1.101,3.055-2.891,4.46-5.575,6.029-.827.483-5.124,1.967-2.065,2.228,3.498.297,6.432-.1,9.443-1.913,8.775-5.282,9.194-20.472-.566-24.871-10.414-4.694-22.284,4.398-23.628,14.925l1.512-2.268Z" fill="#fff"/>
        <path d="M131.736,33.666c.729.597,1.25,1.773,1.711,2.144.887.704,5.03,1.94,6.475,2.604,8.66,3.966,16.935,10.787,23.928,17.192,2.812,2.572,4.876,5.588,7.431,8.329-3.187-9.433-9.116-17.657-16.007-24.73-1.303-1.333-3.05-2.528-4.301-4.022-1.808-2.152-1.295-2.507-4.151-4.173-4.611-2.692-10.048-4.632-15.14-6.176-.04.236-.008.324.115.513.314.478,3.244,2.428,3.939,2.874,3.815,2.445,8.294,4.23,11.333,7.709l-14.318-3.461c-.69-.062-1.534-.155-2.209-.067-1.283.169.839.973,1.193,1.265Z" fill="#fff"/>
        <path d="M87.153,152.228c.805-1.574,1.706-1.424,2.883-2.167,11.287-7.134,11.559-30.47,3.66-40.191-.226-.274-1.569-1.822-1.87-1.534l.147.769c-.668.451-1.522.102-1.786.994-2.122-2.859-3.992-6.136-7.445-7.563,3.143,3.307,5.424,8.058,6.927,12.369,3.82,10.946,3.32,22.01-.75,32.778-.553,1.467-1.698,3.038-1.765,4.545Z" fill="#fff"/>
        <path d="M147.022,65.623c6.547,9.253,12.71,19.57,15.87,30.547.358,1.25.221,2.916,1.078,3.84.236-3.018.072-6.145-.282-9.176-2.228-19.054-14.879-36.082-32.509-43.548,6.069,5.389,11.166,11.719,15.844,18.337Z" fill="#fff"/>
        <path d="M118.058,136.839c1.959-13.278-.765-32.574-13.546-39.807-5.543-3.135-11.763-4.164-17.988-5.094l6.287,3.17c12.222,7.714,20.376,19.54,23.659,33.606l1.587,8.125Z" fill="#fff"/>
        <path d="M48.062,75.794c-1.598.478-4.204,2.503-5.306,3.78-.672.779-4.677,6.636-4.664,7.197.018.597,2.216,2.201,2.786,2.502,3.187,1.663,8.018-1.15,10.242-3.479,2.162-2.268,3.793-5.411,4.377-8.487-4.903-.354-8.665,3.386-11.599,6.808,1.126-2.418,2.47-4.828,3.818-7.149.094-.159,1.335-1.467.346-1.171Z" fill="#fff"/>
        <path d="M105.955,138.856c.379.013.428-.881.468-1.163,1.601-10.844-1.177-23.014-9.049-30.873,1.075,2.258,2.276,4.42,3.214,6.75,3.2,7.944,5.234,16.697,5.367,25.287Z" fill="#fff"/>
        <path d="M69.116,31.898c-3.491-.535-6.843-.787-10.352-.142-5.468,1.013-11.201,4.898-13.606,9.978,6.444-2.826,11.643-8.116,18.858-9.266l5.1-.57Z" fill="#fff"/>
        <path d="M11.856,56.115c.454-.292.862-1.459.946-1.95.393-2.273.027-3.633-2.077-4.616-3.175-1.486-10.22-2.572-10.725,2.278,4.261-.448,11.303-1.703,11.856,4.288Z" fill="#fff"/>
        <path d="M157.158,61.919l-4.041-5.924c-5.906-7.037-13.651-12.077-22.444-14.761,3.167,2.343,6.955,3.842,10.222,6.043,3.359,2.268,6.537,5.164,9.587,7.826l6.676,6.816Z" fill="#fff"/>
        <path d="M36.73,93.676c1.211,1.26,1.708,1.521,3.374.902.304-.11,2.67-1.273,2.781-1.384.379-.398-.089-.429-.354-.526-1.07-.393-1.883-.428-3.006-1.034-1.935-1.048-3.528-2.926-5.468-3.987.446,2.114,1.153,4.447,2.674,6.029Z" fill="#fff"/>
        <path d="M55.073,42.193c-1.146.795-2.356.919-3.613,1.432,1.693,1.618,4.651,1.843,6.644.593,1.534-.969,1.827-2.928,2.436-4.5-1.018.301-3.17.194-3.965.831-.42.336-.742,1.118-1.502,1.644Z" fill="#fff"/>
        <path d="M25.87,72.276c-.513.018-2.211-.707-2.41-.521-.393,1.263,4.992,6.679,5.297,6.308l-1.265-6.308c-.658-.107-.981.495-1.623.521Z" fill="#fff"/>
        <path d="M16.864,71.538l-3.496-1.043c.274,2.426,1.843,5.145,4.036,6.303-.47-1.755-.575-3.439-.54-5.261Z" fill="#fff"/>
        <path d="M25.984,89.162c.032,1.405,1.354,3.501,2.358,4.452.76.717,2.147,1.706,3.16,1.061,1.128-1.755-4.682-4.253-5.518-5.513Z" fill="#fff"/>
        <path d="M84.726,2.765c-5.426-3.274-11.601-3.723-15.967-.902-1.903,1.228-3.135,2.868-3.925,4.303,2.423-1.013,5.555-2.07,9.291-2.749,4.154-.755,7.794-.812,10.601-.652Z" fill="#fff"/>
      </g>
      <g>
        <path d="M215.739,107.478c0,1.503-.343,2.833-1.028,3.99s-1.659,2.062-2.92,2.715-2.764.979-4.508.979h-5.759v8.161h-4.854v-23.182h10.415c2.775,0,4.911.639,6.408,1.917s2.246,3.085,2.246,5.421ZM210.852,107.56c0-2.435-1.437-3.653-4.311-3.653h-5.018v7.519h5.15c1.338,0,2.369-.332,3.093-.995s1.086-1.621,1.086-2.871Z" fill="#fff"/>
        <path d="M227.368,114.52v8.802h-4.854v-23.182h11.583c2.764,0,4.897.595,6.4,1.785s2.254,2.898,2.254,5.125c0,1.623-.461,3.025-1.382,4.204s-2.166,1.955-3.735,2.328l6.269,9.74h-5.462l-5.38-8.802h-5.693ZM237.865,107.248c0-1.108-.356-1.941-1.069-2.501s-1.782-.839-3.208-.839h-6.219v6.844h6.351c1.36,0,2.391-.307,3.093-.921s1.053-1.475,1.053-2.583Z" fill="#fff"/>
        <path d="M269.123,119.571v3.751h-18.904v-23.182h18.23v3.751h-13.376v5.824h12.373v3.751h-12.373v6.104h14.051Z" fill="#fff"/>
        <path d="M286.89,119.834c2.94,0,4.974-1.47,6.104-4.409l4.228,1.596c-.91,2.238-2.246,3.902-4.006,4.993s-3.869,1.637-6.326,1.637c-2.479,0-4.59-.474-6.334-1.423s-3.074-2.323-3.99-4.121-1.374-3.96-1.374-6.482c0-2.545.439-4.695,1.316-6.45s2.172-3.09,3.883-4.006,3.806-1.374,6.285-1.374c2.72,0,4.936.546,6.647,1.637s2.912,2.696,3.603,4.812l-4.278,1.168c-.362-1.163-1.072-2.087-2.131-2.772s-2.306-1.028-3.743-1.028c-2.194,0-3.858.68-4.993,2.04s-1.703,3.351-1.703,5.972c0,1.777.261,3.274.782,4.492s1.289,2.142,2.303,2.772,2.257.946,3.727.946Z" fill="#fff"/>
        <path d="M308.618,100.14v23.182h-4.854v-23.182h4.854Z" fill="#fff"/>
        <path d="M335.401,116.642c0,2.271-.842,4.006-2.526,5.207s-4.154,1.802-7.412,1.802c-5.868,0-9.285-2.122-10.25-6.367l4.689-.773c.318,1.228.938,2.12,1.859,2.674s2.199.831,3.834.831c1.7,0,2.973-.258,3.817-.773s1.267-1.289,1.267-2.32c0-.658-.192-1.201-.576-1.629s-.932-.784-1.645-1.069c-.351-.143-.867-.299-1.547-.469s-1.525-.359-2.534-.568c-1.163-.274-2.073-.507-2.731-.699s-1.185-.378-1.579-.559-.779-.381-1.152-.601c-.823-.494-1.464-1.152-1.925-1.974s-.691-1.848-.691-3.077c0-2.095.787-3.699,2.361-4.812s3.864-1.67,6.869-1.67c2.874,0,5.032.45,6.474,1.349s2.372,2.386,2.789,4.459l-4.706.642c-.241-.998-.732-1.749-1.473-2.254s-1.802-.757-3.184-.757c-1.47,0-2.572.23-3.307.691s-1.102,1.152-1.102,2.073c0,.603.156,1.097.469,1.481s.776.713,1.39.987c.581.263,1.826.598,3.735,1.004,1.108.241,2.062.469,2.863.683s1.442.42,1.925.617c.483.208.913.428,1.292.658s.705.477.979.74c.559.537.987,1.176,1.283,1.917s.444,1.593.444,2.558Z" fill="#fff"/>
        <path d="M347.195,100.14v23.182h-4.854v-23.182h4.854Z" fill="#fff"/>
        <path d="M377.614,111.624c0,2.413-.485,4.522-1.456,6.326s-2.336,3.206-4.097,4.204-3.825,1.497-6.195,1.497c-2.424,0-4.508-.485-6.252-1.456s-3.082-2.356-4.015-4.154-1.399-3.938-1.399-6.417.463-4.601,1.39-6.367,2.265-3.118,4.015-4.056,3.847-1.407,6.293-1.407,4.557.474,6.301,1.423,3.082,2.306,4.015,4.072,1.399,3.877,1.399,6.334ZM372.662,111.624c0-2.501-.592-4.461-1.777-5.882s-2.846-2.131-4.985-2.131c-2.172,0-3.85.705-5.035,2.114s-1.777,3.376-1.777,5.898c0,1.689.274,3.148.823,4.376s1.33,2.175,2.345,2.838,2.218.995,3.611.995c2.172,0,3.847-.713,5.026-2.139s1.769-3.45,1.769-6.071Z" fill="#fff"/>
        <path d="M388.964,109.65v13.672h-4.311v-23.182h5.545l10.25,18c-.197-1.667-.296-3.175-.296-4.525v-13.475h4.311v23.182h-5.693l-10.102-17.851c.099.867.173,1.648.222,2.345s.074,1.308.074,1.835Z" fill="#fff"/>
        <path d="M429.94,114.52v8.802h-4.854v-23.182h11.583c2.764,0,4.897.595,6.4,1.785s2.254,2.898,2.254,5.125c0,1.623-.461,3.025-1.382,4.204s-2.166,1.955-3.735,2.328l6.269,9.74h-5.462l-5.38-8.802h-5.693ZM440.437,107.248c0-1.108-.356-1.941-1.069-2.501s-1.782-.839-3.208-.839h-6.219v6.844h6.351c1.36,0,2.391-.307,3.093-.921s1.053-1.475,1.053-2.583Z" fill="#fff"/>
        <path d="M457.644,100.14v23.182h-4.854v-23.182h4.854Z" fill="#fff"/>
        <path d="M470.376,114.816v8.506h-4.854v-23.182h17.095v3.751h-12.241v7.173h11.863v3.751h-11.863Z" fill="#fff"/>
        <path d="M506.767,119.571v3.751h-17.292v-23.182h4.854v19.431h12.438Z" fill="#fff"/>
        <path d="M532.329,119.571v3.751h-18.904v-23.182h18.23v3.751h-13.376v5.824h12.373v3.751h-12.373v6.104h14.051Z" fill="#fff"/>
        <path d="M558.174,116.642c0,2.271-.842,4.006-2.526,5.207s-4.154,1.802-7.412,1.802c-5.868,0-9.285-2.122-10.25-6.367l4.689-.773c.318,1.228.938,2.12,1.859,2.674s2.199.831,3.834.831c1.7,0,2.973-.258,3.817-.773s1.267-1.289,1.267-2.32c0-.658-.192-1.201-.576-1.629s-.932-.784-1.645-1.069c-.351-.143-.867-.299-1.547-.469s-1.525-.359-2.534-.568c-1.163-.274-2.073-.507-2.731-.699s-1.185-.378-1.579-.559-.779-.381-1.152-.601c-.823-.494-1.464-1.152-1.925-1.974s-.691-1.848-.691-3.077c0-2.095.787-3.699,2.361-4.812s3.864-1.67,6.869-1.67c2.874,0,5.032.45,6.474,1.349s2.372,2.386,2.789,4.459l-4.706.642c-.241-.998-.732-1.749-1.473-2.254s-1.802-.757-3.184-.757c-1.47,0-2.572.23-3.307.691s-1.102,1.152-1.102,2.073c0,.603.156,1.097.469,1.481s.776.713,1.39.987c.581.263,1.826.598,3.735,1.004,1.108.241,2.062.469,2.863.683s1.442.42,1.925.617c.483.208.913.428,1.292.658s.705.477.979.74c.559.537.987,1.176,1.283,1.917s.444,1.593.444,2.558Z" fill="#fff"/>
      </g>
      <g>
        <g>
          <path d="M236.855,48.439c-.085-.032-.096-.143-.018-.19,4.007-2.407,6.915-7.543,6.915-13.285,0-9.313-7.202-16.06-16.61-16.06h-30.465v62.827c0,.065.053.118.118.118h32.723c3.858,0,7.374-1.045,10.206-2.927,4.542-2.984,7.411-8.02,7.411-14.14,0-7.478-4.198-14.064-10.28-16.343ZM208.897,30.33c0-.065.053-.118.118-.118h14.756c3.851,0,7.102,3.062,7.115,6.913.013,3.927-3.09,6.961-6.937,6.961h-14.934c-.065,0-.118-.053-.118-.118v-13.638ZM226.137,70.541h-17.122c-.065,0-.118-.053-.118-.118v-15.558c0-.065.053-.117.118-.117h17.405c4.545,0,7.968,3.601,7.846,8.081-.118,4.328-3.8,7.712-8.129,7.712Z" fill="#fff"/>
          <path d="M287.554,18.905h-14.719c-.049,0-.093.03-.11.075l-23.1,59.943-1.122,2.927h13.506c.05,0,.094-.032.111-.078l1.017-2.849,3.298-9.216c.017-.047.061-.078.111-.078h26.936c.05,0,.093.031.111.077l4.409,12.066c.017.047.061.078.111.078h13.525c.083,0,.139-.083.11-.16l-24.084-62.71c-.018-.045-.061-.075-.11-.075ZM289.101,58.036h-18.174c-.082,0-.139-.081-.111-.158l9.125-24.817c.038-.103.183-.103.221,0l9.05,24.818c.028.076-.029.157-.111.157Z" fill="#fff"/>
          <path d="M342.913,18.9h-24.514c-.066,0-.118.053-.118.118v62.715c0,.065.052.118.118.118h24.514c18.337,0,32.114-13.502,32.114-31.475s-13.777-31.476-32.114-31.476ZM342.639,69.99h-11.65c-.065,0-.118-.052-.118-.117V30.879c0-.065.053-.118.118-.118h11.65c11.131,0,19.435,8.394,19.435,19.615s-8.304,19.614-19.435,19.614Z" fill="#fff"/>
          <path d="M507.116,69.993c-.063,0-.113.051-.116.113v-.114h-2.552c-3.927,0-7.12-1.639-9.49-5.015l-4.288-6.162c-.045-.065-.008-.155.069-.175,8.853-2.329,14.983-9.684,14.983-19.117,0-11.769-9.214-20.618-21.349-20.618h-27.888c-.065,0-.118.053-.118.118v62.714c0,.065.053.118.118.118h12.354c.065,0,.117-.053.117-.118v-22.208c0-.065.053-.118.118-.118h6.841c.04,0,.081.02.101.053l7.173,11.441c4.105,7.392,10.674,10.95,19.888,10.95h3.805c.064,0,.116-.052.117-.116.002.062.053.114.117.114h39.906l9.931-11.668c.061-.069.02-.174-.065-.191h-49.772ZM484.102,48.465h-15.028c-.065,0-.118-.053-.118-.118v-17.465c0-.065.053-.118.118-.118h15.028c4.925,0,8.666,3.83,8.666,8.848s-3.741,8.853-8.666,8.853Z" fill="#fff"/>
          <path d="M449.07,18.907h-12.682c-.055,0-.103.038-.115.092l-7.639,33.868-7.583-33.466-.095-.494h0s-12.714,0-12.714,0l-.095.456-7.507,33.24h0s0,0,0,0l-7.581-33.605c-.012-.053-.06-.091-.115-.091h-12.663c-.075,0-.131.07-.115.143l13.594,60.216.438,1.881h0v.02l.152.684h0s12.581,0,12.581,0l.099-.396.073-.289v-.019l7.506-33.201h0s7.564,33.505,7.564,33.505l.095.399h0s12.714,0,12.714,0h0s0,0,0,0l.045-.187.051-.212,14.107-62.402c.016-.073-.04-.143-.115-.143Z" fill="#fff"/>
        </g>
        <path d="M505.95,18.908h14.844c.033,0,.065.013.09.041l7.327,8.601-7.765,8.686-14.586-17.137" fill="#fff"/>
        <path d="M556.838,61.46h-14.861c-.033,0-.065-.016-.089-.041l-9.904-11.627-7.574-8.897,7.586-8.898.004.004,7.575,8.894,17.352,20.37c.065.077.008.195-.089.195" fill="#fff"/>
        <path d="M558.124,19.099l-18.549,21.795-7.591,8.897-9.903,11.628c-.025.024-.057.04-.09.04h-14.845c-.097,0-.154-.117-.089-.195l17.352-20.37,7.591-8.893,3.149-3.705.6-.701,7.352-8.646c.024-.028.056-.041.089-.041h14.844c.102,0,.155.118.09.191" fill="#d22026"/>
      </g>
    </g>
  </g>
</svg>