<?xml version="1.0" encoding="UTF-8"?>
<svg id="a" data-name="Layer 3" xmlns="http://www.w3.org/2000/svg" width="649.087" height="156.56" viewBox="0 0 649.087 156.56">
  <g id="b" data-name="Layer 1">
    <g>
      <g>
        <g>
          <g>
            <path d="M226.219,68.76c0-.079.064-.142.143-.142h21.072c5.502,0,9.647,4.36,9.499,9.783-.143,5.24-4.601,9.337-9.842,9.337h-20.729c-.079,0-.143-.064-.143-.143v-18.836ZM226.362,38.913h17.865c4.662,0,8.598,3.707,8.614,8.369.016,4.754-3.741,8.427-8.398,8.427h-18.08c-.079,0-.143-.064-.143-.143v-16.511c0-.079.064-.143.143-.143M260.067,60.98c-.103-.039-.116-.173-.022-.23,4.851-2.914,8.372-9.132,8.372-16.084,0-11.275-8.719-19.443-20.109-19.443h-36.883v76.063c0,.079.064.143.143.143h39.617c4.671,0,8.927-1.265,12.356-3.544,5.499-3.613,8.972-9.71,8.972-17.119,0-9.053-5.082-17.027-12.446-19.786" fill="#fff"/>
            <path d="M301.183,72.407l11.047-30.045c.046-.125.222-.125.268,0l10.957,30.046c.034.092-.035.19-.134.19h-22.003c-.099,0-.168-.098-.134-.191M321.447,25.223h-17.82c-.059,0-.113.036-.133.091l-27.966,72.571-1.358,3.544h16.351c.061,0,.114-.039.134-.094l1.231-3.449,3.993-11.158c.021-.057.074-.094.134-.094h32.611c.061,0,.113.038.134.093l5.338,14.608c.021.057.074.094.134.094h16.374c.1,0,.168-.1.133-.194l-29.158-75.921c-.022-.054-.074-.091-.133-.091" fill="#fff"/>
            <path d="M373.889,39.72v47.209c0,.079.064.142.143.142h14.104c13.476,0,23.529-10.16,23.529-23.746s-10.053-23.747-23.529-23.747h-14.104c-.079,0-.143.064-.143.143M358.648,25.361c0-.079.063-.143.143-.143h29.678c22.2,0,38.879,16.348,38.879,38.107s-16.679,38.106-38.879,38.106h-29.678c-.08,0-.143-.064-.143-.143V25.361Z" fill="#fff"/>
            <path d="M559.402,61.011h-18.194c-.079,0-.143-.064-.143-.143v-21.144c0-.079.064-.143.143-.143h18.194c5.963,0,10.492,4.637,10.492,10.712s-4.529,10.718-10.492,10.718M584.034,87.073c-4.754,0-8.62-1.984-11.489-6.071l-5.191-7.46c-.054-.079-.01-.188.083-.212,10.718-2.82,18.139-11.724,18.139-23.144,0-14.248-11.155-24.962-25.847-24.962h-33.763c-.079,0-.143.064-.143.143v75.926c0,.079.064.143.143.143h14.957c.079,0,.142-.064.142-.143v-26.887c0-.079.064-.143.143-.143h8.282c.048,0,.098.024.122.064l8.684,13.851c4.97,8.949,12.923,13.257,24.078,13.257h4.607c.079,0,.143-.064.143-.143v-14.219h-3.09Z" fill="#fff"/>
            <path d="M647.6,87.306l-12.023,14.126h-48.313c-.079,0-.143-.064-.143-.142v-14.073c0-.079.064-.143.143-.143h60.257c.103.021.153.148.079.231" fill="#fff"/>
            <path d="M466.18,100.58v.023l-.207.828h-15.231l-.184-.828v-.023l-.53-2.278-16.458-72.902c-.019-.088.048-.173.139-.173h15.331c.067,0,.125.046.139.11l9.178,40.685,1.036,4.578,5.269,23.331,1.518,6.65Z" fill="#fff"/>
          </g>
          <polygon points="483.068 25.825 482.217 29.644 482.217 29.667 476.81 53.573 476.81 53.596 475.268 60.384 466.18 100.58 466.18 100.603 465.972 101.431 450.741 101.431 450.557 100.603 450.557 100.58 450.58 100.419 456.033 76.306 458.357 66.021 467.446 25.779 467.561 25.227 482.953 25.227 483.068 25.825" fill="#fff"/>
          <path d="M516.989,25.227c.091,0,.159.085.139.173l-17.079,75.548-.116.484h-15.392l-.115-.484,1.863-8.259v-.023l5.407-23.884.552-2.415v-.023l9.248-41.005c.015-.065.073-.111.139-.111h15.354Z" fill="#fff"/>
          <polygon points="500.049 100.948 499.934 101.431 484.54 101.431 484.425 100.948 475.268 60.384 474.026 54.931 468.78 31.669 468.78 31.646 467.446 25.779 467.561 25.227 482.953 25.227 483.068 25.825 492.249 66.343 492.249 66.366 494.987 78.538 500.049 100.948" fill="#fff"/>
          <path d="M612.837,35.691l-9.401,10.516-17.659-20.747c-.079-.088-.015-.231.109-.231h17.971c.04,0,.079.016.109.05l8.871,10.413Z" fill="#fff"/>
          <path d="M647.495,76.743h-17.992c-.04,0-.079-.019-.108-.05l-11.99-14.076-9.17-10.771,9.184-10.773.005.005,9.171,10.768,21.008,24.661c.079.093.01.236-.108.236" fill="#fff"/>
          <path d="M649.052,25.459l-22.457,26.387-9.19,10.771-11.989,14.078c-.03.029-.069.048-.109.048h-17.972c-.117,0-.186-.142-.108-.236l21.008-24.661,9.19-10.766,3.812-4.486.726-.849,8.901-10.467c.029-.034.068-.05.108-.05h17.971c.123,0,.188.143.109.231" fill="#d22026"/>
        </g>
        <g>
          <path d="M220.248,120.691c0,.695-.159,1.311-.476,1.846s-.768.954-1.351,1.256-1.279.453-2.086.453h-2.665v3.776h-2.246v-10.725h4.819c1.284,0,2.272.296,2.965.887s1.039,1.427,1.039,2.508ZM217.987,120.729c0-1.127-.665-1.69-1.995-1.69h-2.322v3.479h2.383c.619,0,1.096-.154,1.431-.461s.502-.75.502-1.328Z" fill="#fff"/>
          <path d="M225.629,123.949v4.072h-2.246v-10.725h5.36c1.279,0,2.266.275,2.961.826s1.043,1.341,1.043,2.371c0,.751-.213,1.399-.639,1.945s-1.002.905-1.728,1.077l2.901,4.506h-2.528l-2.489-4.072h-2.634ZM230.486,120.584c0-.513-.165-.898-.495-1.157s-.825-.388-1.485-.388h-2.878v3.167h2.939c.629,0,1.106-.142,1.431-.426s.487-.683.487-1.195Z" fill="#fff"/>
          <path d="M244.949,126.286v1.736h-8.747v-10.725h8.435v1.736h-6.189v2.695h5.725v1.736h-5.725v2.824h6.501Z" fill="#fff"/>
          <path d="M253.17,126.408c1.36,0,2.302-.68,2.824-2.04l1.957.738c-.421,1.035-1.039,1.805-1.854,2.31s-1.79.757-2.927.757c-1.147,0-2.124-.219-2.931-.658s-1.422-1.075-1.846-1.907-.636-1.832-.636-2.999c0-1.177.203-2.172.609-2.984s1.005-1.43,1.797-1.854,1.761-.636,2.908-.636c1.259,0,2.284.252,3.076.757.792.505,1.347,1.247,1.667,2.227l-1.979.54c-.167-.538-.496-.965-.986-1.283s-1.067-.476-1.732-.476c-1.015,0-1.785.315-2.311.944s-.788,1.55-.788,2.763c0,.822.121,1.515.362,2.078s.596.991,1.066,1.283,1.044.438,1.724.438Z" fill="#fff"/>
          <path d="M263.225,117.296v10.725h-2.246v-10.725h2.246Z" fill="#fff"/>
          <path d="M275.617,124.931c0,1.05-.39,1.854-1.169,2.409s-1.922.834-3.43.834c-2.715,0-4.296-.982-4.743-2.946l2.17-.358c.147.568.434.981.86,1.237s1.018.384,1.774.384c.787,0,1.375-.119,1.766-.358s.586-.596.586-1.073c0-.304-.089-.556-.266-.754s-.431-.363-.761-.495c-.162-.066-.401-.138-.716-.217s-.705-.166-1.172-.263c-.538-.127-.959-.235-1.264-.324s-.548-.175-.731-.259-.36-.176-.533-.278c-.381-.228-.678-.533-.891-.913s-.32-.855-.32-1.423c0-.969.364-1.711,1.092-2.227s1.788-.773,3.178-.773c1.33,0,2.328.208,2.996.624s1.098,1.104,1.29,2.063l-2.177.297c-.112-.462-.339-.809-.681-1.043s-.834-.35-1.473-.35c-.68,0-1.19.107-1.53.32s-.51.533-.51.959c0,.279.072.507.217.685s.359.33.643.457c.269.122.845.277,1.728.464.513.112.954.217,1.325.316s.667.194.891.285c.223.096.423.198.598.304s.326.221.453.343c.259.249.457.544.594.887s.206.737.206,1.184Z" fill="#fff"/>
          <path d="M281.074,117.296v10.725h-2.246v-10.725h2.246Z" fill="#fff"/>
          <path d="M295.149,122.609c0,1.116-.225,2.092-.674,2.927s-1.081,1.483-1.896,1.945-1.77.693-2.866.693c-1.122,0-2.086-.225-2.893-.674s-1.426-1.09-1.858-1.922-.647-1.822-.647-2.969.214-2.129.643-2.946,1.048-1.442,1.858-1.876,1.78-.651,2.912-.651,2.109.219,2.916.658,1.426,1.067,1.858,1.884.647,1.794.647,2.931ZM292.857,122.609c0-1.157-.274-2.064-.822-2.721s-1.317-.986-2.307-.986c-1.005,0-1.781.326-2.33.978s-.822,1.562-.822,2.729c0,.782.127,1.456.381,2.025s.615,1.006,1.085,1.313,1.026.461,1.671.461c1.005,0,1.78-.33,2.326-.99s.818-1.596.818-2.809Z" fill="#fff"/>
          <path d="M300.401,121.696v6.326h-1.995v-10.725h2.566l4.743,8.328c-.091-.771-.137-1.469-.137-2.093v-6.234h1.995v10.725h-2.634l-4.674-8.259c.046.401.08.762.103,1.085s.034.605.034.849Z" fill="#fff"/>
          <path d="M319.361,123.949v4.072h-2.246v-10.725h5.36c1.279,0,2.266.275,2.961.826s1.043,1.341,1.043,2.371c0,.751-.213,1.399-.639,1.945s-1.002.905-1.728,1.077l2.901,4.506h-2.528l-2.489-4.072h-2.634ZM324.218,120.584c0-.513-.165-.898-.495-1.157s-.825-.388-1.485-.388h-2.878v3.167h2.939c.629,0,1.106-.142,1.431-.426s.487-.683.487-1.195Z" fill="#fff"/>
          <path d="M332.18,117.296v10.725h-2.246v-10.725h2.246Z" fill="#fff"/>
          <path d="M338.071,124.086v3.935h-2.246v-10.725h7.91v1.736h-5.664v3.319h5.489v1.736h-5.489Z" fill="#fff"/>
          <path d="M354.909,126.286v1.736h-8.001v-10.725h2.246v8.99h5.755Z" fill="#fff"/>
          <path d="M366.738,126.286v1.736h-8.747v-10.725h8.435v1.736h-6.189v2.695h5.725v1.736h-5.725v2.824h6.501Z" fill="#fff"/>
          <path d="M378.697,124.931c0,1.05-.39,1.854-1.169,2.409-.779.556-1.922.834-3.43.834-2.715,0-4.296-.982-4.743-2.946l2.17-.358c.147.568.434.981.86,1.237s1.018.384,1.774.384c.787,0,1.375-.119,1.766-.358s.586-.596.586-1.073c0-.304-.089-.556-.266-.754s-.431-.363-.761-.495c-.162-.066-.401-.138-.716-.217s-.705-.166-1.172-.263c-.538-.127-.959-.235-1.264-.324s-.548-.175-.731-.259-.36-.176-.533-.278c-.381-.228-.678-.533-.891-.913s-.32-.855-.32-1.423c0-.969.364-1.711,1.092-2.227s1.788-.773,3.178-.773c1.33,0,2.328.208,2.996.624s1.098,1.104,1.29,2.063l-2.177.297c-.112-.462-.339-.809-.681-1.043s-.834-.35-1.473-.35c-.68,0-1.19.107-1.53.32s-.51.533-.51.959c0,.279.072.507.217.685s.359.33.643.457c.269.122.845.277,1.728.464.513.112.954.217,1.325.316s.667.194.891.285c.223.096.423.198.598.304s.326.221.453.343c.259.249.457.544.594.887s.206.737.206,1.184Z" fill="#fff"/>
          <path d="M390.045,124.086v3.935h-2.246v-10.725h7.91v1.736h-5.664v3.319h5.489v1.736h-5.489Z" fill="#fff"/>
          <path d="M409.312,122.609c0,1.116-.225,2.092-.674,2.927s-1.081,1.483-1.896,1.945-1.77.693-2.866.693c-1.122,0-2.086-.225-2.893-.674s-1.426-1.09-1.858-1.922-.647-1.822-.647-2.969.214-2.129.643-2.946,1.048-1.442,1.858-1.876,1.78-.651,2.912-.651,2.109.219,2.916.658,1.426,1.067,1.858,1.884.647,1.794.647,2.931ZM407.02,122.609c0-1.157-.274-2.064-.822-2.721s-1.317-.986-2.307-.986c-1.005,0-1.781.326-2.33.978s-.822,1.562-.822,2.729c0,.782.127,1.456.381,2.025s.615,1.006,1.085,1.313,1.026.461,1.671.461c1.005,0,1.78-.33,2.326-.99s.818-1.596.818-2.809Z" fill="#fff"/>
          <path d="M414.814,123.949v4.072h-2.246v-10.725h5.36c1.279,0,2.266.275,2.961.826s1.043,1.341,1.043,2.371c0,.751-.213,1.399-.639,1.945s-1.002.905-1.728,1.077l2.901,4.506h-2.528l-2.489-4.072h-2.634ZM419.671,120.584c0-.513-.165-.898-.495-1.157s-.825-.388-1.485-.388h-2.878v3.167h2.939c.629,0,1.106-.142,1.431-.426s.487-.683.487-1.195Z" fill="#fff"/>
          <path d="M436.12,119.032v8.99h-2.246v-8.99h-3.464v-1.736h9.181v1.736h-3.472Z" fill="#fff"/>
          <path d="M444.607,123.424v4.598h-2.246v-10.725h2.246v4.27h4.674v-4.27h2.246v10.725h-2.246v-4.598h-4.674Z" fill="#fff"/>
          <path d="M463.927,126.286v1.736h-8.747v-10.725h8.435v1.736h-6.189v2.695h5.725v1.736h-5.725v2.824h6.501Z" fill="#fff"/>
          <path d="M474.993,125.281l-.952,2.74h-2.246l3.913-10.725h2.649l3.898,10.725h-2.223l-.952-2.74h-4.088ZM477.033,118.948c-.051.203-.122.447-.213.731s-.157.485-.198.601l-1.127,3.311h3.083l-1.157-3.38c-.071-.208-.137-.419-.198-.632s-.124-.424-.19-.632Z" fill="#fff"/>
          <path d="M487.264,121.521v6.501h-1.995v-10.725h3.007l1.918,5.998c.086.335.175.671.266,1.009s.18.674.266,1.009c.056-.193.109-.384.16-.575s.103-.382.156-.575.108-.383.164-.571l1.972-6.295h2.992v10.725h-1.995v-6.501c0-.147.006-.443.019-.887s.032-.927.057-1.45c-.178.68-.334,1.259-.468,1.736s-.245.85-.331,1.119l-1.934,5.983h-1.599l-1.934-5.983-.815-2.855c.03.589.053,1.077.069,1.465s.023.679.023.872Z" fill="#fff"/>
          <path d="M508.563,126.286v1.736h-8.747v-10.725h8.435v1.736h-6.189v2.695h5.725v1.736h-5.725v2.824h6.501Z" fill="#fff"/>
          <path d="M514.02,123.949v4.072h-2.246v-10.725h5.36c1.279,0,2.266.275,2.961.826s1.043,1.341,1.043,2.371c0,.751-.213,1.399-.639,1.945s-1.002.905-1.728,1.077l2.901,4.506h-2.528l-2.489-4.072h-2.634ZM518.877,120.584c0-.513-.165-.898-.495-1.157s-.825-.388-1.485-.388h-2.878v3.167h2.939c.629,0,1.106-.142,1.431-.426s.487-.683.487-1.195Z" fill="#fff"/>
          <path d="M526.839,117.296v10.725h-2.246v-10.725h2.246Z" fill="#fff"/>
          <path d="M535.493,126.408c1.36,0,2.302-.68,2.824-2.04l1.957.738c-.421,1.035-1.039,1.805-1.854,2.31s-1.79.757-2.927.757c-1.147,0-2.124-.219-2.931-.658s-1.422-1.075-1.846-1.907-.636-1.832-.636-2.999c0-1.177.203-2.172.609-2.984s1.005-1.43,1.797-1.854,1.761-.636,2.908-.636c1.259,0,2.284.252,3.076.757s1.347,1.247,1.667,2.227l-1.979.54c-.167-.538-.496-.965-.986-1.283s-1.067-.476-1.732-.476c-1.015,0-1.785.315-2.311.944s-.788,1.55-.788,2.763c0,.822.121,1.515.362,2.078s.596.991,1.066,1.283,1.044.438,1.724.438Z" fill="#fff"/>
          <path d="M545.846,125.281l-.952,2.74h-2.246l3.913-10.725h2.649l3.898,10.725h-2.223l-.952-2.74h-4.088ZM547.886,118.948c-.051.203-.122.447-.213.731s-.157.485-.198.601l-1.127,3.311h3.083l-1.157-3.38c-.071-.208-.137-.419-.198-.632s-.124-.424-.19-.632Z" fill="#fff"/>
          <path d="M558.116,121.696v6.326h-1.995v-10.725h2.566l4.743,8.328c-.091-.771-.137-1.469-.137-2.093v-6.234h1.995v10.725h-2.634l-4.674-8.259c.046.401.08.762.103,1.085s.034.605.034.849Z" fill="#fff"/>
          <path d="M583.654,120.691c0,.695-.159,1.311-.476,1.846s-.768.954-1.351,1.256-1.279.453-2.086.453h-2.665v3.776h-2.246v-10.725h4.819c1.284,0,2.272.296,2.965.887s1.039,1.427,1.039,2.508ZM581.393,120.729c0-1.127-.665-1.69-1.995-1.69h-2.322v3.479h2.383c.619,0,1.096-.154,1.431-.461s.502-.75.502-1.328Z" fill="#fff"/>
          <path d="M588.175,125.281l-.952,2.74h-2.246l3.913-10.725h2.649l3.898,10.725h-2.223l-.952-2.74h-4.088ZM590.215,118.948c-.051.203-.122.447-.213.731s-.157.485-.198.601l-1.127,3.311h3.083l-1.157-3.38c-.071-.208-.137-.419-.198-.632s-.124-.424-.19-.632Z" fill="#fff"/>
          <path d="M602.136,119.032v8.99h-2.246v-8.99h-3.464v-1.736h9.181v1.736h-3.472Z" fill="#fff"/>
          <path d="M610.623,123.949v4.072h-2.246v-10.725h5.36c1.279,0,2.266.275,2.961.826s1.043,1.341,1.043,2.371c0,.751-.213,1.399-.639,1.945s-1.002.905-1.728,1.077l2.901,4.506h-2.528l-2.489-4.072h-2.634ZM615.48,120.584c0-.513-.165-.898-.495-1.157s-.825-.388-1.485-.388h-2.878v3.167h2.939c.629,0,1.106-.142,1.431-.426s.487-.683.487-1.195Z" fill="#fff"/>
          <path d="M623.442,117.296v10.725h-2.246v-10.725h2.246Z" fill="#fff"/>
          <path d="M637.516,122.609c0,1.116-.225,2.092-.674,2.927s-1.081,1.483-1.896,1.945-1.77.693-2.866.693c-1.122,0-2.086-.225-2.893-.674s-1.426-1.09-1.858-1.922-.647-1.822-.647-2.969.214-2.129.643-2.946,1.048-1.442,1.858-1.876,1.78-.651,2.912-.651,2.109.219,2.916.658,1.426,1.067,1.858,1.884.647,1.794.647,2.931ZM635.225,122.609c0-1.157-.274-2.064-.822-2.721s-1.317-.986-2.307-.986c-1.005,0-1.781.326-2.33.978s-.822,1.562-.822,2.729c0,.782.127,1.456.381,2.025s.615,1.006,1.085,1.313,1.026.461,1.671.461c1.005,0,1.78-.33,2.326-.99s.818-1.596.818-2.809Z" fill="#fff"/>
          <path d="M645.615,119.032v8.99h-2.246v-8.99h-3.464v-1.736h9.181v1.736h-3.472Z" fill="#fff"/>
        </g>
      </g>
      <g>
        <path d="M96.639,86.253c1.605.136,3.214.533,4.802.773-2.614-2-6.347-3.133-9.59-3.769-3.499-.687-6.991-.619-10.528-.887-.445-.033-.859.031-1.155-.406,9.025-5.187,19.704-6.378,29.884-4.455,11.647,2.2,20,9.593,27.969,17.822-1.691-4.443-3.7-8.212-6.527-12.022-4.089-5.51-9.007-10.406-14.222-14.834,1.363-.397,3.042.346,4.324.863,8.06,3.241,16.289,12.039,21.05,19.165,7.301,10.929,11.161,23.772,11.725,36.922l.39-.256c.356-3.081,1.102-6.129,1.425-9.215,2.672-25.778-6.266-48.514-26.202-64.863-10.475-8.588-24.949-12.271-38.016-7.651-9.585,3.382-16.585,8.605-27.496,9.337-8.734.586-15.595-1.473-24.525.387-2.65.55-5.182,1.473-7.773,2.21-.091-.455.235-.638.514-.909,1.114-1.083,2.855-1.793,3.982-2.765.268-.232.547-.249.431-.732l-13.747-.003c4.346-3.147,9.693-4.766,14.198-7.725,5.183-3.401,9.212-8.311,13.959-12.243,12.498-10.356,28.182-17.994,44.703-18.207.292-.883.779-1.688,1.383-2.384.368-.426,2.368-1.573,1.514-2.122-.641-.136-1.296-.304-1.951-.382-19.845-2.251-43.342,4.205-58.245,17.767-5.965,5.424-6.778,11.89-14.263,16.093-4.642,2.605-10.183,4.219-15.311,5.575-.064.686-.009.418.387.514,2.836.658,5.438.677,7.096,3.546,4.352,7.533-4.482,15.717-11.893,13.321,3.286,3.405,9.31,4.841,13.912,5.415,14.294,1.782,26.218-7.479,40.13.603,4.15,2.409,8.87,6.316,6.869,11.694-2.49,6.703-21.835,19.386-28.87,19.386-1.896,0-3.822.086-5.709,0-.119-.005-.45-.669-.387.127,4.123,3.382,9.861,3.283,14.835,2.128,5.51-1.277,9.055-4.269,13.783-6.969,12.84-7.328,21.619-12.175,37.145-10.848ZM40.472,62.898l1.124-.942c3.051-1.478,9.746-.213,13.048.65l3.728,1.329-17.9-1.036Z" fill="#fff"/>
        <path d="M99.108,20.612c.572-.005-.005.804.058,1.136.168.942,1.932.796,2.636.392.641-.369,1.273-1.705,1.842-2.31,1.686-1.801,3.068-3.241,5.441-4.156,8.892-3.41,14.83,1.741,11.494,10.975-1.133,3.142-2.973,4.587-5.733,6.201-.851.497-5.269,2.023-2.124,2.291,3.597.306,6.615-.103,9.712-1.968,9.025-5.433,9.456-21.055-.583-25.578-10.711-4.828-22.918,4.523-24.3,15.349l1.555-2.332Z" fill="#fff"/>
        <path d="M135.484,34.624c.749.614,1.286,1.824,1.76,2.205.913.724,5.173,1.995,6.66,2.678,8.906,4.078,17.417,11.094,24.609,17.681,2.892,2.645,5.015,5.747,7.643,8.566-3.278-9.702-9.375-18.159-16.463-25.434-1.34-1.371-3.137-2.6-4.424-4.137-1.86-2.214-1.332-2.578-4.269-4.291-4.742-2.769-10.334-4.764-15.571-6.352-.041.242-.009.333.119.528.323.492,3.336,2.497,4.051,2.956,3.924,2.514,8.53,4.35,11.656,7.928l-14.725-3.559c-.71-.064-1.578-.16-2.272-.069-1.32.174.863,1,1.227,1.301Z" fill="#fff"/>
        <path d="M89.633,156.56c.828-1.619,1.755-1.464,2.965-2.229,11.608-7.337,11.888-31.338,3.764-41.335-.232-.282-1.614-1.873-1.923-1.578l.151.791c-.687.464-1.566.105-1.837,1.023-2.183-2.941-4.106-6.311-7.657-7.779,3.233,3.401,5.579,8.287,7.124,12.721,3.929,11.257,3.415,22.636-.772,33.711-.569,1.509-1.746,3.124-1.815,4.675Z" fill="#fff"/>
        <path d="M151.205,67.49c6.734,9.516,13.072,20.127,16.322,31.417.368,1.286.227,2.999,1.109,3.949.242-3.104.074-6.319-.29-9.437-2.291-19.596-15.303-37.109-33.434-44.788,6.242,5.543,11.484,12.053,16.294,18.859Z" fill="#fff"/>
        <path d="M121.417,140.732c2.014-13.656-.787-33.501-13.931-40.94-5.701-3.224-12.097-4.283-18.499-5.238l6.466,3.26c12.57,7.933,20.955,20.096,24.332,34.562l1.633,8.356Z" fill="#fff"/>
        <path d="M49.43,77.951c-1.643.492-4.324,2.574-5.457,3.888-.691.801-4.81,6.825-4.797,7.402.019.614,2.279,2.263,2.865,2.573,3.277,1.71,8.246-1.183,10.533-3.578,2.224-2.332,3.901-5.565,4.501-8.729-5.043-.364-8.911,3.482-11.929,7.002,1.158-2.487,2.54-4.965,3.927-7.352.096-.163,1.373-1.509.356-1.205Z" fill="#fff"/>
        <path d="M108.969,142.807c.39.014.44-.906.481-1.196,1.646-11.152-1.21-23.669-9.306-31.752,1.105,2.322,2.341,4.546,3.305,6.942,3.291,8.17,5.383,17.173,5.52,26.006Z" fill="#fff"/>
        <path d="M71.083,32.806c-3.59-.55-7.038-.809-10.647-.146-5.623,1.042-11.52,5.037-13.993,10.262,6.627-2.906,11.974-8.347,19.395-9.53l5.245-.586Z" fill="#fff"/>
        <path d="M12.194,57.711c.467-.301.887-1.5.973-2.006.404-2.337.027-3.736-2.136-4.747-3.265-1.528-10.511-2.645-11.03,2.342,4.382-.461,11.625-1.751,12.194,4.41Z" fill="#fff"/>
        <path d="M161.63,63.68l-4.156-6.093c-6.074-7.237-14.04-12.421-23.083-15.181,3.257,2.409,7.153,3.951,10.513,6.215,3.454,2.332,6.723,5.311,9.86,8.048l6.866,7.01Z" fill="#fff"/>
        <path d="M37.775,96.341c1.246,1.296,1.756,1.564,3.47.928.313-.113,2.746-1.31,2.86-1.423.39-.409-.091-.442-.364-.541-1.1-.404-1.937-.44-3.092-1.064-1.99-1.078-3.628-3.009-5.623-4.101.459,2.174,1.186,4.573,2.75,6.201Z" fill="#fff"/>
        <path d="M56.64,43.394c-1.179.818-2.423.945-3.716,1.473,1.741,1.664,4.783,1.896,6.833.61,1.578-.997,1.878-3.011,2.506-4.628-1.047.309-3.26.199-4.078.854-.431.345-.763,1.15-1.545,1.691Z" fill="#fff"/>
        <path d="M26.606,74.332c-.528.019-2.274-.727-2.478-.536-.404,1.299,5.134,6.869,5.448,6.488l-1.301-6.488c-.677-.11-1.009.509-1.669.536Z" fill="#fff"/>
        <path d="M17.344,73.573l-3.595-1.072c.282,2.496,1.896,5.292,4.151,6.483-.483-1.805-.591-3.537-.555-5.41Z" fill="#fff"/>
        <path d="M26.723,91.699c.033,1.445,1.392,3.601,2.425,4.578.782.737,2.208,1.755,3.25,1.091,1.16-1.805-4.816-4.374-5.675-5.67Z" fill="#fff"/>
        <path d="M87.137,2.843c-5.58-3.367-11.931-3.829-16.422-.928-1.958,1.263-3.224,2.949-4.037,4.426,2.492-1.042,5.713-2.129,9.556-2.827,4.272-.777,8.016-.835,10.903-.67Z" fill="#fff"/>
      </g>
    </g>
  </g>
</svg>