<?xml version="1.0" encoding="UTF-8"?>
<svg id="a" data-name="Layer 3" xmlns="http://www.w3.org/2000/svg" width="154.854" height="19.496" viewBox="0 0 154.854 19.496">
  <g id="b" data-name="Layer 1">
    <g>
      <path d="M7.459,2.736c0,.535-.122,1.009-.366,1.421s-.591.734-1.04.967-.984.349-1.605.349h-2.051v2.906H.668V.123h3.709c.988,0,1.749.228,2.282.683s.8,1.099.8,1.931ZM5.719,2.766c0-.867-.512-1.301-1.535-1.301h-1.787v2.678h1.834c.477,0,.844-.118,1.102-.354s.387-.577.387-1.022Z" fill="#d22026"/>
      <path d="M11.132,5.244v3.135h-1.729V.123h4.125c.984,0,1.744.212,2.279.636s.803,1.032.803,1.825c0,.578-.164,1.077-.492,1.497s-.771.696-1.33.829l2.232,3.469h-1.945l-1.916-3.135h-2.027ZM14.871,2.654c0-.395-.127-.691-.381-.891s-.635-.299-1.143-.299h-2.215v2.438h2.262c.484,0,.852-.109,1.102-.328s.375-.525.375-.92Z" fill="#d22026"/>
      <path d="M25.534,7.043v1.336h-6.732V.123h6.492v1.336h-4.764v2.074h4.406v1.336h-4.406v2.174h5.004Z" fill="#d22026"/>
      <path d="M31.393,7.137c1.047,0,1.771-.523,2.174-1.57l1.506.568c-.324.797-.8,1.39-1.427,1.778s-1.378.583-2.253.583c-.883,0-1.635-.169-2.256-.507s-1.095-.827-1.421-1.468-.489-1.41-.489-2.309c0-.906.156-1.672.469-2.297s.773-1.101,1.383-1.427,1.355-.489,2.238-.489c.969,0,1.758.194,2.367.583s1.037.96,1.283,1.714l-1.523.416c-.129-.414-.382-.743-.759-.987s-.821-.366-1.333-.366c-.781,0-1.374.242-1.778.727s-.606,1.193-.606,2.127c0,.633.093,1.166.278,1.6s.459.763.82.987.804.337,1.327.337Z" fill="#d22026"/>
      <path d="M38.665.123v8.256h-1.729V.123h1.729Z" fill="#d22026"/>
      <path d="M47.734,6c0,.809-.3,1.427-.899,1.854s-1.479.642-2.64.642c-2.09,0-3.307-.756-3.65-2.268l1.67-.275c.113.438.334.755.662.952s.783.296,1.365.296c.605,0,1.059-.092,1.359-.275s.451-.459.451-.826c0-.234-.068-.428-.205-.58s-.332-.279-.586-.381c-.125-.051-.309-.106-.551-.167s-.543-.128-.902-.202c-.414-.098-.738-.181-.973-.249s-.422-.135-.562-.199-.277-.136-.41-.214c-.293-.176-.521-.41-.686-.703s-.246-.658-.246-1.096c0-.746.28-1.317.841-1.714s1.376-.595,2.446-.595c1.023,0,1.792.16,2.306.48s.845.85.993,1.588l-1.676.229c-.086-.355-.261-.623-.524-.803s-.642-.27-1.134-.27c-.523,0-.916.082-1.178.246s-.393.41-.393.738c0,.215.056.391.167.527s.276.254.495.352c.207.094.65.213,1.33.357.395.086.734.167,1.02.243s.514.149.686.22c.172.074.325.152.46.234s.251.17.349.264c.199.191.352.419.457.683s.158.567.158.911Z" fill="#d22026"/>
      <path d="M51.466.123v8.256h-1.729V.123h1.729Z" fill="#d22026"/>
      <path d="M61.831,4.213c0,.859-.173,1.61-.519,2.253s-.832,1.142-1.459,1.497-1.362.533-2.206.533c-.863,0-1.605-.173-2.227-.519s-1.098-.839-1.43-1.479-.498-1.402-.498-2.285.165-1.639.495-2.268.807-1.11,1.43-1.444,1.37-.501,2.241-.501,1.623.169,2.244.507,1.098.821,1.43,1.45.498,1.381.498,2.256ZM60.067,4.213c0-.891-.211-1.589-.633-2.095s-1.014-.759-1.775-.759c-.773,0-1.371.251-1.793.753s-.633,1.202-.633,2.101c0,.602.098,1.121.293,1.559s.474.774.835,1.011.79.354,1.286.354c.773,0,1.37-.254,1.79-.762s.63-1.229.63-2.162Z" fill="#d22026"/>
      <path d="M65.405,3.51v4.869h-1.535V.123h1.975l3.65,6.41c-.07-.594-.105-1.131-.105-1.611V.123h1.535v8.256h-2.027l-3.598-6.357c.035.309.062.587.079.835s.026.466.026.653Z" fill="#d22026"/>
      <path d="M79.062,5.244v3.135h-1.729V.123h4.125c.984,0,1.744.212,2.279.636s.803,1.032.803,1.825c0,.578-.164,1.077-.492,1.497s-.771.696-1.33.829l2.232,3.469h-1.945l-1.916-3.135h-2.027ZM82.8,2.654c0-.395-.127-.691-.381-.891s-.635-.299-1.143-.299h-2.215v2.438h2.262c.484,0,.852-.109,1.102-.328s.375-.525.375-.92Z" fill="#d22026"/>
      <path d="M88.46.123v8.256h-1.729V.123h1.729Z" fill="#d22026"/>
      <path d="M92.526,5.35v3.029h-1.729V.123h6.088v1.336h-4.359v2.555h4.225v1.336h-4.225Z" fill="#d22026"/>
      <path d="M105.018,7.043v1.336h-6.158V.123h1.729v6.92h4.43Z" fill="#d22026"/>
      <path d="M113.654,7.043v1.336h-6.732V.123h6.492v1.336h-4.764v2.074h4.406v1.336h-4.406v2.174h5.004Z" fill="#d22026"/>
      <path d="M122.39,6c0,.809-.3,1.427-.899,1.854s-1.479.642-2.64.642c-2.09,0-3.307-.756-3.65-2.268l1.67-.275c.113.438.334.755.662.952s.783.296,1.365.296c.605,0,1.059-.092,1.359-.275s.451-.459.451-.826c0-.234-.068-.428-.205-.58s-.332-.279-.586-.381c-.125-.051-.309-.106-.551-.167s-.543-.128-.902-.202c-.414-.098-.738-.181-.973-.249s-.422-.135-.562-.199-.277-.136-.41-.214c-.293-.176-.521-.41-.686-.703s-.246-.658-.246-1.096c0-.746.28-1.317.841-1.714s1.376-.595,2.446-.595c1.023,0,1.792.16,2.306.48s.845.85.993,1.588l-1.676.229c-.086-.355-.261-.623-.524-.803s-.642-.27-1.134-.27c-.523,0-.916.082-1.178.246s-.393.41-.393.738c0,.215.056.391.167.527s.276.254.495.352c.207.094.65.213,1.33.357.395.086.734.167,1.02.243s.514.149.686.22c.172.074.325.152.46.234s.251.17.349.264c.199.191.352.419.457.683s.158.567.158.911Z" fill="#d22026"/>
      <path d="M130.188,5.35v3.029h-1.729V.123h6.088v1.336h-4.359v2.555h4.225v1.336h-4.225Z" fill="#231f20"/>
      <path d="M144.549,4.213c0,.859-.173,1.61-.519,2.253s-.832,1.142-1.459,1.497-1.362.533-2.206.533c-.863,0-1.605-.173-2.227-.519s-1.098-.839-1.43-1.479-.498-1.402-.498-2.285.165-1.639.495-2.268.807-1.11,1.43-1.444,1.37-.501,2.241-.501,1.623.169,2.244.507,1.098.821,1.43,1.45.498,1.381.498,2.256ZM142.785,4.213c0-.891-.211-1.589-.633-2.095s-1.014-.759-1.775-.759c-.773,0-1.371.251-1.793.753s-.633,1.202-.633,2.101c0,.602.098,1.121.293,1.559s.474.774.835,1.011.79.354,1.286.354c.773,0,1.37-.254,1.79-.762s.63-1.229.63-2.162Z" fill="#231f20"/>
      <path d="M148.316,5.244v3.135h-1.729V.123h4.125c.984,0,1.744.212,2.279.636s.803,1.032.803,1.825c0,.578-.164,1.077-.492,1.497s-.771.696-1.33.829l2.232,3.469h-1.945l-1.916-3.135h-2.027ZM152.055,2.654c0-.395-.127-.691-.381-.891s-.635-.299-1.143-.299h-2.215v2.438h2.262c.484,0,.852-.109,1.102-.328s.375-.525.375-.92Z" fill="#231f20"/>
      <path d="M4.395,12.459v6.92h-1.729v-6.92H0v-1.336h7.066v1.336h-2.672Z" fill="#231f20"/>
      <path d="M10.219,15.84v3.539h-1.729v-8.256h1.729v3.287h3.598v-3.287h1.729v8.256h-1.729v-3.539h-3.598Z" fill="#231f20"/>
      <path d="M24.38,18.043v1.336h-6.732v-8.256h6.492v1.336h-4.764v2.074h4.406v1.336h-4.406v2.174h5.004Z" fill="#231f20"/>
      <path d="M31.481,17.27l-.732,2.109h-1.729l3.012-8.256h2.039l3,8.256h-1.711l-.732-2.109h-3.146ZM33.052,12.395c-.039.156-.094.344-.164.562s-.121.373-.152.463l-.867,2.549h2.373l-.891-2.602c-.055-.16-.105-.322-.152-.486s-.096-.326-.146-.486Z" fill="#231f20"/>
      <path d="M40.218,14.375v5.004h-1.535v-8.256h2.314l1.477,4.617c.066.258.135.517.205.776s.139.519.205.776c.043-.148.084-.296.123-.442s.079-.294.12-.442.083-.295.126-.439l1.518-4.846h2.303v8.256h-1.535v-5.004c0-.113.005-.341.015-.683s.024-.714.044-1.116c-.137.523-.257.969-.36,1.336s-.188.654-.255.861l-1.488,4.605h-1.23l-1.488-4.605-.627-2.197c.023.453.041.829.053,1.128s.018.522.018.671Z" fill="#231f20"/>
      <path d="M55.903,18.043v1.336h-6.732v-8.256h6.492v1.336h-4.764v2.074h4.406v1.336h-4.406v2.174h5.004Z" fill="#231f20"/>
      <path d="M59.395,16.244v3.135h-1.729v-8.256h4.125c.984,0,1.744.212,2.279.636s.803,1.032.803,1.825c0,.578-.164,1.077-.492,1.497s-.771.696-1.33.829l2.232,3.469h-1.945l-1.916-3.135h-2.027ZM63.133,13.654c0-.395-.127-.691-.381-.891s-.635-.299-1.143-.299h-2.215v2.438h2.262c.484,0,.852-.109,1.102-.328s.375-.525.375-.92Z" fill="#231f20"/>
      <path d="M68.553,11.123v8.256h-1.729v-8.256h1.729Z" fill="#231f20"/>
      <path d="M74.506,18.137c1.047,0,1.771-.523,2.174-1.57l1.506.568c-.324.797-.8,1.39-1.427,1.778s-1.378.583-2.253.583c-.883,0-1.635-.169-2.256-.507s-1.095-.827-1.421-1.468-.489-1.41-.489-2.309c0-.906.156-1.672.469-2.297s.773-1.101,1.383-1.427,1.355-.489,2.238-.489c.969,0,1.758.194,2.367.583s1.037.96,1.283,1.714l-1.523.416c-.129-.414-.382-.743-.759-.987s-.821-.366-1.333-.366c-.781,0-1.374.242-1.778.727s-.606,1.193-.606,2.127c0,.633.093,1.166.278,1.6s.459.763.82.987.804.337,1.327.337Z" fill="#231f20"/>
      <path d="M81.766,17.27l-.732,2.109h-1.729l3.012-8.256h2.039l3,8.256h-1.711l-.732-2.109h-3.146ZM83.336,12.395c-.039.156-.094.344-.164.562s-.121.373-.152.463l-.867,2.549h2.373l-.891-2.602c-.055-.16-.105-.322-.152-.486s-.096-.326-.146-.486Z" fill="#231f20"/>
      <path d="M90.502,14.51v4.869h-1.535v-8.256h1.975l3.65,6.41c-.07-.594-.105-1.131-.105-1.611v-4.799h1.535v8.256h-2.027l-3.598-6.357c.035.309.062.587.079.835s.026.466.026.653Z" fill="#231f20"/>
      <path d="M108.742,13.736c0,.535-.122,1.009-.366,1.421s-.591.734-1.04.967-.984.349-1.605.349h-2.051v2.906h-1.729v-8.256h3.709c.988,0,1.749.228,2.282.683s.8,1.099.8,1.931ZM107.001,13.766c0-.867-.512-1.301-1.535-1.301h-1.787v2.678h1.834c.477,0,.844-.118,1.102-.354s.387-.577.387-1.022Z" fill="#231f20"/>
      <path d="M111.513,17.27l-.732,2.109h-1.729l3.012-8.256h2.039l3,8.256h-1.711l-.732-2.109h-3.146ZM113.083,12.395c-.039.156-.094.344-.164.562s-.121.373-.152.463l-.867,2.549h2.373l-.891-2.602c-.055-.16-.105-.322-.152-.486s-.096-.326-.146-.486Z" fill="#231f20"/>
      <path d="M121.55,12.459v6.92h-1.729v-6.92h-2.666v-1.336h7.066v1.336h-2.672Z" fill="#231f20"/>
      <path d="M127.374,16.244v3.135h-1.729v-8.256h4.125c.984,0,1.744.212,2.279.636s.803,1.032.803,1.825c0,.578-.164,1.077-.492,1.497s-.771.696-1.33.829l2.232,3.469h-1.945l-1.916-3.135h-2.027ZM131.112,13.654c0-.395-.127-.691-.381-.891s-.635-.299-1.143-.299h-2.215v2.438h2.262c.484,0,.852-.109,1.102-.328s.375-.525.375-.92Z" fill="#231f20"/>
      <path d="M136.532,11.123v8.256h-1.729v-8.256h1.729Z" fill="#231f20"/>
      <path d="M146.657,15.213c0,.859-.173,1.61-.519,2.253s-.832,1.142-1.459,1.497-1.362.533-2.206.533c-.863,0-1.605-.173-2.227-.519s-1.098-.839-1.43-1.479-.498-1.402-.498-2.285.165-1.639.495-2.268.807-1.11,1.43-1.444,1.37-.501,2.241-.501,1.623.169,2.244.507,1.098.821,1.43,1.45.498,1.381.498,2.256ZM144.893,15.213c0-.891-.211-1.589-.633-2.095s-1.014-.759-1.775-.759c-.773,0-1.371.251-1.793.753s-.633,1.202-.633,2.101c0,.602.098,1.121.293,1.559s.474.774.835,1.011.79.354,1.286.354c.773,0,1.37-.254,1.79-.762s.63-1.229.63-2.162Z" fill="#231f20"/>
      <path d="M152.182,12.459v6.92h-1.729v-6.92h-2.666v-1.336h7.066v1.336h-2.672Z" fill="#231f20"/>
    </g>
  </g>
</svg>