<?xml version="1.0" encoding="UTF-8"?>
<svg id="a" data-name="Layer 2" xmlns="http://www.w3.org/2000/svg" width="279.471" height="279.471" xmlns:xlink="http://www.w3.org/1999/xlink" viewBox="0 0 279.471 279.471">
  <defs>
    <clipPath id="c">
      <rect y=".001" width="279.47" height="279.47" fill="none"/>
    </clipPath>
    <clipPath id="d">
      <rect y=".001" width="279.47" height="279.47" fill="none"/>
    </clipPath>
    <clipPath id="e">
      <rect y=".001" width="279.47" height="279.47" fill="none"/>
    </clipPath>
  </defs>
  <g id="b" data-name="Layer 1">
    <g>
      <rect width="279.471" height="279.471" fill="#131810"/>
      <g clip-path="url(#c)">
        <path d="M48.98,96.734c0-.079.063-.143.142-.143h21.087c5.506,0,9.653,4.364,9.505,9.791-.143,5.243-4.603,9.343-9.848,9.343h-20.744c-.079,0-.142-.064-.142-.142v-18.849ZM49.122,66.866h17.877c4.666,0,8.605,3.709,8.62,8.375.016,4.757-3.743,8.433-8.404,8.433h-18.093c-.079,0-.142-.063-.142-.142v-16.524c0-.078.063-.142.142-.142M82.851,88.948c-.103-.039-.116-.173-.022-.23,4.854-2.917,8.378-9.138,8.378-16.096,0-11.282-8.726-19.456-20.123-19.456h-36.91v76.116c0,.079.064.143.143.143h39.645c4.674,0,8.933-1.267,12.364-3.546,5.503-3.615,8.98-9.717,8.98-17.131,0-9.059-5.086-17.039-12.455-19.8" fill="#fff"/>
        <path d="M123.996,100.383l11.055-30.067c.046-.124.222-.124.267,0l10.964,30.067c.034.093-.035.191-.133.191h-22.019c-.099,0-.168-.098-.134-.191M144.274,53.166h-17.833c-.059,0-.112.036-.133.091l-27.986,72.622-1.359,3.546h16.363c.06,0,.114-.038.134-.095l1.233-3.451,3.995-11.165c.02-.057.074-.094.134-.094h32.634c.06,0,.113.037.134.093l5.342,14.618c.021.056.074.094.134.094h16.386c.1,0,.169-.101.133-.194l-29.178-75.974c-.021-.055-.074-.091-.133-.091" fill="#fff"/>
        <path d="M196.754,67.673v47.243c0,.078.064.142.142.142h14.116c13.484,0,23.544-10.168,23.544-23.764s-10.06-23.763-23.544-23.763h-14.116c-.078,0-.142.064-.142.142M181.502,53.304c0-.079.064-.142.142-.142h29.701c22.215,0,38.906,16.359,38.906,38.132s-16.691,38.133-38.906,38.133h-29.701c-.078,0-.142-.063-.142-.142V53.304Z" fill="#fff"/>
        <path d="M160.099,185.858h-18.206c-.079,0-.143-.064-.143-.143v-21.155c0-.079.064-.143.143-.143h18.206c5.967,0,10.499,4.64,10.499,10.721s-4.532,10.72-10.499,10.72M184.749,211.943c-4.758,0-8.626-1.991-11.497-6.08l-5.195-7.462c-.054-.078-.01-.186.083-.211,10.725-2.821,18.152-11.737,18.152-23.165,0-14.255-11.162-24.98-25.864-24.98h-33.787c-.079,0-.143.064-.143.143v75.98c0,.078.064.142.143.142h14.967c.078,0,.142-.064.142-.142v-26.906c0-.079.064-.138.143-.138h8.287c.049,0,.098.025.123.064l8.69,13.861c4.974,8.951,12.932,13.261,24.095,13.261h4.61c.079,0,.143-.064.143-.142v-14.225h-3.092Z" fill="#fff"/>
        <path d="M248.36,212.174l-12.033,14.136h-48.346c-.079,0-.143-.064-.143-.142v-14.082c0-.079.064-.143.143-.143h60.3c.104.02.153.147.079.231" fill="#fff"/>
        <path d="M66.812,225.458v.023l-.207.829h-15.243l-.184-.829v-.023l-.53-2.279-16.469-72.954c-.02-.089.047-.174.139-.174h15.342c.066,0,.124.046.139.111l9.185,40.713,1.036,4.582,5.272,23.347,1.52,6.654Z" fill="#fff"/>
      </g>
      <polygon points="83.712 150.65 82.86 154.472 82.86 154.495 77.449 178.418 77.449 178.441 75.906 185.234 66.812 225.458 66.812 225.481 66.604 226.31 51.362 226.31 51.178 225.481 51.178 225.458 51.201 225.297 56.658 201.167 58.983 190.875 68.078 150.604 68.193 150.051 83.597 150.051 83.712 150.65" fill="#fff"/>
      <g clip-path="url(#d)">
        <path d="M117.657,150.051c.091,0,.159.085.139.174l-17.092,75.601-.115.484h-15.403l-.116-.484,1.866-8.266v-.023l5.41-23.9.553-2.417v-.023l9.254-41.035c.015-.065.072-.111.139-.111h15.365Z" fill="#fff"/>
      </g>
      <polygon points="100.704 225.826 100.589 226.309 85.185 226.309 85.07 225.826 75.906 185.233 74.663 179.776 69.413 156.498 69.413 156.475 68.078 150.603 68.193 150.051 83.596 150.051 83.712 150.65 92.899 191.196 92.899 191.219 95.639 203.4 100.704 225.826" fill="#fff"/>
      <g clip-path="url(#e)">
        <path d="M213.572,160.524l-9.413,10.519-17.665-20.757c-.079-.094-.015-.236.108-.236h17.98c.044,0,.084.019.113.049l8.877,10.425Z" fill="#fff"/>
        <path d="M248.254,201.606h-18.005c-.039,0-.078-.02-.108-.054l-11.998-14.087-9.177-10.774,9.192-10.78.005.005,9.177,10.775,21.022,24.679c.079.093.01.236-.108.236" fill="#fff"/>
        <path d="M249.704,150.051c.121,0,.187.142.108.235l-22.471,26.405-9.198,10.776-11.999,14.087c-.027.032-.067.05-.108.05h-17.983c-.121,0-.187-.142-.108-.235l21.02-24.678,9.197-10.776,13.451-15.814c.027-.032.066-.05.108-.05h17.983Z" fill="#d22026"/>
      </g>
    </g>
  </g>
</svg>