<?xml version="1.0" encoding="UTF-8"?>
<svg id="a" data-name="Layer 2" xmlns="http://www.w3.org/2000/svg" width="361.504" height="62.955" viewBox="0 0 361.504 62.955">
  <g id="b" data-name="Layer 1">
    <g>
      <g>
        <path d="M12.22,35.965c0-.065.053-.117.118-.117h17.405c4.545,0,7.968,3.601,7.846,8.081-.118,4.328-3.8,7.712-8.129,7.712H12.338c-.065,0-.118-.053-.118-.118v-15.558ZM12.338,11.312h14.756c3.851,0,7.102,3.062,7.115,6.913.013,3.927-3.09,6.961-6.937,6.961h-14.934c-.065,0-.118-.053-.118-.118v-13.638c0-.065.053-.118.118-.118M40.178,29.539c-.085-.032-.096-.143-.018-.19,4.007-2.407,6.915-7.543,6.915-13.285C47.075,6.751,39.873.004,30.465.004H0v62.827c0,.065.053.118.118.118h32.723c3.858,0,7.374-1.045,10.206-2.927,4.542-2.984,7.411-8.02,7.411-14.14,0-7.478-4.198-14.064-10.28-16.343" fill="#fff"/>
        <path d="M74.139,38.978l9.125-24.817c.038-.103.183-.103.221,0l9.05,24.818c.028.076-.029.157-.111.157h-18.174c-.082,0-.139-.081-.111-.158M90.877.005h-14.719c-.049,0-.093.03-.11.075l-23.1,59.943-1.122,2.927h13.506c.05,0,.094-.032.111-.078l1.017-2.849,3.298-9.216c.017-.047.061-.078.111-.078h26.936c.05,0,.093.031.111.077l4.409,12.066c.017.047.061.078.111.078h13.525c.083,0,.139-.083.11-.16L90.987.08c-.018-.045-.061-.075-.11-.075" fill="#fff"/>
        <path d="M134.194,11.979v38.994c0,.065.053.117.118.117h11.65c11.131,0,19.435-8.392,19.435-19.614s-8.304-19.615-19.435-19.615h-11.65c-.065,0-.118.053-.118.118M121.605.118c0-.065.052-.118.118-.118h24.514c18.337,0,32.114,13.503,32.114,31.476s-13.777,31.475-32.114,31.475h-24.514c-.066,0-.118-.053-.118-.118V.118Z" fill="#fff"/>
        <path d="M287.426,29.565h-15.028c-.065,0-.118-.053-.118-.118V11.982c0-.065.053-.118.118-.118h15.028c4.925,0,8.666,3.83,8.666,8.848s-3.741,8.853-8.666,8.853M307.772,51.092c-3.927,0-7.12-1.639-9.49-5.015l-4.288-6.162c-.045-.065-.008-.155.069-.175,8.853-2.329,14.983-9.684,14.983-19.117C309.046,8.854,299.832.005,287.697.005h-27.888c-.065,0-.118.053-.118.118v62.714c0,.065.053.118.118.118h12.354c.065,0,.117-.053.117-.118v-22.208c0-.065.053-.118.118-.118h6.841c.04,0,.081.02.101.053l7.173,11.441c4.105,7.392,10.674,10.95,19.888,10.95h3.805c.065,0,.118-.053.118-.118v-11.745h-2.552Z" fill="#fff"/>
        <path d="M360.277,51.284l-9.931,11.668h-39.906c-.065,0-.118-.053-.118-.117v-11.624c0-.065.053-.118.118-.118h49.772c.085.017.126.122.065.191" fill="#fff"/>
        <path d="M210.425,62.249v.019l-.171.684h-12.581l-.152-.684v-.019l-.438-1.882L183.489.151c-.016-.073.04-.143.115-.143h12.663c.055,0,.103.038.115.091l7.581,33.605.856,3.781,4.352,19.271,1.254,5.493Z" fill="#fff"/>
      </g>
      <polygon points="224.375 .501 223.672 3.656 223.672 3.675 219.206 23.421 219.206 23.44 217.932 29.047 210.426 62.248 210.426 62.267 210.254 62.951 197.673 62.951 197.521 62.267 197.521 62.248 197.54 62.115 202.044 42.198 203.964 33.703 211.471 .463 211.566 .007 224.28 .007 224.375 .501" fill="#fff"/>
      <path d="M252.393.007c.075,0,.131.07.115.143l-14.107,62.402-.096.4h-12.714l-.095-.4,1.539-6.822v-.019l4.466-19.728.456-1.995v-.019L239.596.099c.012-.054.06-.092.115-.092h12.682Z" fill="#fff"/>
      <polygon points="238.401 62.553 238.306 62.952 225.591 62.952 225.496 62.553 217.932 29.047 216.906 24.543 212.573 5.329 212.573 5.31 211.471 .464 211.566 .008 224.28 .008 224.375 .502 231.958 33.969 231.958 33.988 234.22 44.042 238.401 62.553" fill="#fff"/>
      <g>
        <path d="M331.563,8.65l-7.765,8.686L309.212.199c-.065-.073-.012-.191.09-.191h14.844c.033,0,.065.013.09.041l7.327,8.601Z" fill="#fff"/>
        <path d="M360.19,42.56h-14.861c-.033,0-.065-.016-.089-.041l-9.904-11.627-7.574-8.897,7.586-8.898.004.004,7.575,8.894,17.352,20.37c.065.077.008.195-.089.195" fill="#fff"/>
        <path d="M361.476.199l-18.549,21.795-7.591,8.897-9.903,11.628c-.025.024-.057.04-.09.04h-14.845c-.097,0-.154-.117-.089-.195l17.352-20.37,7.591-8.893,3.149-3.705.6-.701L346.453.049c.024-.028.056-.041.089-.041h14.844c.102,0,.155.118.09.191" fill="#d22026"/>
      </g>
    </g>
  </g>
</svg>