<?xml version="1.0" encoding="UTF-8"?>
<svg id="a" data-name="Layer 2" xmlns="http://www.w3.org/2000/svg" width="364.763" height="94.598" viewBox="0 0 364.763 94.598">
  <g id="b" data-name="Layer 1">
    <g>
      <path d="M147.512,27.817c2.773-1.602,4.807-5.115,4.807-9.059,0-6.285-4.87-10.846-11.217-10.846h-20.584v42.524h22.186c6.78,0,11.895-4.807,11.895-11.524,0-5.116-2.897-9.615-7.087-11.095ZM128.776,15.553h10.169c2.651,0,4.684,2.034,4.684,4.684s-2.096,4.684-4.684,4.684h-10.169v-9.368ZM140.609,42.793h-11.833v-10.662h11.833c3.02,0,5.301,2.342,5.301,5.301,0,3.019-2.281,5.361-5.301,5.361Z" fill="#fff"/>
      <path d="M171.66,7.912l-16.394,42.524h9.184l2.957-8.259h18.305l3.019,8.259h9.306l-16.332-42.524h-10.045ZM170.305,34.35l6.285-17.07,6.224,17.07h-12.509Z" fill="#fff"/>
      <path d="M240.088,29.174c0-12.141-9.306-21.262-21.694-21.262h-16.639v42.524h16.639c12.388,0,21.694-9.121,21.694-21.262ZM218.21,42.423h-7.95V15.923h7.95c7.519,0,13.127,5.671,13.127,13.251s-5.608,13.249-13.127,13.249Z" fill="#fff"/>
      <path d="M266.271,51.175c6.47,0,11.401-2.467,14.359-7.149v6.409h7.21v-23.912h-20.214v7.704h11.032c-1.603,5.176-6.287,8.751-12.387,8.751-7.827,0-13.743-5.917-13.743-13.805s5.916-13.805,13.743-13.805c4.868,0,8.998,2.281,11.277,5.917h9.491c-2.465-8.259-10.785-14.114-20.768-14.114-12.819,0-22.433,9.491-22.433,22.002s9.614,22.002,22.433,22.002Z" fill="#fff"/>
      <polygon points="323.753 42.423 303.97 42.423 303.97 33.057 321.411 33.057 321.411 25.044 303.97 25.044 303.97 15.923 323.444 15.923 323.444 7.912 295.465 7.912 295.465 50.436 323.753 50.436 323.753 42.423" fill="#fff"/>
      <path d="M339.063,35.274h4.747l4.868,7.766c2.773,4.992,7.21,7.396,13.435,7.396h2.65v-8.013h-1.726c-2.649,0-4.807-1.108-6.409-3.389l-2.958-4.252c6.039-1.541,10.229-6.532,10.229-12.942,0-7.95-6.223-13.928-14.42-13.928h-18.92v42.524h8.504v-15.162ZM339.063,15.923h10.23c3.329,0,5.855,2.589,5.855,5.978s-2.526,5.979-5.855,5.979h-10.23v-11.957Z" fill="#fff"/>
      <path d="M137.7,79.425l-1.95-2.803c3.98-1.015,6.742-4.306,6.742-8.529,0-5.24-4.102-9.181-9.504-9.181h-12.47v28.028h5.606v-9.993h3.126l3.21,5.118c1.827,3.29,4.752,4.875,8.855,4.875h1.746v-5.281h-1.138c-1.746,0-3.167-.732-4.223-2.234ZM132.866,72.074h-6.742v-7.881h6.742c2.193,0,3.858,1.706,3.858,3.94s-1.665,3.941-3.858,3.941Z" fill="#fff"/>
      <rect x="146.839" y="58.911" width="5.606" height="28.028" fill="#fff"/>
      <polygon points="157.634 86.94 163.24 86.94 163.24 75.769 173.84 75.769 173.84 70.489 163.24 70.489 163.24 64.193 175.465 64.193 175.465 58.912 157.634 58.912 157.634 86.94" fill="#fff"/>
      <polygon points="184.296 58.912 178.69 58.912 178.69 86.94 196.116 86.94 196.116 81.659 184.296 81.659 184.296 58.912" fill="#fff"/>
      <polygon points="204.295 75.485 215.789 75.485 215.789 70.204 204.295 70.204 204.295 64.193 217.129 64.193 217.129 58.912 198.689 58.912 198.689 86.94 217.332 86.94 217.332 81.659 204.295 81.659 204.295 75.485" fill="#fff"/>
      <polygon points="249.114 79.221 242.778 58.912 237.659 58.912 231.363 79.221 225.109 58.912 218.893 58.912 228.438 86.94 234.126 86.94 240.137 67.483 246.23 86.94 251.876 86.94 261.34 58.912 255.328 58.912 249.114 79.221" fill="#fff"/>
      <path d="M276.303,58.424c-8.45,0-14.786,6.256-14.786,14.502s6.336,14.5,14.786,14.5c8.407,0,14.784-6.255,14.784-14.5s-6.377-14.502-14.784-14.502ZM276.303,82.024c-5.16,0-9.059-3.899-9.059-9.098s3.899-9.099,9.059-9.099c5.117,0,9.016,3.9,9.016,9.099s-3.899,9.098-9.016,9.098Z" fill="#fff"/>
      <polygon points="344.152 58.911 337.242 58.911 326.722 71.501 326.722 58.911 321.122 58.911 321.122 78.301 327.522 78.301 329.482 76.131 337.532 86.941 344.552 86.941 333.182 71.951 344.152 58.911" fill="#fff"/>
      <path d="M350.139,66.468c0-1.868,1.869-3.047,4.063-3.047,2.477,0,4.346,1.463,4.346,3.413h5.767c0-4.794-4.346-8.409-10.033-8.409-5.524,0-9.911,3.331-9.911,8.489,0,9.546,14.623,7.353,14.623,12.268,0,1.909-2.03,3.249-4.508,3.249-2.68,0-4.793-1.666-4.793-3.777h-5.768c0,4.955,4.509,8.773,10.52,8.773,5.768,0,10.318-3.493,10.318-8.896,0-9.708-14.624-7.067-14.624-12.063Z" fill="#fff"/>
      <path d="M321.122,81.661h-3.737v-.002h-1.137c-1.746,0-3.168-.732-4.224-2.234l-1.95-2.803c3.98-1.015,6.742-4.306,6.742-8.529,0-5.24-4.102-9.181-9.504-9.181h-12.47v28.028h5.606v-9.993h3.127l3.209,5.118c1.828,3.29,4.752,4.875,8.855,4.875h1.742s3.74.001,3.74.001h5.71v-5.28h-5.71ZM307.19,72.074h-6.742v-7.881h6.742c2.193,0,3.859,1.706,3.859,3.94s-1.666,3.941-3.859,3.941Z" fill="#fff"/>
      <path d="M78.541,30.871c-6.33-5.189-15.076-7.415-22.972-4.623-5.791,2.043-10.021,5.2-16.614,5.642-5.277.354-9.423-.89-14.818.234-1.602.332-3.132.89-4.698,1.335-.055-.275.143-.385.311-.55.673-.654,1.725-1.082,2.406-1.67.162-.14.33-.151.261-.442l-8.307-.003c2.626-1.901,5.857-2.879,8.579-4.667,3.132-2.055,5.566-5.022,8.434-7.398,7.552-6.258,17.029-10.873,27.012-11.003.176-.532.47-1.019.835-1.439.223-.258,1.432-.951.915-1.283-.387-.082-.783-.184-1.178-.231-11.992-1.36-26.189,2.541-35.194,10.736-3.604,3.277-4.096,7.184-8.617,9.725-2.805,1.574-6.154,2.549-9.253,3.368-.038.415-.005.253.234.31,1.714.399,3.285.41,4.288,2.143,2.629,4.552-2.709,9.497-7.187,8.049,1.987,2.058,5.627,2.926,8.407,3.272,8.637,1.077,15.842-4.519,24.249.365,2.508,1.456,5.359,3.816,4.15,7.066-1.505,4.049-13.194,11.713-17.444,11.713-1.145,0-2.31.053-3.45,0-.072-.002-.272-.403-.234.077,2.492,2.044,5.959,1.984,8.964,1.286,3.33-.772,5.472-2.579,8.329-4.211,7.758-4.429,13.063-7.357,22.444-6.555.97.083,1.943.322,2.901.467-1.579-1.209-3.835-1.893-5.793-2.277-2.116-.415-4.225-.374-6.363-.536-.269-.019-.519.019-.697-.244,5.453-3.135,11.906-3.855,18.056-2.693,7.038,1.33,12.085,5.797,16.901,10.769-1.022-2.684-2.237-4.961-3.945-7.263-2.47-3.33-5.442-6.288-8.593-8.964.824-.239,1.838.209,2.612.522,4.871,1.959,9.843,7.274,12.719,11.579,4.412,6.604,6.745,14.365,7.085,22.309l.236-.154c.215-1.862.665-3.703.86-5.568,1.616-15.576-3.785-29.314-15.831-39.193ZM24.456,38.005l.678-.568c1.843-.893,5.89-.13,7.884.392l2.253.803-10.815-.627Z" fill="#fff"/>
      <path d="M59.884,12.455c.347-.003-.002.486.036.687.102.568,1.168.48,1.594.236.387-.223.769-1.03,1.112-1.396,1.019-1.088,1.854-1.958,3.288-2.511,5.374-2.06,8.962,1.053,6.945,6.632-.684,1.898-1.796,2.772-3.464,3.747-.514.299-3.184,1.222-1.283,1.385,2.173.184,3.997-.064,5.868-1.19,5.453-3.283,5.714-12.722-.352-15.455-6.472-2.918-13.848,2.733-14.683,9.274l.939-1.409Z" fill="#fff"/>
      <path d="M93.82,21.863c-1.124-1.338-.805-1.558-2.58-2.593-2.865-1.673-6.244-2.879-9.409-3.838-.024.145-.005.2.072.319.195.296,2.016,1.508,2.448,1.785,2.37,1.519,5.153,2.629,7.043,4.791l-8.898-2.151c-.428-.038-.953-.096-1.373-.041-.797.104.522.604.741.786.454.37.778,1.101,1.063,1.332.553.437,3.127,1.206,4.025,1.618,5.382,2.464,10.524,6.703,14.87,10.684,1.747,1.598,3.03,3.472,4.618,5.175-1.981-5.862-5.665-10.972-9.947-15.367-.811-.83-1.896-1.572-2.673-2.5Z" fill="#fff"/>
      <path d="M57.063,67.322l.091.478c-.415.28-.945.063-1.11.618-1.319-1.777-2.48-3.813-4.626-4.7,1.953,2.055,3.371,5.008,4.305,7.686,2.373,6.802,2.063,13.678-.467,20.37-.344.912-1.055,1.888-1.096,2.824.5-.978,1.06-.884,1.791-1.346,7.013-4.434,7.183-18.936,2.274-24.977-.14-.17-.975-1.131-1.162-.953Z" fill="#fff"/>
      <path d="M81.518,29.385c3.772,3.349,6.939,7.283,9.846,11.395,4.068,5.75,7.898,12.162,9.862,18.983.222.777.137,1.813.67,2.387.146-1.876.044-3.819-.176-5.703-1.384-11.84-9.246-22.422-20.202-27.062Z" fill="#fff"/>
      <path d="M64.947,60.298c-3.444-1.948-7.31-2.588-11.177-3.165l3.906,1.97c7.596,4.794,12.661,12.142,14.703,20.884l.986,5.049c1.217-8.253-.476-20.244-8.418-24.738Z" fill="#fff"/>
      <path d="M29.867,47.1c-.991.297-2.612,1.555-3.296,2.349-.418.484-2.907,4.124-2.898,4.473.011.37,1.376,1.368,1.73,1.554,1.981,1.033,4.983-.714,6.365-2.162,1.344-1.409,2.357-3.362,2.72-5.274-3.047-.22-5.384,2.104-7.208,4.231.7-1.503,1.535-3,2.373-4.443.058-.098.83-.912.214-.728Z" fill="#fff"/>
      <path d="M62.508,70.575c1.989,4.937,3.252,10.376,3.335,15.713.236.009.266-.546.291-.722.995-6.739-.731-14.301-5.623-19.186.667,1.404,1.415,2.747,1.997,4.195Z" fill="#fff"/>
      <path d="M42.952,19.822c-2.17-.333-4.253-.489-6.434-.088-3.398.629-6.961,3.044-8.456,6.2,4.006-1.755,7.236-5.043,11.72-5.758l3.17-.354Z" fill="#fff"/>
      <path d="M7.368,34.87c.283-.181.536-.906.588-1.211.245-1.412.017-2.258-1.291-2.868-1.972-.923-6.351-1.599-6.665,1.415,2.649-.278,7.025-1.058,7.368,2.664Z" fill="#fff"/>
      <path d="M93.515,34.242l4.148,4.236-2.511-3.681c-3.67-4.373-8.483-7.505-13.947-9.173,1.967,1.456,4.321,2.388,6.351,3.756,2.088,1.409,4.063,3.208,5.959,4.862Z" fill="#fff"/>
      <path d="M22.826,58.213c.753.783,1.06.945,2.096.56.19-.069,1.659-.791,1.728-.86.236-.247-.055-.266-.22-.327-.665-.244-1.17-.266-1.868-.643-1.203-.651-2.192-1.818-3.398-2.477.277,1.313.717,2.763,1.662,3.747Z" fill="#fff"/>
      <path d="M34.224,26.22c-.712.494-1.464.571-2.244.89,1.052,1.005,2.89,1.146,4.128.368.954-.601,1.135-1.818,1.514-2.796-.632.186-1.97.12-2.464.516-.261.209-.461.695-.934,1.022Z" fill="#fff"/>
      <path d="M17.871,48.51l-.786-3.92c-.409-.066-.61.308-1.008.324-.319.011-1.374-.44-1.497-.324-.245.786,3.101,4.151,3.291,3.92Z" fill="#fff"/>
      <path d="M8.308,43.807c.17,1.508,1.145,3.197,2.508,3.917-.291-1.091-.357-2.137-.335-3.269l-2.173-.648Z" fill="#fff"/>
      <path d="M19.576,58.834c.7-1.091-2.909-2.643-3.429-3.426.02.874.841,2.176,1.465,2.767.472.445,1.335,1.06,1.964.659Z" fill="#fff"/>
      <path d="M52.652,1.718c-3.372-2.035-7.209-2.313-9.922-.561-1.183.764-1.949,1.782-2.44,2.674,1.506-.629,3.451-1.286,5.774-1.708,2.582-.469,4.843-.504,6.588-.405Z" fill="#fff"/>
    </g>
  </g>
</svg>