<?xml version="1.0" encoding="UTF-8"?>
<svg id="a" data-name="Layer 3" xmlns="http://www.w3.org/2000/svg" width="364.875" height="94.599" xmlns:xlink="http://www.w3.org/1999/xlink" viewBox="0 0 364.875 94.599">
  <defs>
    <clipPath id="c">
      <rect x="0" width="364.875" height="94.599" fill="none"/>
    </clipPath>
    <clipPath id="d">
      <rect x="0" width="364.875" height="94.599" fill="none"/>
    </clipPath>
    <clipPath id="e">
      <rect x="0" width="364.875" height="94.599" fill="none"/>
    </clipPath>
  </defs>
  <g id="b" data-name="Layer 1">
    <g>
      <g clip-path="url(#c)">
        <path d="M140.046,59.736h-11.596c-.044,0-.079-.036-.079-.08v-10.533c0-.044.035-.079.079-.079h11.785c3.08,0,5.396,2.436,5.313,5.469-.079,2.931-2.571,5.223-5.502,5.223M128.371,32.509c0-.044.035-.08.079-.08h9.992c2.609,0,4.81,2.074,4.818,4.681.008,2.659-2.091,4.714-4.698,4.714h-10.112c-.044,0-.079-.035-.079-.079v-9.236ZM147.301,44.772c-.058-.022-.063-.099-.011-.129,2.711-1.632,4.681-5.107,4.681-8.997,0-6.305-4.876-10.873-11.247-10.873h-20.628v42.542c0,.044.036.079.08.079h22.158c2.613,0,4.992-.708,6.909-1.983,3.077-2.019,5.019-5.431,5.019-9.574,0-5.063-2.84-9.524-6.961-11.065" fill="#fff"/>
        <path d="M182.679,51.269h-12.307c-.055,0-.094-.055-.075-.107l6.179-16.804c.027-.069.123-.069.151,0l6.126,16.804c.019.052-.019.107-.074.107M198.013,67.285l-16.307-42.462c-.011-.03-.041-.05-.074-.05h-9.966c-.033,0-.064.02-.075.05l-15.642,40.588-.758,1.984h9.142c.036,0,.066-.022.077-.055l.69-1.929,2.231-6.238c.013-.033.041-.055.077-.055h18.238c.033,0,.063.022.074.052l2.986,8.17c.011.033.041.055.074.055h9.159c.055,0,.093-.058.074-.11" fill="#fff"/>
        <path d="M218.929,59.364h-7.887c-.044,0-.079-.035-.079-.079v-26.406c0-.043.035-.079.079-.079h7.887c7.538,0,13.159,5.684,13.159,13.282s-5.621,13.282-13.159,13.282M219.116,24.77h-16.598c-.044,0-.08.036-.08.08v42.465c0,.044.036.079.08.079h16.598c12.417,0,21.743-9.142,21.743-21.312s-9.326-21.312-21.743-21.312" fill="#fff"/>
        <path d="M314.715,44.786h-10.175c-.044,0-.08-.036-.08-.08v-11.823c0-.044.036-.08.08-.08h10.175c3.335,0,5.871,2.593,5.871,5.992s-2.536,5.991-5.871,5.991M328.492,59.365c-2.656,0-4.818-1.11-6.426-3.398l-2.901-4.17c-.032-.044-.008-.105.044-.118,5.995-1.577,10.148-6.561,10.148-12.945,0-7.969-6.241-13.963-14.458-13.963h-18.883c-.044,0-.08.035-.08.079v42.468c0,.044.036.08.08.08h8.365c.043,0,.079-.036.079-.08v-15.038c0-.044.036-.079.08-.079h4.634c.028,0,.052.013.066.035l4.857,7.747c2.78,5.005,7.228,7.415,13.467,7.415h2.576c.044,0,.08-.036.08-.08v-7.953h-1.728Z" fill="#fff"/>
        <path d="M364.045,59.495l-6.725,7.901h-27.02c-.045,0-.08-.036-.08-.08v-7.87c0-.044.035-.08.08-.08h33.701c.058.011.085.082.044.129" fill="#fff"/>
        <path d="M262.579,66.919v.013l-.116.463h-8.519l-.103-.463v-.013l-.296-1.274-9.205-40.773c-.011-.05.027-.097.078-.097h8.574c.038,0,.07.025.078.062l5.134,22.754.579,2.56,2.947,13.049.849,3.719Z" fill="#fff"/>
      </g>
      <polygon points="272.024 25.109 271.548 27.245 271.548 27.258 268.524 40.628 268.524 40.641 267.661 44.438 262.579 66.919 262.579 66.932 262.463 67.395 253.944 67.395 253.841 66.932 253.841 66.919 253.854 66.829 256.904 53.343 258.203 47.59 263.286 25.083 263.35 24.774 271.96 24.774 272.024 25.109" fill="#fff"/>
      <g clip-path="url(#d)">
        <path d="M290.996,24.774c.051,0,.089.047.078.097l-9.553,42.253-.064.271h-8.609l-.064-.271,1.042-4.62v-.012l3.024-13.358.309-1.351v-.013l5.172-22.934c.008-.036.04-.062.077-.062h8.588Z" fill="#fff"/>
      </g>
      <polygon points="281.521 67.125 281.457 67.395 272.848 67.395 272.783 67.125 267.662 44.438 266.967 41.388 264.033 28.378 264.033 28.365 263.286 25.083 263.35 24.775 271.96 24.775 272.024 25.109 277.159 47.771 277.159 47.784 278.69 54.591 281.521 67.125" fill="#fff"/>
      <g clip-path="url(#e)">
        <path d="M344.601,30.627l-5.258,5.882-9.876-11.604c-.044-.052-.005-.132.061-.132h10.051c.022,0,.044.011.061.03l4.961,5.824Z" fill="#fff"/>
        <path d="M363.985,53.588h-10.06c-.025,0-.046-.011-.063-.027l-6.706-7.874-5.129-6.024,5.137-6.025.003.003,5.132,6.022,11.747,13.793c.044.052.008.132-.061.132" fill="#fff"/>
        <path d="M364.856,24.905l-12.557,14.758-5.143,6.024-6.705,7.873c-.014.017-.036.028-.061.028h-10.049c-.068,0-.104-.08-.06-.132l11.747-13.793,5.139-6.022,2.489-2.926.05-.058,4.98-5.854c.014-.019.036-.03.061-.03h10.049c.068,0,.104.08.06.132" fill="#fff"/>
        <path d="M35.271,38.632l-2.253-.803c-1.994-.522-6.041-1.285-7.884-.392l-.678.568,10.815.627ZM10.165,31.056c-1.003-1.733-2.574-1.744-4.288-2.143-.239-.057-.272.105-.234-.31,3.099-.819,6.448-1.794,9.253-3.368,4.521-2.541,5.013-6.448,8.617-9.725C32.518,7.314,46.715,3.413,58.707,4.773c.395.047.791.149,1.178.231.517.332-.692,1.025-.915,1.283-.365.42-.659.907-.835,1.439-9.983.13-19.46,4.745-27.012,11.003-2.868,2.376-5.302,5.343-8.434,7.398-2.722,1.788-5.953,2.766-8.579,4.667l8.307.003c.069.291-.099.302-.261.442-.681.588-1.733,1.016-2.406,1.67-.168.165-.366.275-.311.55,1.566-.445,3.096-1.003,4.698-1.335,5.395-1.124,9.541.12,14.818-.234,6.593-.442,10.823-3.599,16.614-5.642,7.896-2.792,16.642-.566,22.972,4.623,12.046,9.879,17.447,23.617,15.831,39.193-.195,1.865-.645,3.706-.86,5.568l-.236.154c-.34-7.944-2.673-15.705-7.085-22.309-2.876-4.305-7.848-9.62-12.719-11.579-.774-.313-1.788-.761-2.612-.522,3.151,2.676,6.123,5.634,8.593,8.964,1.708,2.302,2.923,4.579,3.945,7.263-4.816-4.972-9.863-9.439-16.901-10.769-6.15-1.162-12.603-.442-18.056,2.693.178.263.428.225.697.244,2.138.162,4.247.121,6.363.536,1.958.384,4.214,1.068,5.793,2.277-.958-.145-1.931-.384-2.901-.467-9.381-.802-14.686,2.126-22.444,6.555-2.857,1.632-4.999,3.439-8.329,4.211-3.005.698-6.472.758-8.964-1.286-.038-.48.162-.079.234-.077,1.14.053,2.305,0,3.45,0,4.25,0,15.939-7.664,17.444-11.713,1.209-3.25-1.642-5.61-4.15-7.066-8.407-4.884-15.612.712-24.249-.365-2.78-.346-6.42-1.214-8.407-3.272,4.478,1.448,9.816-3.497,7.187-8.049" fill="#fff"/>
        <path d="M73.98,20.045c-1.871,1.126-3.695,1.374-5.868,1.19-1.901-.163.769-1.086,1.283-1.385,1.668-.975,2.78-1.849,3.464-3.747,2.017-5.579-1.571-8.692-6.945-6.632-1.434.553-2.269,1.423-3.288,2.511-.343.366-.725,1.173-1.112,1.396-.426.244-1.492.332-1.594-.236-.038-.201.311-.69-.036-.687l-.939,1.409c.835-6.541,8.211-12.192,14.683-9.274,6.066,2.733,5.805,12.172.352,15.455" fill="#fff"/>
        <path d="M86.952,23.872c-.898-.412-3.472-1.181-4.025-1.618-.285-.231-.609-.962-1.063-1.332-.219-.182-1.538-.682-.741-.786.42-.055.945.003,1.373.041l8.898,2.151c-1.89-2.162-4.673-3.272-7.043-4.791-.432-.277-2.253-1.489-2.448-1.785-.077-.119-.096-.174-.072-.319,3.165.959,6.544,2.165,9.409,3.838,1.775,1.035,1.456,1.255,2.58,2.593.777.928,1.862,1.67,2.673,2.5,4.282,4.395,7.966,9.505,9.947,15.367-1.588-1.703-2.871-3.577-4.618-5.175-4.346-3.981-9.488-8.22-14.87-10.684" fill="#fff"/>
        <path d="M51.418,63.719c2.146.887,3.307,2.923,4.626,4.7.165-.555.695-.338,1.11-.618l-.091-.478c.187-.178,1.022.783,1.162.953,4.909,6.041,4.739,20.543-2.274,24.977-.731.462-1.291.368-1.791,1.346.041-.936.752-1.912,1.096-2.824,2.53-6.692,2.84-13.568.467-20.37-.934-2.678-2.352-5.631-4.305-7.686" fill="#fff"/>
        <path d="M81.518,29.385c10.956,4.64,18.818,15.222,20.202,27.062.22,1.884.322,3.827.176,5.703-.533-.574-.448-1.61-.67-2.387-1.964-6.821-5.794-13.233-9.862-18.983-2.907-4.112-6.074-8.046-9.846-11.395" fill="#fff"/>
        <path d="M57.676,59.104l-3.906-1.97c3.867.577,7.733,1.217,11.177,3.165,7.942,4.494,9.635,16.485,8.418,24.738l-.986-5.049c-2.042-8.742-7.107-16.09-14.703-20.884" fill="#fff"/>
        <path d="M34.488,48.041c-.363,1.912-1.376,3.865-2.72,5.274-1.382,1.448-4.384,3.195-6.365,2.162-.354-.186-1.719-1.184-1.73-1.554-.009-.349,2.48-3.989,2.898-4.473.684-.794,2.305-2.052,3.296-2.349.616-.184-.156.63-.214.728-.838,1.443-1.673,2.94-2.373,4.443,1.824-2.127,4.161-4.451,7.208-4.231" fill="#fff"/>
        <path d="M66.134,85.566c-.025.176-.055.731-.291.722-.083-5.337-1.346-10.776-3.335-15.713-.582-1.448-1.33-2.791-1.997-4.195,4.892,4.885,6.618,12.447,5.623,19.186" fill="#fff"/>
        <path d="M36.518,19.735c2.181-.401,4.264-.245,6.434.088l-3.17.354c-4.484.715-7.714,4.003-11.72,5.758,1.495-3.156,5.058-5.571,8.456-6.2" fill="#fff"/>
        <path d="M7.956,33.66c-.052.305-.305,1.03-.588,1.211-.343-3.722-4.719-2.942-7.368-2.664.314-3.014,4.693-2.338,6.665-1.415,1.308.61,1.536,1.456,1.291,2.868" fill="#fff"/>
        <path d="M95.152,34.797l2.511,3.681-4.148-4.236c-1.896-1.654-3.871-3.453-5.959-4.862-2.03-1.368-4.384-2.3-6.351-3.756,5.464,1.668,10.277,4.8,13.947,9.173" fill="#fff"/>
        <path d="M24.922,58.774c-1.036.385-1.343.223-2.096-.56-.945-.984-1.385-2.434-1.662-3.747,1.206.659,2.195,1.826,3.398,2.477.698.377,1.203.399,1.868.643.165.061.456.08.22.327-.069.069-1.538.791-1.728.86" fill="#fff"/>
        <path d="M35.158,25.199c.494-.396,1.832-.33,2.464-.516-.379.978-.56,2.195-1.514,2.796-1.238.778-3.076.637-4.128-.368.78-.319,1.532-.396,2.244-.89.473-.327.673-.813.934-1.022" fill="#fff"/>
        <path d="M16.077,44.915c.398-.016.599-.39,1.008-.324l.786,3.92c-.19.231-3.536-3.134-3.291-3.92.123-.116,1.178.335,1.497.324" fill="#fff"/>
        <path d="M10.816,47.725c-1.363-.72-2.338-2.409-2.508-3.917l2.173.648c-.022,1.132.044,2.178.335,3.269" fill="#fff"/>
        <path d="M19.576,58.834c-.629.401-1.492-.214-1.964-.659-.624-.591-1.445-1.893-1.465-2.767.52.783,4.129,2.335,3.429,3.426" fill="#fff"/>
        <path d="M46.064,2.123c-2.323.422-4.268,1.079-5.774,1.708.491-.892,1.257-1.91,2.44-2.674,2.713-1.752,6.55-1.474,9.922.561-1.745-.099-4.006-.064-6.588.405" fill="#fff"/>
      </g>
    </g>
  </g>
</svg>