<?xml version="1.0" encoding="UTF-8"?>
<svg id="a" data-name="Layer 3" xmlns="http://www.w3.org/2000/svg" width="361.504" height="23.857" viewBox="0 0 361.504 23.857">
  <g id="b" data-name="Layer 1">
    <g>
      <path d="M19.069,7.684c0,1.503-.343,2.833-1.028,3.99s-1.659,2.062-2.92,2.715-2.764.979-4.508.979h-5.759v8.161H0V.346h10.415c2.775,0,4.911.639,6.408,1.917s2.246,3.085,2.246,5.421ZM14.182,7.766c0-2.435-1.437-3.653-4.311-3.653h-5.018v7.519h5.15c1.338,0,2.369-.332,3.093-.995s1.086-1.621,1.086-2.871Z" fill="#131810"/>
      <path d="M30.698,14.725v8.802h-4.854V.346h11.583c2.764,0,4.897.595,6.4,1.785s2.254,2.898,2.254,5.125c0,1.623-.461,3.025-1.382,4.204s-2.166,1.955-3.735,2.328l6.269,9.74h-5.462l-5.38-8.802h-5.693ZM41.195,7.453c0-1.108-.356-1.941-1.069-2.501s-1.782-.839-3.208-.839h-6.219v6.844h6.351c1.36,0,2.391-.307,3.093-.921s1.053-1.475,1.053-2.583Z" fill="#131810"/>
      <path d="M72.453,19.776v3.751h-18.904V.346h18.23v3.751h-13.376v5.824h12.373v3.751h-12.373v6.104h14.051Z" fill="#131810"/>
      <path d="M90.22,20.04c2.94,0,4.974-1.47,6.104-4.409l4.228,1.596c-.91,2.238-2.246,3.902-4.006,4.993s-3.869,1.637-6.326,1.637c-2.479,0-4.59-.474-6.334-1.423s-3.074-2.323-3.99-4.121-1.374-3.96-1.374-6.482c0-2.545.439-4.695,1.316-6.45s2.172-3.09,3.883-4.006,3.806-1.374,6.285-1.374c2.72,0,4.936.546,6.647,1.637s2.912,2.696,3.603,4.812l-4.278,1.168c-.362-1.163-1.072-2.087-2.131-2.772s-2.306-1.028-3.743-1.028c-2.194,0-3.858.68-4.993,2.04s-1.703,3.351-1.703,5.972c0,1.777.261,3.274.782,4.492s1.289,2.142,2.303,2.772,2.257.946,3.727.946Z" fill="#131810"/>
      <path d="M111.949.346v23.182h-4.854V.346h4.854Z" fill="#131810"/>
      <path d="M138.731,16.848c0,2.271-.842,4.006-2.526,5.207s-4.154,1.802-7.412,1.802c-5.868,0-9.285-2.122-10.25-6.367l4.689-.773c.318,1.228.938,2.12,1.859,2.674s2.199.831,3.834.831c1.7,0,2.973-.258,3.817-.773s1.267-1.289,1.267-2.32c0-.658-.192-1.201-.576-1.629s-.932-.784-1.645-1.069c-.351-.143-.867-.299-1.547-.469s-1.525-.359-2.534-.568c-1.163-.274-2.073-.507-2.731-.699s-1.185-.378-1.579-.559-.779-.381-1.152-.601c-.823-.494-1.464-1.152-1.925-1.974s-.691-1.848-.691-3.077c0-2.095.787-3.699,2.361-4.812s3.864-1.67,6.869-1.67c2.874,0,5.032.45,6.474,1.349s2.372,2.386,2.789,4.459l-4.706.642c-.241-.998-.732-1.749-1.473-2.254s-1.802-.757-3.184-.757c-1.47,0-2.572.23-3.307.691s-1.102,1.152-1.102,2.073c0,.603.156,1.097.469,1.481s.776.713,1.39.987c.581.263,1.826.598,3.735,1.004,1.108.241,2.062.469,2.863.683s1.442.42,1.925.617c.483.208.913.428,1.292.658s.705.477.979.74c.559.537.987,1.176,1.283,1.917s.444,1.593.444,2.558Z" fill="#131810"/>
      <path d="M150.525.346v23.182h-4.854V.346h4.854Z" fill="#131810"/>
      <path d="M180.944,11.83c0,2.413-.485,4.522-1.456,6.326s-2.336,3.206-4.097,4.204-3.825,1.497-6.195,1.497c-2.424,0-4.508-.485-6.252-1.456s-3.082-2.356-4.015-4.154-1.399-3.938-1.399-6.417.463-4.601,1.39-6.367,2.265-3.118,4.015-4.056,3.847-1.407,6.293-1.407,4.557.474,6.301,1.423,3.082,2.306,4.015,4.072,1.399,3.877,1.399,6.334ZM175.992,11.83c0-2.501-.592-4.461-1.777-5.882s-2.846-2.131-4.985-2.131c-2.172,0-3.85.705-5.035,2.114s-1.777,3.376-1.777,5.898c0,1.689.274,3.148.823,4.376s1.33,2.175,2.345,2.838,2.218.995,3.611.995c2.172,0,3.847-.713,5.026-2.139s1.769-3.45,1.769-6.071Z" fill="#131810"/>
      <path d="M192.294,9.855v13.672h-4.311V.346h5.545l10.25,18c-.197-1.667-.296-3.175-.296-4.525V.346h4.311v23.182h-5.693l-10.102-17.851c.099.867.173,1.648.222,2.345s.074,1.308.074,1.835Z" fill="#131810"/>
      <path d="M233.27,14.725v8.802h-4.854V.346h11.583c2.764,0,4.897.595,6.4,1.785s2.254,2.898,2.254,5.125c0,1.623-.461,3.025-1.382,4.204s-2.166,1.955-3.735,2.328l6.269,9.74h-5.462l-5.38-8.802h-5.693ZM243.767,7.453c0-1.108-.356-1.941-1.069-2.501s-1.782-.839-3.208-.839h-6.219v6.844h6.351c1.36,0,2.391-.307,3.093-.921s1.053-1.475,1.053-2.583Z" fill="#131810"/>
      <path d="M260.974.346v23.182h-4.854V.346h4.854Z" fill="#131810"/>
      <path d="M273.706,15.022v8.506h-4.854V.346h17.095v3.751h-12.241v7.173h11.863v3.751h-11.863Z" fill="#131810"/>
      <path d="M310.097,19.776v3.751h-17.292V.346h4.854v19.431h12.438Z" fill="#131810"/>
      <path d="M335.66,19.776v3.751h-18.904V.346h18.23v3.751h-13.376v5.824h12.373v3.751h-12.373v6.104h14.051Z" fill="#131810"/>
      <path d="M361.504,16.848c0,2.271-.842,4.006-2.526,5.207s-4.154,1.802-7.412,1.802c-5.868,0-9.285-2.122-10.25-6.367l4.689-.773c.318,1.228.938,2.12,1.859,2.674s2.199.831,3.834.831c1.7,0,2.973-.258,3.817-.773s1.267-1.289,1.267-2.32c0-.658-.192-1.201-.576-1.629s-.932-.784-1.645-1.069c-.351-.143-.867-.299-1.547-.469s-1.525-.359-2.534-.568c-1.163-.274-2.073-.507-2.731-.699s-1.185-.378-1.579-.559-.779-.381-1.152-.601c-.823-.494-1.464-1.152-1.925-1.974s-.691-1.848-.691-3.077c0-2.095.787-3.699,2.361-4.812s3.864-1.67,6.869-1.67c2.874,0,5.032.45,6.474,1.349s2.372,2.386,2.789,4.459l-4.706.642c-.241-.998-.732-1.749-1.473-2.254s-1.802-.757-3.184-.757c-1.47,0-2.572.23-3.307.691s-1.102,1.152-1.102,2.073c0,.603.156,1.097.469,1.481s.776.713,1.39.987c.581.263,1.826.598,3.735,1.004,1.108.241,2.062.469,2.863.683s1.442.42,1.925.617c.483.208.913.428,1.292.658s.705.477.979.74c.559.537.987,1.176,1.283,1.917s.444,1.593.444,2.558Z" fill="#131810"/>
    </g>
  </g>
</svg>