<?xml version="1.0" encoding="UTF-8"?>
<svg id="a" data-name="Layer 3" xmlns="http://www.w3.org/2000/svg" width="530.28" height="155.166" viewBox="0 0 530.28 155.166">
  <g id="b" data-name="Layer 1">
    <g>
      <g>
        <path d="M9.968,82.153c-.128-1.774-.196-3.564-.2-5.37-.743-.312-1.438-.699-2.089-1.151-.739-.511-1.423-1.098-2.05-1.75-.02.5-.032,1.003-.04,1.507-.008.419-.012.839-.012,1.262,0,37.434,26.194,68.862,61.219,76.917.595-.588,1.174-1.171,1.73-1.762.563-.6,1.106-1.199,1.63-1.81-32.619-6.365-57.711-34.01-60.188-67.843h0Z" fill="#131810"/>
        <path d="M163.365,71.663c-.26-3.35-1.32-13-2.96-15.57-.55-.86-1.75-1.43-2.48-2.14-1.11-1.07-2.06-2.37-3.12-3.37-1.56-1.47-3.46-2.65-4.86-4.27l8.67,2.54c.26-.32.14-1.03.02-1.4-.32-1.01-6.93-5.87-8.25-6.8-8.22-5.79-17.59-10.53-27.25-13.39-.81-2.3-1.12-4.72-2.2-6.94-4.53-9.25-17.9-10.79-25.52-4.57-3.51-2.64-8.72-2.09-12.92-2.36-6.22-9.73-21.72-5.34-25.08,4.69-9.54,3.29-22.19,9.62-27.29,18.73-.75,1.34-1.32,3.33-2.02,4.46-.57.93-5.04,3.34-6.27,3.92-5.47,2.55-11.98,3.84-17.37,6.47-5.34,2.61-5.21,6.92-3.13,11.86,2.05,4.87,5.46,9.75,10.99,10.77.43,1.06.54,2.1.98,3.19,1.42,3.54,5,6.64,8.6,7.72v-6.37l.58-.34c2.71,3.39,5.63,6.41,9.96,7.64l-.35-9.03c2.82.26,6.23.29,8.32,2.46-1.55,3.08-3.96,5.74-4.15,9.34-.24.22-1.42-1.06-1.99-1.15-2.54-.41-1.49,2.54-1.95,4.16l-1.33-.17-6.08-4.11-.46.23c.11,1.33-.15,2.87,0,4.17.09.76.77,2.78,1.11,3.52.37.79,1.4,1.84,1.57,2.37.26.81-.23,1.62-.08,2.62.71,4.56,8.21,6.88,12.11,7.11,5.98.36,10.94-1.76,16.32-3.57,17.59-5.91,28.29,9.75,22.79,25.79-.84,2.46-2.33,4.75-3.11,7.19,4.17-1.72,7.2-4.77,9.83-8.33.09,2.57-.61,5.41-1.34,7.92-2.16,7.46-6.2,12.51-11.74,17.77,8.48.72,17.07,1.26,25.51-.07,39.31-6.19,69.06-42.72,65.94-82.69ZM93.085,23.863c.28-.42.57-.83.88-1.23.11-.15.23-.29.36-.44.06-.08.13-.15.2-.23.28-.34.58-.66.9-.98.04-.04.08-.08.13-.13.67-.66,1.38-1.27,2.14-1.81.12-.1.25-.19.38-.27.26-.18.52-.35.79-.51.43-.27.88-.52,1.34-.74l.39-.18c.36-.18.73-.33,1.1-.47.46-.18.93-.33,1.4-.45h.01c.24-.07.47-.13.71-.17.14-.04.27-.06.41-.08.28-.06.56-.11.84-.13.21-.03.41-.05.61-.06.16-.01.32-.02.48-.03.42-.03.84-.03,1.27,0,.18,0,.37.02.55.04.05,0,.1,0,.15.02.21.01.43.04.64.08.15.02.31.04.47.08.02,0,.05.01.08.02.06.01.12.02.19.04.14.02.28.06.43.1.09.02.18.05.27.07.2.06.4.12.59.18.45.14.89.31,1.33.51,8.96,4.04,8.58,17.98.52,22.83-2.76,1.66-5.45,2.03-8.66,1.75-2.81-.23,1.13-1.6,1.89-2.04,2.46-1.44,4.11-2.73,5.12-5.53,2.97-8.24-2.33-12.84-10.26-9.8-2.12.82-3.35,2.1-4.86,3.71-.5.54-1.07,1.73-1.64,2.06-.63.36-2.2.49-2.35-.35-.06-.3.46-1.02-.05-1.01l-1.39,2.08c.04-.31.09-.61.15-.92.07-.37.15-.74.26-1.11.07-.26.15-.53.23-.79.09-.26.18-.52.28-.78.11-.29.23-.58.36-.86.25-.57.54-1.13.86-1.67.16-.27.33-.54.5-.8ZM65.065,13.952c1.13-.82,2.67-1.62,4.63-1.93,3.53-.57,6.23.77,7.06,1.22-1.87.04-4.03.21-6.42.64-2.92.53-5.42,1.31-7.45,2.09.17-.21.51-.61,1.02-1.08.1-.11.22-.21.33-.29l.83-.65ZM3.385,57.883c.47-4.45,6.94-3.45,9.85-2.09,1.93.9,2.26,2.15,1.91,4.23-.08.45-.46,1.53-.87,1.79-.51-5.49-6.98-4.34-10.89-3.93ZM18.785,80.443c-.12-.09-.24-.17-.35-.26-.35-.28-.67-.61-.96-.97-.13-.16-.25-.32-.37-.49-.13-.18-.25-.36-.36-.56-.09-.15-.18-.31-.26-.48-.03-.04-.05-.09-.07-.14-.07-.15-.14-.31-.21-.47-.08-.19-.15-.38-.21-.58-.07-.21-.13-.43-.18-.64-.04-.14-.07-.28-.09-.42-.03-.14-.05-.28-.07-.42h.01l3.2.96c-.03,1.67.07,3.22.5,4.83-.2-.1-.4-.22-.58-.36ZM24.925,76.173c.18-.17,1.74.49,2.21.48.59-.03.88-.58,1.49-.48l1.15,5.79c-.27.34-5.22-4.63-4.85-5.79ZM38.695,89.202c.07-.13.15-.26.24-.41.05-.08.09-.15.14-.23.09-.14.18-.29.28-.45.11-.17.23-.36.36-.57.12-.18.24-.36.36-.55.42-.64.88-1.31,1.29-1.91.12-.17.23-.33.34-.48s.21-.3.3-.43c.28-.4.51-.69.62-.83,1.01-1.17,3.41-3.03,4.87-3.46.91-.27-.23.93-.31,1.07-1.24,2.13-2.48,4.34-3.51,6.56,2.69-3.14,6.15-6.57,10.65-6.25-.54,2.83-2.04,5.71-4.02,7.79-2.04,2.14-6.48,4.72-9.4,3.2-.52-.28-2.54-1.75-2.55-2.3,0-.1.12-.37.34-.75ZM35.295,91.152c.21.14.42.29.63.45.21.16.42.32.62.49.2.16.41.33.61.5.28.23.55.45.83.67.3.24.6.47.91.67.1.07.21.14.31.2.15.11.3.2.46.28,1.03.56,1.78.59,2.76.95.24.09.67.12.32.48-.1.11-2.27,1.17-2.55,1.28-1.53.56-1.98.32-3.1-.83-1.39-1.46-2.04-3.59-2.45-5.53.22.12.44.25.65.39ZM27.235,92.142c.77,1.16,6.1,3.45,5.06,5.07-.93.59-2.2-.32-2.89-.98-.93-.87-2.14-2.8-2.17-4.09ZM86.025,148.033c-1.08.69-1.91.55-2.65,1.99.06-1.38,1.11-2.82,1.62-4.17,3.74-9.88,4.19-20.04.69-30.08-1.38-3.96-3.48-8.32-6.36-11.35,3.17,1.31,4.89,4.31,6.83,6.94.25-.82,1.03-.5,1.64-.91l-.13-.71c.27-.27,1.51,1.16,1.71,1.41,7.25,8.92,7,30.34-3.35,36.88ZM101.065,136.683c-.04.26-.09,1.08-.44,1.07-.12-7.88-1.98-15.91-4.92-23.21-.86-2.13-1.96-4.12-2.95-6.19,7.22,7.21,9.77,18.38,8.31,28.33ZM111.735,135.902l-1.45-7.46c-3.02-12.91-10.5-23.76-21.72-30.84l-5.76-2.91c5.71.86,11.41,1.8,16.5,4.68,11.73,6.63,14.23,24.34,12.43,36.53ZM142.765,113.793c-.29,2.76-.95,5.47-1.27,8.22l-.35.23c-.5-11.73-3.95-23.19-10.47-32.95-4.24-6.35-11.58-14.2-18.78-17.1-1.14-.46-2.64-1.12-3.86-.77,4.65,3.95,9.05,8.32,12.69,13.24,2.53,3.4,4.32,6.76,5.83,10.73-7.11-7.35-14.57-13.94-24.96-15.91-9.08-1.71-18.61-.65-26.67,3.98.27.39.64.33,1.03.36,3.16.24,6.28.18,9.4.79,2.89.57,6.22,1.58,8.56,3.36-1.42-.21-2.86-.56-4.29-.69-13.85-1.18-21.69,3.14-33.14,9.69-4.22,2.41-7.39,5.07-12.31,6.21-4.43,1.03-9.55,1.12-13.23-1.89-.06-.71.23-.12.34-.12,1.69.08,3.41,0,5.09,0,6.28,0,23.54-11.32,25.77-17.3,1.78-4.8-2.43-8.28-6.13-10.43-12.42-7.22-23.06,1.05-35.81-.54-4.11-.51-9.48-1.79-12.42-4.83,6.61,2.13,14.5-5.17,10.62-11.89-1.48-2.56-3.81-2.58-6.34-3.17-.35-.08-.4.16-.34-.45,4.58-1.21,9.52-2.65,13.66-4.98,6.68-3.75,7.41-9.52,12.73-14.36,13.3-12.1,34.26-17.86,51.97-15.85.59.06,1.17.22,1.75.34.76.49-1.03,1.51-1.36,1.89-.54.62-.97,1.34-1.23,2.12-14.74.2-28.74,7.01-39.89,16.26-4.24,3.5-7.83,7.88-12.46,10.92-4.02,2.64-8.79,4.09-12.67,6.89l12.27.01c.1.43-.15.45-.39.65-1,.87-2.55,1.5-3.55,2.47-.25.24-.54.4-.46.81,2.31-.66,4.57-1.48,6.94-1.97,7.97-1.66,14.09.18,21.88-.35,9.74-.65,15.99-5.31,24.54-8.33,11.66-4.12,24.58-.84,33.93,6.83,17.79,14.59,25.76,34.88,23.38,57.88ZM44.835,48.623c2.2-4.66,7.47-8.23,12.49-9.16,3.22-.59,6.29-.36,9.5.13l-4.68.53c-6.62,1.05-11.4,5.9-17.31,8.5ZM58.955,46.772c-.37.95-.61,2.07-1.15,2.96-.08.14-.17.28-.27.41-.1.13-.21.26-.34.38-.14.14-.3.27-.48.38-.1.06-.2.12-.3.17-.11.05-.21.1-.32.15-.21.1-.43.17-.66.23-.11.03-.23.05-.34.08-.77.16-1.59.14-2.36-.06-.79-.19-1.54-.56-2.12-1.12,1.16-.47,2.27-.58,3.32-1.31.7-.49.99-1.2,1.38-1.51.73-.59,2.7-.49,3.64-.76ZM153.875,102.103c-.07-.07-.13-.15-.18-.23-.07-.1-.12-.2-.17-.31-.07-.13-.12-.28-.16-.42-.04-.15-.08-.3-.11-.46-.05-.23-.09-.46-.12-.71-.07-.48-.13-.96-.25-1.39-2.9-10.08-8.56-19.55-14.56-28.04-4.3-6.07-8.98-11.88-14.55-16.83,16.18,6.86,27.79,22.48,29.84,39.97.33,2.78.47,5.65.26,8.42ZM123.315,48.163c8.07,2.46,15.18,7.09,20.6,13.55l3.71,5.43-6.13-6.26c-2.8-2.44-5.71-5.09-8.8-7.17-3-2.03-6.47-3.4-9.38-5.55ZM153.765,61.353c-6.42-5.88-14.01-12.14-21.96-15.78-1.33-.61-5.13-1.74-5.94-2.39-.43-.34-.9-1.42-1.57-1.97-.33-.27-2.28-1-1.1-1.16.62-.08,1.39.01,2.03.06l13.14,3.18c-2.79-3.19-6.9-4.83-10.4-7.08-.64-.41-3.33-2.2-3.62-2.63-.11-.18-.14-.26-.1-.47,4.67,1.41,9.66,3.19,13.89,5.66,2.62,1.53,2.15,1.86,3.81,3.83,1.15,1.37,2.75,2.47,3.95,3.7,6.32,6.49,11.76,14.03,14.69,22.69-2.34-2.51-4.24-5.28-6.82-7.64Z" fill="#131810"/>
        <path d="M28.762,22.287c-6.517,6.513-12.076,14.368-15.886,22.773,3.906-1.235,7.558-3.086,11.242-4.846,4.031-9.952,13.666-17.052,23.094-21.589,1.345-.648,5.924-2.025,6.541-2.488.407-.305.992-1.781,1.391-2.313,2.901-3.865,6.764-6.924,11.5-8.18,5.931-1.572,14.038-.791,17.466,4.899,3.528-.42,7.68-.087,10.842,1.57,11.448-7.37,28.952-1.705,30.472,12.778,4.687,1.086,9.152,3.009,13.404,5.234,4.758,2.49,9.78,5.489,13.884,8.918.267-.316-3.271-5.637-3.745-6.324C121.979-6.368,62.236-11.169,28.762,22.287h0Z" fill="#131810"/>
        <path d="M35.295,91.152c-.21-.14-.43-.27-.65-.39v-.01c.22.12.44.26.65.4Z" fill="#131810"/>
        <path d="M65.065,13.953c-.31.22-.59.44-.83.65-.12.1-.23.2-.33.29-.51.47-.85.87-1.02,1.08l2.18-2.02Z" fill="#131810"/>
        <path d="M40.509,65.605l-1.002.841,15.973.926-3.326-1.185c-2.945-.77-8.922-1.898-11.645-.582h0Z" fill="#131810"/>
      </g>
      <g>
        <g>
          <path d="M200.921,138.271c0,.534-.122,1.007-.365,1.418s-.59.733-1.038.965-.982.348-1.602.348h-2.046v2.9h-1.725v-8.238h3.701c.986,0,1.745.227,2.277.681s.798,1.096.798,1.927ZM199.184,138.3c0-.865-.511-1.298-1.532-1.298h-1.783v2.672h1.83c.476,0,.842-.118,1.099-.354s.386-.576.386-1.02Z" fill="#131810"/>
          <path d="M205.053,140.773v3.128h-1.725v-8.238h4.116c.982,0,1.74.211,2.274.634s.801,1.03.801,1.821c0,.577-.164,1.075-.491,1.494s-.77.695-1.327.827l2.228,3.461h-1.941l-1.912-3.128h-2.023ZM208.784,138.189c0-.394-.127-.69-.38-.889s-.633-.298-1.14-.298h-2.21v2.432h2.257c.483,0,.85-.109,1.099-.327s.374-.524.374-.918Z" fill="#131810"/>
          <path d="M219.892,142.568v1.333h-6.718v-8.238h6.478v1.333h-4.754v2.07h4.397v1.333h-4.397v2.169h4.993Z" fill="#131810"/>
          <path d="M226.205,142.662c1.045,0,1.768-.522,2.169-1.567l1.503.567c-.324.795-.798,1.387-1.424,1.775s-1.375.582-2.248.582c-.881,0-1.631-.169-2.251-.506s-1.092-.825-1.418-1.465-.488-1.407-.488-2.304c0-.904.156-1.668.468-2.292s.772-1.098,1.38-1.424,1.353-.488,2.234-.488c.967,0,1.754.194,2.362.582s1.035.958,1.28,1.71l-1.52.415c-.129-.413-.381-.742-.757-.985s-.82-.365-1.33-.365c-.78,0-1.371.242-1.775.725s-.605,1.191-.605,2.122c0,.631.093,1.164.278,1.596s.458.761.819.985.802.336,1.324.336Z" fill="#131810"/>
          <path d="M233.928,135.663v8.238h-1.725v-8.238h1.725Z" fill="#131810"/>
          <path d="M243.446,141.527c0,.807-.299,1.424-.898,1.851s-1.476.64-2.634.64c-2.085,0-3.3-.754-3.643-2.263l1.666-.275c.113.437.333.753.661.95s.782.295,1.362.295c.604,0,1.056-.092,1.356-.275s.45-.458.45-.824c0-.234-.068-.427-.205-.579s-.331-.279-.585-.38c-.125-.051-.308-.106-.55-.167s-.542-.128-.9-.202c-.413-.097-.737-.18-.971-.248s-.421-.134-.561-.199-.277-.135-.409-.213c-.292-.175-.52-.409-.684-.702s-.246-.657-.246-1.093c0-.745.28-1.315.839-1.71s1.373-.593,2.441-.593c1.021,0,1.788.16,2.301.479s.843.848.991,1.585l-1.672.228c-.086-.355-.26-.622-.523-.801s-.64-.269-1.131-.269c-.522,0-.914.082-1.175.246s-.392.409-.392.737c0,.214.056.39.167.526s.276.253.494.351c.207.094.649.212,1.327.357.394.086.733.167,1.017.243s.513.149.684.219c.172.074.325.152.459.234s.25.17.348.263c.199.191.351.418.456.681s.158.566.158.909Z" fill="#131810"/>
          <path d="M247.637,135.663v8.238h-1.725v-8.238h1.725Z" fill="#131810"/>
          <path d="M258.446,139.744c0,.858-.172,1.607-.517,2.248s-.83,1.139-1.456,1.494-1.359.532-2.201.532c-.861,0-1.602-.172-2.222-.517s-1.095-.837-1.427-1.476-.497-1.399-.497-2.28.165-1.635.494-2.263.805-1.108,1.427-1.441,1.367-.5,2.236-.5,1.62.169,2.239.506,1.095.82,1.427,1.447.497,1.378.497,2.251ZM256.687,139.744c0-.889-.21-1.586-.631-2.09s-1.012-.757-1.772-.757c-.772,0-1.368.25-1.789.751s-.631,1.2-.631,2.096c0,.6.097,1.119.292,1.555s.473.773.833,1.009.788.354,1.283.354c.772,0,1.367-.253,1.786-.76s.629-1.226.629-2.158Z" fill="#131810"/>
          <path d="M262.48,139.043v4.859h-1.532v-8.238h1.97l3.643,6.397c-.07-.592-.105-1.128-.105-1.608v-4.789h1.532v8.238h-2.023l-3.59-6.344c.035.308.061.586.079.833s.026.465.026.652Z" fill="#131810"/>
          <path d="M277.042,140.773v3.128h-1.725v-8.238h4.116c.982,0,1.74.211,2.274.634s.801,1.03.801,1.821c0,.577-.164,1.075-.491,1.494s-.77.695-1.327.827l2.228,3.461h-1.941l-1.912-3.128h-2.023ZM280.773,138.189c0-.394-.127-.69-.38-.889s-.633-.298-1.14-.298h-2.21v2.432h2.257c.483,0,.85-.109,1.099-.327s.374-.524.374-.918Z" fill="#131810"/>
          <path d="M286.888,135.663v8.238h-1.725v-8.238h1.725Z" fill="#131810"/>
          <path d="M291.412,140.878v3.023h-1.725v-8.238h6.075v1.333h-4.35v2.549h4.216v1.333h-4.216Z" fill="#131810"/>
          <path d="M304.344,142.568v1.333h-6.145v-8.238h1.725v6.905h4.42Z" fill="#131810"/>
          <path d="M313.429,142.568v1.333h-6.718v-8.238h6.478v1.333h-4.754v2.07h4.397v1.333h-4.397v2.169h4.993Z" fill="#131810"/>
          <path d="M322.613,141.527c0,.807-.299,1.424-.898,1.851s-1.476.64-2.634.64c-2.085,0-3.3-.754-3.643-2.263l1.666-.275c.113.437.333.753.661.95s.782.295,1.362.295c.604,0,1.056-.092,1.356-.275s.45-.458.45-.824c0-.234-.068-.427-.205-.579s-.331-.279-.585-.38c-.125-.051-.308-.106-.55-.167s-.542-.128-.9-.202c-.413-.097-.737-.18-.971-.248s-.421-.134-.561-.199-.277-.135-.409-.213c-.292-.175-.52-.409-.684-.702s-.246-.657-.246-1.093c0-.745.28-1.315.839-1.71s1.373-.593,2.441-.593c1.021,0,1.788.16,2.301.479s.843.848.991,1.585l-1.672.228c-.086-.355-.26-.622-.523-.801s-.64-.269-1.131-.269c-.522,0-.914.082-1.175.246s-.392.409-.392.737c0,.214.056.39.167.526s.276.253.494.351c.207.094.649.212,1.327.357.394.086.733.167,1.017.243s.513.149.684.219c.172.074.325.152.459.234s.25.17.348.263c.199.191.351.418.456.681s.158.566.158.909Z" fill="#131810"/>
          <path d="M331.329,140.878v3.023h-1.725v-8.238h6.075v1.333h-4.35v2.549h4.216v1.333h-4.216Z" fill="#131810"/>
          <path d="M346.127,139.744c0,.858-.172,1.607-.517,2.248s-.83,1.139-1.456,1.494-1.359.532-2.201.532c-.861,0-1.602-.172-2.222-.517s-1.095-.837-1.427-1.476-.497-1.399-.497-2.28.165-1.635.494-2.263.805-1.108,1.427-1.441,1.367-.5,2.236-.5,1.62.169,2.239.506,1.095.82,1.427,1.447.497,1.378.497,2.251ZM344.367,139.744c0-.889-.21-1.586-.631-2.09s-1.012-.757-1.772-.757c-.772,0-1.368.25-1.789.751s-.631,1.2-.631,2.096c0,.6.097,1.119.292,1.555s.473.773.833,1.009.788.354,1.283.354c.772,0,1.367-.253,1.786-.76s.629-1.226.629-2.158Z" fill="#131810"/>
          <path d="M350.352,140.773v3.128h-1.725v-8.238h4.116c.982,0,1.74.211,2.274.634s.801,1.03.801,1.821c0,.577-.164,1.075-.491,1.494s-.77.695-1.327.827l2.228,3.461h-1.941l-1.912-3.128h-2.023ZM354.083,138.189c0-.394-.127-.69-.38-.889s-.633-.298-1.14-.298h-2.21v2.432h2.257c.483,0,.85-.109,1.099-.327s.374-.524.374-.918Z" fill="#131810"/>
          <path d="M366.716,136.996v6.905h-1.725v-6.905h-2.66v-1.333h7.051v1.333h-2.666Z" fill="#131810"/>
          <path d="M373.234,140.37v3.532h-1.725v-8.238h1.725v3.28h3.59v-3.28h1.725v8.238h-1.725v-3.532h-3.59Z" fill="#131810"/>
          <path d="M388.073,142.568v1.333h-6.718v-8.238h6.478v1.333h-4.754v2.07h4.397v1.333h-4.397v2.169h4.993Z" fill="#131810"/>
          <path d="M396.572,141.796l-.731,2.105h-1.725l3.005-8.238h2.035l2.994,8.238h-1.707l-.731-2.105h-3.14ZM398.139,136.932c-.039.156-.094.343-.164.561s-.121.372-.152.462l-.865,2.543h2.368l-.889-2.596c-.055-.16-.105-.322-.152-.485s-.096-.325-.146-.485Z" fill="#131810"/>
          <path d="M405.996,138.908v4.993h-1.532v-8.238h2.31l1.473,4.607c.066.257.134.516.205.775s.138.517.205.775c.043-.148.084-.295.123-.441s.079-.293.12-.441.083-.294.126-.439l1.514-4.835h2.298v8.238h-1.532v-4.993c0-.113.005-.34.015-.681s.024-.712.044-1.114c-.136.522-.256.967-.36,1.333s-.188.653-.254.86l-1.485,4.596h-1.228l-1.485-4.596-.626-2.193c.023.452.041.827.053,1.126s.018.521.018.669Z" fill="#131810"/>
          <path d="M422.354,142.568v1.333h-6.718v-8.238h6.478v1.333h-4.754v2.07h4.397v1.333h-4.397v2.169h4.993Z" fill="#131810"/>
          <path d="M426.546,140.773v3.128h-1.725v-8.238h4.116c.982,0,1.74.211,2.274.634s.801,1.03.801,1.821c0,.577-.164,1.075-.491,1.494s-.77.695-1.327.827l2.228,3.461h-1.941l-1.912-3.128h-2.023ZM430.276,138.189c0-.394-.127-.69-.38-.889s-.633-.298-1.14-.298h-2.21v2.432h2.257c.483,0,.85-.109,1.099-.327s.374-.524.374-.918Z" fill="#131810"/>
          <path d="M436.391,135.663v8.238h-1.725v-8.238h1.725Z" fill="#131810"/>
          <path d="M443.038,142.662c1.045,0,1.768-.522,2.169-1.567l1.503.567c-.324.795-.798,1.387-1.424,1.775s-1.375.582-2.248.582c-.881,0-1.631-.169-2.251-.506s-1.092-.825-1.418-1.465-.488-1.407-.488-2.304c0-.904.156-1.668.468-2.292s.772-1.098,1.38-1.424,1.353-.488,2.234-.488c.967,0,1.754.194,2.362.582s1.035.958,1.28,1.71l-1.52.415c-.129-.413-.381-.742-.757-.985s-.82-.365-1.33-.365c-.78,0-1.371.242-1.775.725s-.605,1.191-.605,2.122c0,.631.093,1.164.278,1.596s.458.761.819.985.802.336,1.324.336Z" fill="#131810"/>
          <path d="M450.988,141.796l-.731,2.105h-1.725l3.005-8.238h2.035l2.994,8.238h-1.707l-.731-2.105h-3.14ZM452.555,136.932c-.039.156-.094.343-.164.561s-.121.372-.152.462l-.865,2.543h2.368l-.889-2.596c-.055-.16-.105-.322-.152-.485s-.096-.325-.146-.485Z" fill="#131810"/>
          <path d="M460.412,139.043v4.859h-1.532v-8.238h1.97l3.643,6.397c-.07-.592-.105-1.128-.105-1.608v-4.789h1.532v8.238h-2.023l-3.59-6.344c.035.308.061.586.079.833s.026.465.026.652Z" fill="#131810"/>
          <path d="M480.026,138.271c0,.534-.122,1.007-.365,1.418s-.59.733-1.038.965-.982.348-1.602.348h-2.046v2.9h-1.725v-8.238h3.701c.986,0,1.745.227,2.277.681s.798,1.096.798,1.927ZM478.29,138.3c0-.865-.511-1.298-1.532-1.298h-1.783v2.672h1.83c.476,0,.842-.118,1.099-.354s.386-.576.386-1.02Z" fill="#131810"/>
          <path d="M483.499,141.796l-.731,2.105h-1.725l3.005-8.238h2.035l2.994,8.238h-1.707l-.731-2.105h-3.14ZM485.065,136.932c-.039.156-.094.343-.164.561s-.121.372-.152.462l-.865,2.543h2.368l-.889-2.596c-.055-.16-.105-.322-.152-.485s-.096-.325-.146-.485Z" fill="#131810"/>
          <path d="M494.221,136.996v6.905h-1.725v-6.905h-2.66v-1.333h7.051v1.333h-2.666Z" fill="#131810"/>
          <path d="M500.739,140.773v3.128h-1.725v-8.238h4.116c.982,0,1.74.211,2.274.634s.801,1.03.801,1.821c0,.577-.164,1.075-.491,1.494s-.77.695-1.327.827l2.228,3.461h-1.941l-1.912-3.128h-2.023ZM504.469,138.189c0-.394-.127-.69-.38-.889s-.633-.298-1.14-.298h-2.21v2.432h2.257c.483,0,.85-.109,1.099-.327s.374-.524.374-.918Z" fill="#131810"/>
          <path d="M510.584,135.663v8.238h-1.725v-8.238h1.725Z" fill="#131810"/>
          <path d="M521.394,139.744c0,.858-.172,1.607-.517,2.248s-.83,1.139-1.456,1.494-1.359.532-2.201.532c-.861,0-1.602-.172-2.222-.517s-1.095-.837-1.427-1.476-.497-1.399-.497-2.28.165-1.635.494-2.263.805-1.108,1.427-1.441,1.367-.5,2.236-.5,1.62.169,2.239.506,1.095.82,1.427,1.447.497,1.378.497,2.251ZM519.634,139.744c0-.889-.21-1.586-.631-2.09s-1.012-.757-1.772-.757c-.772,0-1.368.25-1.789.751s-.631,1.2-.631,2.096c0,.6.097,1.119.292,1.555s.473.773.833,1.009.788.354,1.283.354c.772,0,1.367-.253,1.786-.76s.629-1.226.629-2.158Z" fill="#131810"/>
          <path d="M527.614,136.996v6.905h-1.725v-6.905h-2.66v-1.333h7.051v1.333h-2.666Z" fill="#131810"/>
        </g>
        <path d="M231.294,41.101c3.816-2.205,6.616-7.039,6.616-12.467,0-8.65-6.702-14.927-15.437-14.927h-28.328v58.522h30.533c9.331,0,16.37-6.616,16.37-15.86,0-7.041-3.987-13.232-9.753-15.269ZM205.509,24.223h13.995c3.648,0,6.446,2.799,6.446,6.446s-2.885,6.446-6.446,6.446h-13.995v-12.892ZM221.794,61.712h-16.285v-14.673h16.285c4.156,0,7.295,3.223,7.295,7.295,0,4.155-3.139,7.378-7.295,7.378Z" fill="#131810"/>
        <path d="M264.526,13.708l-22.562,58.522h12.639l4.07-11.366h25.192l4.155,11.366h12.807l-22.477-58.522h-13.824ZM262.662,50.092l8.65-23.492,8.566,23.492h-17.215Z" fill="#131810"/>
        <path d="M358.699,42.969c0-16.709-12.807-29.261-29.856-29.261h-22.899v58.522h22.899c17.049,0,29.856-12.552,29.856-29.261ZM328.59,61.203h-10.941V24.733h10.941c10.348,0,18.066,7.805,18.066,18.236s-7.718,18.234-18.066,18.234Z" fill="#131810"/>
        <path d="M394.732,73.248c8.904,0,15.69-3.395,19.761-9.839v8.82h9.923v-32.908h-27.819v10.602h15.182c-2.206,7.123-8.652,12.043-17.047,12.043-10.772,0-18.913-8.143-18.913-18.999s8.142-18.999,18.913-18.999c6.7,0,12.383,3.139,15.52,8.143h13.062c-3.392-11.366-14.843-19.424-28.581-19.424-17.642,0-30.873,13.062-30.873,30.28s13.231,30.28,30.873,30.28Z" fill="#131810"/>
        <polygon points="473.84 61.203 446.615 61.203 446.615 48.313 470.617 48.313 470.617 37.285 446.615 37.285 446.615 24.733 473.415 24.733 473.415 13.708 434.91 13.708 434.91 72.23 473.84 72.23 473.84 61.203" fill="#131810"/>
        <path d="M494.91,51.364h6.533l6.699,10.688c3.816,6.87,9.923,10.179,18.49,10.179h3.647v-11.028h-2.375c-3.646,0-6.616-1.525-8.82-4.664l-4.071-5.852c8.311-2.121,14.077-8.989,14.077-17.811,0-10.941-8.564-19.168-19.845-19.168h-26.038v58.522h11.703v-20.866ZM494.91,24.733h14.079c4.581,0,8.058,3.563,8.058,8.227s-3.476,8.228-8.058,8.228h-14.079v-16.456Z" fill="#131810"/>
        <path d="M217.79,112.126l-2.684-3.858c5.477-1.397,9.278-5.926,9.278-11.738,0-7.211-5.645-12.635-13.08-12.635h-17.161v38.573h7.715v-13.753h4.302l4.418,7.044c2.514,4.528,6.54,6.709,12.187,6.709h2.403v-7.268h-1.566c-2.403,0-4.358-1.007-5.812-3.074ZM211.138,102.009h-9.278v-10.846h9.278c3.018,0,5.31,2.348,5.31,5.422s-2.291,5.424-5.31,5.424Z" fill="#131810"/>
        <rect x="230.368" y="83.895" width="7.715" height="38.573" fill="#131810"/>
        <polygon points="245.223 122.468 252.938 122.468 252.938 107.094 267.526 107.094 267.526 99.828 252.938 99.828 252.938 91.163 269.763 91.163 269.763 83.895 245.223 83.895 245.223 122.468" fill="#131810"/>
        <polygon points="281.917 83.895 274.202 83.895 274.202 122.468 298.184 122.468 298.184 115.2 281.917 115.2 281.917 83.895" fill="#131810"/>
        <polygon points="309.439 106.703 325.258 106.703 325.258 99.436 309.439 99.436 309.439 91.163 327.102 91.163 327.102 83.895 301.724 83.895 301.724 122.468 327.381 122.468 327.381 115.2 309.439 115.2 309.439 106.703" fill="#131810"/>
        <polygon points="371.12 111.845 362.401 83.895 355.356 83.895 346.691 111.845 338.084 83.895 329.53 83.895 342.666 122.468 350.494 122.468 358.766 95.691 367.151 122.468 374.922 122.468 387.946 83.895 379.672 83.895 371.12 111.845" fill="#131810"/>
        <path d="M408.539,83.224c-11.629,0-20.349,8.61-20.349,19.958s8.72,19.955,20.349,19.955c11.57,0,20.346-8.608,20.346-19.955s-8.776-19.958-20.346-19.958ZM408.539,115.703c-7.101,0-12.467-5.366-12.467-12.521s5.366-12.522,12.467-12.522c7.042,0,12.408,5.367,12.408,12.522s-5.366,12.521-12.408,12.521Z" fill="#131810"/>
        <polygon points="501.914 83.894 492.404 83.894 477.926 101.221 477.926 83.894 470.219 83.894 470.219 110.579 479.027 110.579 481.725 107.593 492.803 122.47 502.464 122.47 486.817 101.84 501.914 83.894" fill="#131810"/>
        <path d="M510.154,94.294c0-2.571,2.572-4.193,5.592-4.193,3.409,0,5.981,2.013,5.981,4.697h7.937c0-6.598-5.981-11.573-13.808-11.573-7.602,0-13.64,4.584-13.64,11.683,0,13.137,20.124,10.119,20.124,16.883,0,2.627-2.794,4.471-6.204,4.471-3.688,0-6.596-2.293-6.596-5.198h-7.938c0,6.819,6.205,12.074,14.478,12.074,7.938,0,14.2-4.807,14.2-12.243,0-13.36-20.126-9.726-20.126-16.601Z" fill="#131810"/>
        <path d="M470.219,115.203h-5.142v-.003h-1.565c-2.403,0-4.36-1.007-5.813-3.074l-2.684-3.858c5.477-1.397,9.278-5.926,9.278-11.738,0-7.211-5.645-12.635-13.08-12.635h-17.161v38.573h7.715v-13.753h4.303l4.416,7.044c2.516,4.528,6.54,6.709,12.187,6.709h2.398v.002h13.005v-7.266h-7.858ZM451.046,102.009h-9.278v-10.846h9.278c3.018,0,5.311,2.348,5.311,5.422s-2.293,5.424-5.311,5.424Z" fill="#131810"/>
      </g>
    </g>
  </g>
</svg>