<?xml version="1.0" encoding="UTF-8"?>
<svg id="a" data-name="Layer 2" xmlns="http://www.w3.org/2000/svg" width="634.417" height="155.166" viewBox="0 0 634.417 155.166">
  <g id="b" data-name="Layer 1">
    <g>
      <g>
        <g>
          <path d="M244.052,63.713c-.103-.039-.117-.174-.022-.231,4.868-2.924,8.401-9.164,8.401-16.139,0-11.314-8.749-19.511-20.179-19.511h-37.01v76.326c0,.079.064.143.143.143h39.754c4.687,0,8.958-1.27,12.399-3.556,5.518-3.625,9.003-9.743,9.003-17.178,0-9.085-5.1-17.086-12.489-19.854ZM210.087,41.713c0-.079.064-.143.143-.143h17.927c4.678,0,8.628,3.72,8.644,8.398.016,4.771-3.754,8.457-8.427,8.457h-18.143c-.079,0-.143-.064-.143-.143v-16.568ZM231.031,90.564h-20.801c-.079,0-.143-.064-.143-.143v-18.901c0-.079.064-.142.143-.142h21.145c5.521,0,9.68,4.375,9.532,9.817-.143,5.258-4.616,9.369-9.875,9.369Z" fill="#131810"/>
          <path d="M305.644,27.832h-17.881c-.06,0-.113.036-.134.091l-28.063,72.822-1.363,3.556h16.408c.061,0,.114-.039.135-.095l1.235-3.461,4.007-11.196c.021-.057.074-.095.135-.095h32.723c.061,0,.113.038.135.094l5.356,14.658c.021.057.074.095.135.095h16.431c.101,0,.169-.101.134-.194l-29.259-76.184c-.022-.055-.074-.091-.134-.091ZM307.523,75.371h-22.079c-.1,0-.169-.098-.135-.192l11.086-30.149c.046-.125.222-.125.269,0l10.994,30.15c.034.092-.035.191-.135.191Z" fill="#131810"/>
          <path d="M372.898,27.827h-29.781c-.08,0-.143.064-.143.143v76.19c0,.079.063.143.143.143h29.781c22.277,0,39.014-16.403,39.014-38.238s-16.737-38.239-39.014-38.239ZM372.564,89.894h-14.153c-.079,0-.143-.063-.143-.142v-47.372c0-.079.064-.143.143-.143h14.153c13.523,0,23.611,10.198,23.611,23.829s-10.088,23.828-23.611,23.828Z" fill="#131810"/>
          <path d="M572.381,89.897c-.077,0-.137.061-.141.137v-.139h-3.1c-4.771,0-8.65-1.991-11.529-6.092l-5.209-7.486c-.055-.079-.01-.188.084-.213,10.755-2.829,18.202-11.765,18.202-23.224,0-14.298-11.194-25.048-25.936-25.048h-33.88c-.079,0-.143.064-.143.143v76.189c0,.079.064.143.143.143h15.008c.079,0,.142-.064.142-.143v-26.98c0-.079.064-.143.143-.143h8.311c.048,0,.098.024.123.064l8.714,13.899c4.987,8.98,12.967,13.303,24.161,13.303h4.622c.078,0,.141-.064.143-.141.003.075.064.138.142.138h48.48l12.065-14.175c.074-.084.024-.211-.079-.232h-60.466ZM544.423,63.744h-18.257c-.079,0-.143-.064-.143-.143v-21.218c0-.079.064-.143.143-.143h18.257c5.983,0,10.528,4.653,10.528,10.749s-4.545,10.755-10.528,10.755Z" fill="#131810"/>
          <path d="M501.863,27.836h-15.407c-.067,0-.125.046-.14.112l-9.28,41.145-9.212-40.656-.115-.6h0s-15.446,0-15.446,0l-.115.554-9.12,40.382h0s0,0,0,0l-9.21-40.825c-.015-.064-.073-.111-.14-.111h-15.384c-.091,0-.159.085-.14.174l16.515,73.154.532,2.285h0v.024l.185.831h0s15.284,0,15.284,0l.12-.481.088-.351v-.023l9.119-40.334h0s9.189,40.704,9.189,40.704l.115.485h0s15.446,0,15.446,0h0s0,0,0,0l.054-.228.062-.258,17.138-75.809c.019-.089-.049-.174-.14-.174Z" fill="#131810"/>
          <path d="M588.609,48.888l9.434-10.552-8.901-10.449c-.03-.034-.069-.05-.109-.05h-18.033c-.124,0-.188.143-.109.232l17.72,20.819Z" fill="#131810"/>
          <path d="M634.273,27.837h-18.033c-.04,0-.079.016-.108.05l-8.932,10.504-.729.852-3.825,4.501h0s-.005-.005-.005-.005l-8.145,9.554-1.072,1.256-21.08,24.747c-.079.095-.01.237.108.237h18.035c.04,0,.079-.019.109-.049l12.031-14.126h0s12.032,14.125,12.032,14.125c.029.03.068.05.108.05h18.054c.118,0,.187-.143.108-.237l-21.08-24.747h0s0,0,0,0l22.534-26.478c.079-.089.015-.232-.109-.232Z" fill="#131810"/>
        </g>
        <g>
          <path d="M9.968,82.153c-.128-1.774-.196-3.564-.2-5.37-.743-.312-1.438-.699-2.089-1.151-.739-.511-1.423-1.098-2.05-1.75-.02.5-.032,1.003-.04,1.507-.008.419-.012.839-.012,1.262,0,37.434,26.194,68.862,61.219,76.917.595-.588,1.174-1.171,1.73-1.762.563-.6,1.106-1.199,1.63-1.81-32.619-6.365-57.711-34.01-60.188-67.843h0Z" fill="#131810"/>
          <path d="M163.365,71.663c-.26-3.35-1.32-13-2.96-15.57-.55-.86-1.75-1.43-2.48-2.14-1.11-1.07-2.06-2.37-3.12-3.37-1.56-1.47-3.46-2.65-4.86-4.27l8.67,2.54c.26-.32.14-1.03.02-1.4-.32-1.01-6.93-5.87-8.25-6.8-8.22-5.79-17.59-10.53-27.25-13.39-.81-2.3-1.12-4.72-2.2-6.94-4.53-9.25-17.9-10.79-25.52-4.57-3.51-2.64-8.72-2.09-12.92-2.36-6.22-9.73-21.72-5.34-25.08,4.69-9.54,3.29-22.19,9.62-27.29,18.73-.75,1.34-1.32,3.33-2.02,4.46-.57.93-5.04,3.34-6.27,3.92-5.47,2.55-11.98,3.84-17.37,6.47-5.34,2.61-5.21,6.92-3.13,11.86,2.05,4.87,5.46,9.75,10.99,10.77.43,1.06.54,2.1.98,3.19,1.42,3.54,5,6.64,8.6,7.72v-6.37l.58-.34c2.71,3.39,5.63,6.41,9.96,7.64l-.35-9.03c2.82.26,6.23.29,8.32,2.46-1.55,3.08-3.96,5.74-4.15,9.34-.24.22-1.42-1.06-1.99-1.15-2.54-.41-1.49,2.54-1.95,4.16l-1.33-.17-6.08-4.11-.46.23c.11,1.33-.15,2.87,0,4.17.09.76.77,2.78,1.11,3.52.37.79,1.4,1.84,1.57,2.37.26.81-.23,1.62-.08,2.62.71,4.56,8.21,6.88,12.11,7.11,5.98.36,10.94-1.76,16.32-3.57,17.59-5.91,28.29,9.75,22.79,25.79-.84,2.46-2.33,4.75-3.11,7.19,4.17-1.72,7.2-4.77,9.83-8.33.09,2.57-.61,5.41-1.34,7.92-2.16,7.46-6.2,12.51-11.74,17.77,8.48.72,17.07,1.26,25.51-.07,39.31-6.19,69.06-42.72,65.94-82.69ZM93.085,23.863c.28-.42.57-.83.88-1.23.11-.15.23-.29.36-.44.06-.08.13-.15.2-.23.28-.34.58-.66.9-.98.04-.04.08-.08.13-.13.67-.66,1.38-1.27,2.14-1.81.12-.1.25-.19.38-.27.26-.18.52-.35.79-.51.43-.27.88-.52,1.34-.74l.39-.18c.36-.18.73-.33,1.1-.47.46-.18.93-.33,1.4-.45h.01c.24-.07.47-.13.71-.17.14-.04.27-.06.41-.08.28-.06.56-.11.84-.13.21-.03.41-.05.61-.06.16-.01.32-.02.48-.03.42-.03.84-.03,1.27,0,.18,0,.37.02.55.04.05,0,.1,0,.15.02.21.01.43.04.64.08.15.02.31.04.47.08.02,0,.05.01.08.02.06.01.12.02.19.04.14.02.28.06.43.1.09.02.18.05.27.07.2.06.4.12.59.18.45.14.89.31,1.33.51,8.96,4.04,8.58,17.98.52,22.83-2.76,1.66-5.45,2.03-8.66,1.75-2.81-.23,1.13-1.6,1.89-2.04,2.46-1.44,4.11-2.73,5.12-5.53,2.97-8.24-2.33-12.84-10.26-9.8-2.12.82-3.35,2.1-4.86,3.71-.5.54-1.07,1.73-1.64,2.06-.63.36-2.2.49-2.35-.35-.06-.3.46-1.02-.05-1.01l-1.39,2.08c.04-.31.09-.61.15-.92.07-.37.15-.74.26-1.11.07-.26.15-.53.23-.79.09-.26.18-.52.28-.78.11-.29.23-.58.36-.86.25-.57.54-1.13.86-1.67.16-.27.33-.54.5-.8ZM65.065,13.952c1.13-.82,2.67-1.62,4.63-1.93,3.53-.57,6.23.77,7.06,1.22-1.87.04-4.03.21-6.42.64-2.92.53-5.42,1.31-7.45,2.09.17-.21.51-.61,1.02-1.08.1-.11.22-.21.33-.29l.83-.65ZM3.385,57.883c.47-4.45,6.94-3.45,9.85-2.09,1.93.9,2.26,2.15,1.91,4.23-.08.45-.46,1.53-.87,1.79-.51-5.49-6.98-4.34-10.89-3.93ZM18.785,80.443c-.12-.09-.24-.17-.35-.26-.35-.28-.67-.61-.96-.97-.13-.16-.25-.32-.37-.49-.13-.18-.25-.36-.36-.56-.09-.15-.18-.31-.26-.48-.03-.04-.05-.09-.07-.14-.07-.15-.14-.31-.21-.47-.08-.19-.15-.38-.21-.58-.07-.21-.13-.43-.18-.64-.04-.14-.07-.28-.09-.42-.03-.14-.05-.28-.07-.42h.01l3.2.96c-.03,1.67.07,3.22.5,4.83-.2-.1-.4-.22-.58-.36ZM24.925,76.173c.18-.17,1.74.49,2.21.48.59-.03.88-.58,1.49-.48l1.15,5.79c-.27.34-5.22-4.63-4.85-5.79ZM38.695,89.202c.07-.13.15-.26.24-.41.05-.08.09-.15.14-.23.09-.14.18-.29.28-.45.11-.17.23-.36.36-.57.12-.18.24-.36.36-.55.42-.64.88-1.31,1.29-1.91.12-.17.23-.33.34-.48s.21-.3.3-.43c.28-.4.51-.69.62-.83,1.01-1.17,3.41-3.03,4.87-3.46.91-.27-.23.93-.31,1.07-1.24,2.13-2.48,4.34-3.51,6.56,2.69-3.14,6.15-6.57,10.65-6.25-.54,2.83-2.04,5.71-4.02,7.79-2.04,2.14-6.48,4.72-9.4,3.2-.52-.28-2.54-1.75-2.55-2.3,0-.1.12-.37.34-.75ZM35.295,91.152c.21.14.42.29.63.45.21.16.42.32.62.49.2.16.41.33.61.5.28.23.55.45.83.67.3.24.6.47.91.67.1.07.21.14.31.2.15.11.3.2.46.28,1.03.56,1.78.59,2.76.95.24.09.67.12.32.48-.1.11-2.27,1.17-2.55,1.28-1.53.56-1.98.32-3.1-.83-1.39-1.46-2.04-3.59-2.45-5.53.22.12.44.25.65.39ZM27.235,92.142c.77,1.16,6.1,3.45,5.06,5.07-.93.59-2.2-.32-2.89-.98-.93-.87-2.14-2.8-2.17-4.09ZM86.025,148.033c-1.08.69-1.91.55-2.65,1.99.06-1.38,1.11-2.82,1.62-4.17,3.74-9.88,4.19-20.04.69-30.08-1.38-3.96-3.48-8.32-6.36-11.35,3.17,1.31,4.89,4.31,6.83,6.94.25-.82,1.03-.5,1.64-.91l-.13-.71c.27-.27,1.51,1.16,1.71,1.41,7.25,8.92,7,30.34-3.35,36.88ZM101.065,136.683c-.04.26-.09,1.08-.44,1.07-.12-7.88-1.98-15.91-4.92-23.21-.86-2.13-1.96-4.12-2.95-6.19,7.22,7.21,9.77,18.38,8.31,28.33ZM111.735,135.902l-1.45-7.46c-3.02-12.91-10.5-23.76-21.72-30.84l-5.76-2.91c5.71.86,11.41,1.8,16.5,4.68,11.73,6.63,14.23,24.34,12.43,36.53ZM142.765,113.793c-.29,2.76-.95,5.47-1.27,8.22l-.35.23c-.5-11.73-3.95-23.19-10.47-32.95-4.24-6.35-11.58-14.2-18.78-17.1-1.14-.46-2.64-1.12-3.86-.77,4.65,3.95,9.05,8.32,12.69,13.24,2.53,3.4,4.32,6.76,5.83,10.73-7.11-7.35-14.57-13.94-24.96-15.91-9.08-1.71-18.61-.65-26.67,3.98.27.39.64.33,1.03.36,3.16.24,6.28.18,9.4.79,2.89.57,6.22,1.58,8.56,3.36-1.42-.21-2.86-.56-4.29-.69-13.85-1.18-21.69,3.14-33.14,9.69-4.22,2.41-7.39,5.07-12.31,6.21-4.43,1.03-9.55,1.12-13.23-1.89-.06-.71.23-.12.34-.12,1.69.08,3.41,0,5.09,0,6.28,0,23.54-11.32,25.77-17.3,1.78-4.8-2.43-8.28-6.13-10.43-12.42-7.22-23.06,1.05-35.81-.54-4.11-.51-9.48-1.79-12.42-4.83,6.61,2.13,14.5-5.17,10.62-11.89-1.48-2.56-3.81-2.58-6.34-3.17-.35-.08-.4.16-.34-.45,4.58-1.21,9.52-2.65,13.66-4.98,6.68-3.75,7.41-9.52,12.73-14.36,13.3-12.1,34.26-17.86,51.97-15.85.59.06,1.17.22,1.75.34.76.49-1.03,1.51-1.36,1.89-.54.62-.97,1.34-1.23,2.12-14.74.2-28.74,7.01-39.89,16.26-4.24,3.5-7.83,7.88-12.46,10.92-4.02,2.64-8.79,4.09-12.67,6.89l12.27.01c.1.43-.15.45-.39.65-1,.87-2.55,1.5-3.55,2.47-.25.24-.54.4-.46.81,2.31-.66,4.57-1.48,6.94-1.97,7.97-1.66,14.09.18,21.88-.35,9.74-.65,15.99-5.31,24.54-8.33,11.66-4.12,24.58-.84,33.93,6.83,17.79,14.59,25.76,34.88,23.38,57.88ZM44.835,48.623c2.2-4.66,7.47-8.23,12.49-9.16,3.22-.59,6.29-.36,9.5.13l-4.68.53c-6.62,1.05-11.4,5.9-17.31,8.5ZM58.955,46.772c-.37.95-.61,2.07-1.15,2.96-.08.14-.17.28-.27.41-.1.13-.21.26-.34.38-.14.14-.3.27-.48.38-.1.06-.2.12-.3.17-.11.05-.21.1-.32.15-.21.1-.43.17-.66.23-.11.03-.23.05-.34.08-.77.16-1.59.14-2.36-.06-.79-.19-1.54-.56-2.12-1.12,1.16-.47,2.27-.58,3.32-1.31.7-.49.99-1.2,1.38-1.51.73-.59,2.7-.49,3.64-.76ZM153.875,102.103c-.07-.07-.13-.15-.18-.23-.07-.1-.12-.2-.17-.31-.07-.13-.12-.28-.16-.42-.04-.15-.08-.3-.11-.46-.05-.23-.09-.46-.12-.71-.07-.48-.13-.96-.25-1.39-2.9-10.08-8.56-19.55-14.56-28.04-4.3-6.07-8.98-11.88-14.55-16.83,16.18,6.86,27.79,22.48,29.84,39.97.33,2.78.47,5.65.26,8.42ZM123.315,48.163c8.07,2.46,15.18,7.09,20.6,13.55l3.71,5.43-6.13-6.26c-2.8-2.44-5.71-5.09-8.8-7.17-3-2.03-6.47-3.4-9.38-5.55ZM153.765,61.353c-6.42-5.88-14.01-12.14-21.96-15.78-1.33-.61-5.13-1.74-5.94-2.39-.43-.34-.9-1.42-1.57-1.97-.33-.27-2.28-1-1.1-1.16.62-.08,1.39.01,2.03.06l13.14,3.18c-2.79-3.19-6.9-4.83-10.4-7.08-.64-.41-3.33-2.2-3.62-2.63-.11-.18-.14-.26-.1-.47,4.67,1.41,9.66,3.19,13.89,5.66,2.62,1.53,2.15,1.86,3.81,3.83,1.15,1.37,2.75,2.47,3.95,3.7,6.32,6.49,11.76,14.03,14.69,22.69-2.34-2.51-4.24-5.28-6.82-7.64Z" fill="#131810"/>
          <path d="M28.762,22.287c-6.517,6.513-12.076,14.368-15.886,22.773,3.906-1.235,7.558-3.086,11.242-4.846,4.031-9.952,13.666-17.052,23.094-21.589,1.345-.648,5.924-2.025,6.541-2.488.407-.305.992-1.781,1.391-2.313,2.901-3.865,6.764-6.924,11.5-8.18,5.931-1.572,14.038-.791,17.466,4.899,3.528-.42,7.68-.087,10.842,1.57,11.448-7.37,28.952-1.705,30.472,12.778,4.687,1.086,9.152,3.009,13.404,5.234,4.758,2.49,9.78,5.489,13.884,8.918.267-.316-3.271-5.637-3.745-6.324C121.979-6.368,62.236-11.169,28.762,22.287h0Z" fill="#131810"/>
          <path d="M35.295,91.152c-.21-.14-.43-.27-.65-.39v-.01c.22.12.44.26.65.4Z" fill="#131810"/>
          <path d="M65.065,13.953c-.31.22-.59.44-.83.65-.12.1-.23.2-.33.29-.51.47-.85.87-1.02,1.08l2.18-2.02Z" fill="#131810"/>
          <path d="M40.509,65.605l-1.002.841,15.973.926-3.326-1.185c-2.945-.77-8.922-1.898-11.645-.582h0Z" fill="#131810"/>
        </g>
      </g>
      <g>
        <path d="M204.171,127.399c0,.695-.159,1.311-.476,1.846s-.768.954-1.351,1.256-1.279.453-2.086.453h-2.664v3.776h-2.246v-10.725h4.818c1.284,0,2.272.296,2.965.887s1.039,1.427,1.039,2.508ZM201.911,127.437c0-1.127-.665-1.69-1.994-1.69h-2.322v3.479h2.383c.619,0,1.096-.154,1.431-.461s.502-.75.502-1.328Z" fill="#131810"/>
        <path d="M209.552,130.657v4.072h-2.246v-10.725h5.359c1.279,0,2.266.275,2.961.826s1.043,1.341,1.043,2.371c0,.751-.213,1.399-.639,1.945s-1.002.905-1.728,1.077l2.9,4.506h-2.527l-2.489-4.072h-2.634ZM214.408,127.292c0-.513-.165-.898-.495-1.157s-.825-.388-1.484-.388h-2.877v3.167h2.938c.629,0,1.106-.142,1.431-.426s.487-.683.487-1.195Z" fill="#131810"/>
        <path d="M228.869,132.994v1.736h-8.746v-10.725h8.434v1.736h-6.189v2.695h5.724v1.736h-5.724v2.824h6.501Z" fill="#131810"/>
        <path d="M237.089,133.116c1.36,0,2.301-.68,2.824-2.04l1.956.738c-.421,1.035-1.039,1.805-1.854,2.31s-1.79.757-2.927.757c-1.147,0-2.124-.219-2.931-.658s-1.422-1.075-1.846-1.907-.636-1.832-.636-2.999c0-1.177.203-2.172.609-2.984s1.005-1.43,1.796-1.854,1.761-.636,2.908-.636c1.259,0,2.284.252,3.075.757s1.347,1.247,1.667,2.227l-1.979.54c-.167-.538-.496-.965-.986-1.283s-1.067-.476-1.732-.476c-1.015,0-1.785.315-2.31.944s-.788,1.55-.788,2.763c0,.822.121,1.515.362,2.078s.596.991,1.066,1.283,1.044.438,1.724.438Z" fill="#131810"/>
        <path d="M247.143,124.004v10.725h-2.246v-10.725h2.246Z" fill="#131810"/>
        <path d="M259.534,131.639c0,1.05-.389,1.854-1.168,2.409s-1.922.834-3.429.834c-2.715,0-4.296-.982-4.742-2.946l2.169-.358c.147.568.434.981.86,1.237s1.017.384,1.774.384c.787,0,1.375-.119,1.766-.358s.586-.596.586-1.073c0-.304-.089-.556-.266-.754s-.431-.363-.761-.495c-.162-.066-.401-.138-.716-.217s-.705-.166-1.172-.263c-.538-.127-.959-.235-1.264-.324s-.548-.175-.731-.259-.36-.176-.533-.278c-.381-.228-.677-.533-.891-.913s-.32-.855-.32-1.423c0-.969.364-1.711,1.092-2.227s1.788-.773,3.178-.773c1.33,0,2.328.208,2.995.624s1.097,1.104,1.29,2.063l-2.177.297c-.112-.462-.339-.809-.681-1.043s-.834-.35-1.473-.35c-.68,0-1.19.107-1.53.32s-.51.533-.51.959c0,.279.072.507.217.685s.359.33.643.457c.269.122.845.277,1.728.464.513.112.954.217,1.325.316s.667.194.891.285c.223.096.422.198.598.304s.326.221.453.343c.259.249.457.544.594.887s.206.737.206,1.184Z" fill="#131810"/>
        <path d="M264.991,124.004v10.725h-2.246v-10.725h2.246Z" fill="#131810"/>
        <path d="M279.064,129.317c0,1.116-.225,2.092-.674,2.927s-1.081,1.483-1.895,1.945-1.77.693-2.866.693c-1.122,0-2.086-.225-2.893-.674s-1.426-1.09-1.857-1.922-.647-1.822-.647-2.969.214-2.129.643-2.946,1.048-1.442,1.857-1.876,1.78-.651,2.912-.651,2.109.219,2.915.658,1.426,1.067,1.857,1.884.647,1.794.647,2.931ZM276.772,129.317c0-1.157-.274-2.064-.822-2.721s-1.317-.986-2.306-.986c-1.005,0-1.781.326-2.329.978s-.822,1.562-.822,2.729c0,.782.127,1.456.381,2.025s.615,1.006,1.085,1.313,1.026.461,1.671.461c1.005,0,1.78-.33,2.325-.99s.818-1.596.818-2.809Z" fill="#131810"/>
        <path d="M284.315,128.404v6.326h-1.994v-10.725h2.565l4.742,8.328c-.091-.771-.137-1.469-.137-2.093v-6.234h1.994v10.725h-2.634l-4.674-8.259c.046.401.08.762.103,1.085s.034.605.034.849Z" fill="#131810"/>
        <path d="M303.273,130.657v4.072h-2.246v-10.725h5.359c1.279,0,2.266.275,2.961.826s1.043,1.341,1.043,2.371c0,.751-.213,1.399-.639,1.945s-1.002.905-1.728,1.077l2.9,4.506h-2.527l-2.489-4.072h-2.634ZM308.13,127.292c0-.513-.165-.898-.495-1.157s-.825-.388-1.484-.388h-2.877v3.167h2.938c.629,0,1.106-.142,1.431-.426s.487-.683.487-1.195Z" fill="#131810"/>
        <path d="M316.091,124.004v10.725h-2.246v-10.725h2.246Z" fill="#131810"/>
        <path d="M321.981,130.794v3.935h-2.246v-10.725h7.909v1.736h-5.663v3.319h5.488v1.736h-5.488Z" fill="#131810"/>
        <path d="M338.818,132.994v1.736h-8v-10.725h2.246v8.99h5.755Z" fill="#131810"/>
        <path d="M350.645,132.994v1.736h-8.746v-10.725h8.434v1.736h-6.189v2.695h5.724v1.736h-5.724v2.824h6.501Z" fill="#131810"/>
        <path d="M362.602,131.639c0,1.05-.389,1.854-1.168,2.409s-1.922.834-3.429.834c-2.715,0-4.296-.982-4.742-2.946l2.169-.358c.147.568.434.981.86,1.237s1.017.384,1.774.384c.787,0,1.375-.119,1.766-.358s.586-.596.586-1.073c0-.304-.089-.556-.266-.754s-.431-.363-.761-.495c-.162-.066-.401-.138-.716-.217s-.705-.166-1.172-.263c-.538-.127-.959-.235-1.264-.324s-.548-.175-.731-.259-.36-.176-.533-.278c-.381-.228-.677-.533-.891-.913s-.32-.855-.32-1.423c0-.969.364-1.711,1.092-2.227s1.788-.773,3.178-.773c1.33,0,2.328.208,2.995.624s1.097,1.104,1.29,2.063l-2.177.297c-.112-.462-.339-.809-.681-1.043s-.834-.35-1.473-.35c-.68,0-1.19.107-1.53.32s-.51.533-.51.959c0,.279.072.507.217.685s.359.33.643.457c.269.122.845.277,1.728.464.513.112.954.217,1.325.316s.667.194.891.285c.223.096.422.198.598.304s.326.221.453.343c.259.249.457.544.594.887s.206.737.206,1.184Z" fill="#131810"/>
        <path d="M373.949,130.794v3.935h-2.246v-10.725h7.909v1.736h-5.663v3.319h5.488v1.736h-5.488Z" fill="#131810"/>
        <path d="M393.214,129.317c0,1.116-.225,2.092-.674,2.927s-1.081,1.483-1.895,1.945-1.77.693-2.866.693c-1.122,0-2.086-.225-2.893-.674s-1.426-1.09-1.857-1.922-.647-1.822-.647-2.969.214-2.129.643-2.946,1.048-1.442,1.857-1.876,1.78-.651,2.912-.651,2.109.219,2.915.658,1.426,1.067,1.857,1.884.647,1.794.647,2.931ZM390.922,129.317c0-1.157-.274-2.064-.822-2.721s-1.317-.986-2.306-.986c-1.005,0-1.781.326-2.329.978s-.822,1.562-.822,2.729c0,.782.127,1.456.381,2.025s.615,1.006,1.085,1.313,1.026.461,1.671.461c1.005,0,1.78-.33,2.325-.99s.818-1.596.818-2.809Z" fill="#131810"/>
        <path d="M398.715,130.657v4.072h-2.246v-10.725h5.359c1.279,0,2.266.275,2.961.826s1.043,1.341,1.043,2.371c0,.751-.213,1.399-.639,1.945s-1.002.905-1.728,1.077l2.9,4.506h-2.527l-2.489-4.072h-2.634ZM403.572,127.292c0-.513-.165-.898-.495-1.157s-.825-.388-1.484-.388h-2.877v3.167h2.938c.629,0,1.106-.142,1.431-.426s.487-.683.487-1.195Z" fill="#131810"/>
        <path d="M420.019,125.74v8.99h-2.246v-8.99h-3.464v-1.736h9.18v1.736h-3.471Z" fill="#131810"/>
        <path d="M428.505,130.132v4.598h-2.246v-10.725h2.246v4.27h4.674v-4.27h2.246v10.725h-2.246v-4.598h-4.674Z" fill="#131810"/>
        <path d="M447.823,132.994v1.736h-8.746v-10.725h8.434v1.736h-6.189v2.695h5.724v1.736h-5.724v2.824h6.501Z" fill="#131810"/>
        <path d="M458.888,131.989l-.952,2.74h-2.246l3.913-10.725h2.649l3.897,10.725h-2.223l-.952-2.74h-4.088ZM460.928,125.656c-.051.203-.122.447-.213.731s-.157.485-.198.601l-1.127,3.311h3.083l-1.157-3.38c-.071-.208-.137-.419-.198-.632s-.124-.424-.19-.632Z" fill="#131810"/>
        <path d="M471.157,128.229v6.501h-1.994v-10.725h3.007l1.918,5.998c.086.335.175.671.266,1.009s.18.674.266,1.009c.056-.193.109-.384.16-.575s.103-.382.156-.575.108-.383.164-.571l1.972-6.295h2.992v10.725h-1.994v-6.501c0-.147.006-.443.019-.887s.032-.927.057-1.45c-.178.68-.334,1.259-.468,1.736s-.245.85-.331,1.119l-1.933,5.983h-1.599l-1.933-5.983-.814-2.855c.03.589.053,1.077.069,1.465s.023.679.023.872Z" fill="#131810"/>
        <path d="M492.454,132.994v1.736h-8.746v-10.725h8.434v1.736h-6.189v2.695h5.724v1.736h-5.724v2.824h6.501Z" fill="#131810"/>
        <path d="M497.911,130.657v4.072h-2.246v-10.725h5.359c1.279,0,2.266.275,2.961.826s1.043,1.341,1.043,2.371c0,.751-.213,1.399-.639,1.945s-1.002.905-1.728,1.077l2.9,4.506h-2.527l-2.489-4.072h-2.634ZM502.767,127.292c0-.513-.165-.898-.495-1.157s-.825-.388-1.484-.388h-2.877v3.167h2.938c.629,0,1.106-.142,1.431-.426s.487-.683.487-1.195Z" fill="#131810"/>
        <path d="M510.727,124.004v10.725h-2.246v-10.725h2.246Z" fill="#131810"/>
        <path d="M519.381,133.116c1.36,0,2.301-.68,2.824-2.04l1.956.738c-.421,1.035-1.039,1.805-1.854,2.31s-1.79.757-2.927.757c-1.147,0-2.124-.219-2.931-.658s-1.422-1.075-1.846-1.907-.636-1.832-.636-2.999c0-1.177.203-2.172.609-2.984s1.005-1.43,1.796-1.854,1.761-.636,2.908-.636c1.259,0,2.284.252,3.075.757s1.347,1.247,1.667,2.227l-1.979.54c-.167-.538-.496-.965-.986-1.283s-1.067-.476-1.732-.476c-1.015,0-1.785.315-2.31.944s-.788,1.55-.788,2.763c0,.822.121,1.515.362,2.078s.596.991,1.066,1.283,1.044.438,1.724.438Z" fill="#131810"/>
        <path d="M529.732,131.989l-.952,2.74h-2.246l3.913-10.725h2.649l3.897,10.725h-2.223l-.952-2.74h-4.088ZM531.772,125.656c-.051.203-.122.447-.213.731s-.157.485-.198.601l-1.127,3.311h3.083l-1.157-3.38c-.071-.208-.137-.419-.198-.632s-.124-.424-.19-.632Z" fill="#131810"/>
        <path d="M542.001,128.404v6.326h-1.994v-10.725h2.565l4.742,8.328c-.091-.771-.137-1.469-.137-2.093v-6.234h1.994v10.725h-2.634l-4.674-8.259c.046.401.08.762.103,1.085s.034.605.034.849Z" fill="#131810"/>
        <path d="M567.537,127.399c0,.695-.159,1.311-.476,1.846s-.768.954-1.351,1.256-1.279.453-2.086.453h-2.664v3.776h-2.246v-10.725h4.818c1.284,0,2.272.296,2.965.887s1.039,1.427,1.039,2.508ZM565.276,127.437c0-1.127-.665-1.69-1.994-1.69h-2.322v3.479h2.383c.619,0,1.096-.154,1.431-.461s.502-.75.502-1.328Z" fill="#131810"/>
        <path d="M572.057,131.989l-.952,2.74h-2.246l3.913-10.725h2.649l3.897,10.725h-2.223l-.952-2.74h-4.088ZM574.097,125.656c-.051.203-.122.447-.213.731s-.157.485-.198.601l-1.127,3.311h3.083l-1.157-3.38c-.071-.208-.137-.419-.198-.632s-.124-.424-.19-.632Z" fill="#131810"/>
        <path d="M586.016,125.74v8.99h-2.246v-8.99h-3.464v-1.736h9.18v1.736h-3.471Z" fill="#131810"/>
        <path d="M594.502,130.657v4.072h-2.246v-10.725h5.359c1.279,0,2.266.275,2.961.826s1.043,1.341,1.043,2.371c0,.751-.213,1.399-.639,1.945s-1.002.905-1.728,1.077l2.9,4.506h-2.527l-2.489-4.072h-2.634ZM599.358,127.292c0-.513-.165-.898-.495-1.157s-.825-.388-1.484-.388h-2.877v3.167h2.938c.629,0,1.106-.142,1.431-.426s.487-.683.487-1.195Z" fill="#131810"/>
        <path d="M607.319,124.004v10.725h-2.246v-10.725h2.246Z" fill="#131810"/>
        <path d="M621.392,129.317c0,1.116-.225,2.092-.674,2.927s-1.081,1.483-1.895,1.945-1.77.693-2.866.693c-1.122,0-2.086-.225-2.893-.674s-1.426-1.09-1.857-1.922-.647-1.822-.647-2.969.214-2.129.643-2.946,1.048-1.442,1.857-1.876,1.78-.651,2.912-.651,2.109.219,2.915.658,1.426,1.067,1.857,1.884.647,1.794.647,2.931ZM619.101,129.317c0-1.157-.274-2.064-.822-2.721s-1.317-.986-2.306-.986c-1.005,0-1.781.326-2.329.978s-.822,1.562-.822,2.729c0,.782.127,1.456.381,2.025s.615,1.006,1.085,1.313,1.026.461,1.671.461c1.005,0,1.78-.33,2.325-.99s.818-1.596.818-2.809Z" fill="#131810"/>
        <path d="M629.49,125.74v8.99h-2.246v-8.99h-3.464v-1.736h9.18v1.736h-3.471Z" fill="#131810"/>
      </g>
    </g>
  </g>
</svg>