<?xml version="1.0" encoding="UTF-8"?>
<svg id="a" data-name="Layer 2" xmlns="http://www.w3.org/2000/svg" width="361.452" height="272.035" viewBox="0 0 361.452 272.035">
  <g id="b" data-name="Layer 1">
    <g>
      <path d="M309.249,183.922h14.844c.033,0,.065.013.09.041l7.327,8.601-7.765,8.686-14.586-17.137" fill="#131810"/>
      <path d="M360.137,226.474h-14.861c-.033,0-.065-.016-.089-.041l-9.904-11.627-7.574-8.897,7.586-8.898.004.004,7.575,8.894,17.352,20.37c.065.077.008.195-.089.195" fill="#131810"/>
      <path d="M361.423,184.113l-18.549,21.795-7.591,8.897-9.903,11.628c-.025.024-.057.04-.09.04h-14.845c-.097,0-.154-.117-.089-.195l17.352-20.37,7.591-8.893,3.149-3.705.6-.701,7.352-8.646c.024-.028.056-.041.089-.041h14.844c.102,0,.155.118.09.191" fill="#d22026"/>
      <g>
        <g>
          <path d="M40.178,213.453c-.085-.032-.096-.143-.018-.19,4.007-2.407,6.915-7.543,6.915-13.285,0-9.313-7.202-16.06-16.61-16.06H0v62.827c0,.065.053.118.118.118h32.723c3.858,0,7.374-1.045,10.206-2.927,4.542-2.984,7.411-8.02,7.411-14.14,0-7.478-4.198-14.064-10.28-16.343ZM12.22,195.344c0-.065.053-.118.118-.118h14.756c3.851,0,7.102,3.062,7.115,6.913.013,3.927-3.09,6.961-6.937,6.961h-14.934c-.065,0-.118-.053-.118-.118v-13.638ZM29.46,235.555H12.338c-.065,0-.118-.053-.118-.118v-15.558c0-.065.053-.117.118-.117h17.405c4.545,0,7.968,3.601,7.846,8.081-.118,4.328-3.8,7.712-8.129,7.712Z" fill="#131810"/>
          <path d="M90.877,183.919h-14.719c-.049,0-.093.03-.11.075l-23.1,59.943-1.122,2.927h13.506c.05,0,.094-.032.111-.078l1.017-2.849,3.298-9.216c.017-.047.061-.078.111-.078h26.936c.05,0,.093.031.111.077l4.409,12.066c.017.047.061.078.111.078h13.525c.083,0,.139-.083.11-.16l-24.084-62.71c-.018-.045-.061-.075-.11-.075ZM92.424,223.05h-18.174c-.082,0-.139-.081-.111-.158l9.125-24.817c.038-.103.183-.103.221,0l9.05,24.818c.028.076-.029.157-.111.157Z" fill="#131810"/>
          <path d="M146.237,183.914h-24.514c-.066,0-.118.053-.118.118v62.715c0,.065.052.118.118.118h24.514c18.337,0,32.114-13.502,32.114-31.475s-13.777-31.476-32.114-31.476ZM145.962,235.004h-11.65c-.065,0-.118-.052-.118-.117v-38.994c0-.065.053-.118.118-.118h11.65c11.131,0,19.435,8.394,19.435,19.615s-8.304,19.614-19.435,19.614Z" fill="#131810"/>
          <path d="M310.44,235.007c-.063,0-.113.051-.116.113v-.114h-2.552c-3.927,0-7.12-1.639-9.49-5.015l-4.288-6.162c-.045-.065-.008-.155.069-.175,8.853-2.329,14.983-9.684,14.983-19.117,0-11.769-9.214-20.618-21.349-20.618h-27.888c-.065,0-.118.053-.118.118v62.714c0,.065.053.118.118.118h12.354c.065,0,.117-.053.117-.118v-22.208c0-.065.053-.118.118-.118h6.841c.04,0,.081.02.101.053l7.173,11.441c4.105,7.392,10.674,10.95,19.888,10.95h3.805c.064,0,.116-.052.117-.116.002.062.053.114.117.114h39.906l9.931-11.668c.061-.069.02-.174-.065-.191h-49.772ZM287.426,213.479h-15.028c-.065,0-.118-.053-.118-.118v-17.465c0-.065.053-.118.118-.118h15.028c4.925,0,8.666,3.83,8.666,8.848s-3.741,8.853-8.666,8.853Z" fill="#131810"/>
          <path d="M252.393,183.921h-12.682c-.055,0-.103.038-.115.092l-7.639,33.868-7.583-33.466-.095-.494h0s-12.714,0-12.714,0l-.095.456-7.507,33.24h0s0,0,0,0l-7.581-33.605c-.012-.053-.06-.091-.115-.091h-12.663c-.075,0-.131.07-.115.143l13.594,60.216.438,1.881h0v.02l.152.684h0s12.581,0,12.581,0l.099-.396.073-.289v-.019l7.506-33.201h0s7.564,33.505,7.564,33.505l.095.399h0s12.714,0,12.714,0h0s0,0,0,0l.045-.187.051-.212,14.107-62.402c.016-.073-.04-.143-.115-.143Z" fill="#131810"/>
          <path d="M323.798,201.25l7.765-8.686-7.327-8.601c-.025-.028-.057-.041-.09-.041h-14.844c-.102,0-.155.118-.09.191l14.586,17.137Z" fill="#131810"/>
        </g>
        <g>
          <path d="M107.188,82.153c-.128-1.774-.196-3.564-.2-5.37-.743-.312-1.438-.699-2.089-1.151-.739-.511-1.423-1.098-2.05-1.75-.02.5-.032,1.003-.04,1.507-.008.419-.012.839-.012,1.262,0,37.434,26.194,68.862,61.219,76.917.595-.588,1.174-1.171,1.73-1.762.563-.6,1.106-1.199,1.63-1.81-32.619-6.365-57.711-34.01-60.188-67.843h0Z" fill="#131810"/>
          <path d="M260.585,71.663c-.26-3.35-1.32-13-2.96-15.57-.55-.86-1.75-1.43-2.48-2.14-1.11-1.07-2.06-2.37-3.12-3.37-1.56-1.47-3.46-2.65-4.86-4.27l8.67,2.54c.26-.32.14-1.03.02-1.4-.32-1.01-6.93-5.87-8.25-6.8-8.22-5.79-17.59-10.53-27.25-13.39-.81-2.3-1.12-4.72-2.2-6.94-4.53-9.25-17.9-10.79-25.52-4.57-3.51-2.64-8.72-2.09-12.92-2.36-6.22-9.73-21.72-5.34-25.08,4.69-9.54,3.29-22.19,9.62-27.29,18.73-.75,1.34-1.32,3.33-2.02,4.46-.57.93-5.04,3.34-6.27,3.92-5.47,2.55-11.98,3.84-17.37,6.47-5.34,2.61-5.21,6.92-3.13,11.86,2.05,4.87,5.46,9.75,10.99,10.77.43,1.06.54,2.1.98,3.19,1.42,3.54,5,6.64,8.6,7.72v-6.37l.58-.34c2.71,3.39,5.63,6.41,9.96,7.64l-.35-9.03c2.82.26,6.23.29,8.32,2.46-1.55,3.08-3.96,5.74-4.15,9.34-.24.22-1.42-1.06-1.99-1.15-2.54-.41-1.49,2.54-1.95,4.16l-1.33-.17-6.08-4.11-.46.23c.11,1.33-.15,2.87,0,4.17.09.76.77,2.78,1.11,3.52.37.79,1.4,1.84,1.57,2.37.26.81-.23,1.62-.08,2.62.71,4.56,8.21,6.88,12.11,7.11,5.98.36,10.94-1.76,16.32-3.57,17.59-5.91,28.29,9.75,22.79,25.79-.84,2.46-2.33,4.75-3.11,7.19,4.17-1.72,7.2-4.77,9.83-8.33.09,2.57-.61,5.41-1.34,7.92-2.16,7.46-6.2,12.51-11.74,17.77,8.48.72,17.07,1.26,25.51-.07,39.31-6.19,69.06-42.72,65.94-82.69ZM190.305,23.863c.28-.42.57-.83.88-1.23.11-.15.23-.29.36-.44.06-.08.13-.15.2-.23.28-.34.58-.66.9-.98.04-.04.08-.08.13-.13.67-.66,1.38-1.27,2.14-1.81.12-.1.25-.19.38-.27.26-.18.52-.35.79-.51.43-.27.88-.52,1.34-.74l.39-.18c.36-.18.73-.33,1.1-.47.46-.18.93-.33,1.4-.45h.01c.24-.07.47-.13.71-.17.14-.04.27-.06.41-.08.28-.06.56-.11.84-.13.21-.03.41-.05.61-.06.16-.01.32-.02.48-.03.42-.03.84-.03,1.27,0,.18,0,.37.02.55.04.05,0,.1,0,.15.02.21.01.43.04.64.08.15.02.31.04.47.08.02,0,.05.01.08.02.06.01.12.02.19.04.14.02.28.06.43.1.09.02.18.05.27.07.2.06.4.12.59.18.45.14.89.31,1.33.51,8.96,4.04,8.58,17.98.52,22.83-2.76,1.66-5.45,2.03-8.66,1.75-2.81-.23,1.13-1.6,1.89-2.04,2.46-1.44,4.11-2.73,5.12-5.53,2.97-8.24-2.33-12.84-10.26-9.8-2.12.82-3.35,2.1-4.86,3.71-.5.54-1.07,1.73-1.64,2.06-.63.36-2.2.49-2.35-.35-.06-.3.46-1.02-.05-1.01l-1.39,2.08c.04-.31.09-.61.15-.92.07-.37.15-.74.26-1.11.07-.26.15-.53.23-.79.09-.26.18-.52.28-.78.11-.29.23-.58.36-.86.25-.57.54-1.13.86-1.67.16-.27.33-.54.5-.8ZM162.285,13.952c1.13-.82,2.67-1.62,4.63-1.93,3.53-.57,6.23.77,7.06,1.22-1.87.04-4.03.21-6.42.64-2.92.53-5.42,1.31-7.45,2.09.17-.21.51-.61,1.02-1.08.1-.11.22-.21.33-.29l.83-.65ZM100.605,57.883c.47-4.45,6.94-3.45,9.85-2.09,1.93.9,2.26,2.15,1.91,4.23-.08.45-.46,1.53-.87,1.79-.51-5.49-6.98-4.34-10.89-3.93ZM116.005,80.443c-.12-.09-.24-.17-.35-.26-.35-.28-.67-.61-.96-.97-.13-.16-.25-.32-.37-.49-.13-.18-.25-.36-.36-.56-.09-.15-.18-.31-.26-.48-.03-.04-.05-.09-.07-.14-.07-.15-.14-.31-.21-.47-.08-.19-.15-.38-.21-.58-.07-.21-.13-.43-.18-.64-.04-.14-.07-.28-.09-.42-.03-.14-.05-.28-.07-.42h.01l3.2.96c-.03,1.67.07,3.22.5,4.83-.2-.1-.4-.22-.58-.36ZM122.145,76.173c.18-.17,1.74.49,2.21.48.59-.03.88-.58,1.49-.48l1.15,5.79c-.27.34-5.22-4.63-4.85-5.79ZM135.915,89.202c.07-.13.15-.26.24-.41.05-.08.09-.15.14-.23.09-.14.18-.29.28-.45.11-.17.23-.36.36-.57.12-.18.24-.36.36-.55.42-.64.88-1.31,1.29-1.91.12-.17.23-.33.34-.48s.21-.3.3-.43c.28-.4.51-.69.62-.83,1.01-1.17,3.41-3.03,4.87-3.46.91-.27-.23.93-.31,1.07-1.24,2.13-2.48,4.34-3.51,6.56,2.69-3.14,6.15-6.57,10.65-6.25-.54,2.83-2.04,5.71-4.02,7.79-2.04,2.14-6.48,4.72-9.4,3.2-.52-.28-2.54-1.75-2.55-2.3,0-.1.12-.37.34-.75ZM132.515,91.152c.21.14.42.29.63.45.21.16.42.32.62.49.2.16.41.33.61.5.28.23.55.45.83.67.3.24.6.47.91.67.1.07.21.14.31.2.15.11.3.2.46.28,1.03.56,1.78.59,2.76.95.24.09.67.12.32.48-.1.11-2.27,1.17-2.55,1.28-1.53.56-1.98.32-3.1-.83-1.39-1.46-2.04-3.59-2.45-5.53.22.12.44.25.65.39ZM124.455,92.142c.77,1.16,6.1,3.45,5.06,5.07-.93.59-2.2-.32-2.89-.98-.93-.87-2.14-2.8-2.17-4.09ZM183.245,148.033c-1.08.69-1.91.55-2.65,1.99.06-1.38,1.11-2.82,1.62-4.17,3.74-9.88,4.19-20.04.69-30.08-1.38-3.96-3.48-8.32-6.36-11.35,3.17,1.31,4.89,4.31,6.83,6.94.25-.82,1.03-.5,1.64-.91l-.13-.71c.27-.27,1.51,1.16,1.71,1.41,7.25,8.92,7,30.34-3.35,36.88ZM198.285,136.683c-.04.26-.09,1.08-.44,1.07-.12-7.88-1.98-15.91-4.92-23.21-.86-2.13-1.96-4.12-2.95-6.19,7.22,7.21,9.77,18.38,8.31,28.33ZM208.955,135.902l-1.45-7.46c-3.02-12.91-10.5-23.76-21.72-30.84l-5.76-2.91c5.71.86,11.41,1.8,16.5,4.68,11.73,6.63,14.23,24.34,12.43,36.53ZM239.985,113.793c-.29,2.76-.95,5.47-1.27,8.22l-.35.23c-.5-11.73-3.95-23.19-10.47-32.95-4.24-6.35-11.58-14.2-18.78-17.1-1.14-.46-2.64-1.12-3.86-.77,4.65,3.95,9.05,8.32,12.69,13.24,2.53,3.4,4.32,6.76,5.83,10.73-7.11-7.35-14.57-13.94-24.96-15.91-9.08-1.71-18.61-.65-26.67,3.98.27.39.64.33,1.03.36,3.16.24,6.28.18,9.4.79,2.89.57,6.22,1.58,8.56,3.36-1.42-.21-2.86-.56-4.29-.69-13.85-1.18-21.69,3.14-33.14,9.69-4.22,2.41-7.39,5.07-12.31,6.21-4.43,1.03-9.55,1.12-13.23-1.89-.06-.71.23-.12.34-.12,1.69.08,3.41,0,5.09,0,6.28,0,23.54-11.32,25.77-17.3,1.78-4.8-2.43-8.28-6.13-10.43-12.42-7.22-23.06,1.05-35.81-.54-4.11-.51-9.48-1.79-12.42-4.83,6.61,2.13,14.5-5.17,10.62-11.89-1.48-2.56-3.81-2.58-6.34-3.17-.35-.08-.4.16-.34-.45,4.58-1.21,9.52-2.65,13.66-4.98,6.68-3.75,7.41-9.52,12.73-14.36,13.3-12.1,34.26-17.86,51.97-15.85.59.06,1.17.22,1.75.34.76.49-1.03,1.51-1.36,1.89-.54.62-.97,1.34-1.23,2.12-14.74.2-28.74,7.01-39.89,16.26-4.24,3.5-7.83,7.88-12.46,10.92-4.02,2.64-8.79,4.09-12.67,6.89l12.27.01c.1.43-.15.45-.39.65-1,.87-2.55,1.5-3.55,2.47-.25.24-.54.4-.46.81,2.31-.66,4.57-1.48,6.94-1.97,7.97-1.66,14.09.18,21.88-.35,9.74-.65,15.99-5.31,24.54-8.33,11.66-4.12,24.58-.84,33.93,6.83,17.79,14.59,25.76,34.88,23.38,57.88ZM142.055,48.623c2.2-4.66,7.47-8.23,12.49-9.16,3.22-.59,6.29-.36,9.5.13l-4.68.53c-6.62,1.05-11.4,5.9-17.31,8.5ZM156.175,46.772c-.37.95-.61,2.07-1.15,2.96-.08.14-.17.28-.27.41-.1.13-.21.26-.34.38-.14.14-.3.27-.48.38-.1.06-.2.12-.3.17-.11.05-.21.1-.32.15-.21.1-.43.17-.66.23-.11.03-.23.05-.34.08-.77.16-1.59.14-2.36-.06-.79-.19-1.54-.56-2.12-1.12,1.16-.47,2.27-.58,3.32-1.31.7-.49.99-1.2,1.38-1.51.73-.59,2.7-.49,3.64-.76ZM251.095,102.103c-.07-.07-.13-.15-.18-.23-.07-.1-.12-.2-.17-.31-.07-.13-.12-.28-.16-.42-.04-.15-.08-.3-.11-.46-.05-.23-.09-.46-.12-.71-.07-.48-.13-.96-.25-1.39-2.9-10.08-8.56-19.55-14.56-28.04-4.3-6.07-8.98-11.88-14.55-16.83,16.18,6.86,27.79,22.48,29.84,39.97.33,2.78.47,5.65.26,8.42ZM220.535,48.163c8.07,2.46,15.18,7.09,20.6,13.55l3.71,5.43-6.13-6.26c-2.8-2.44-5.71-5.09-8.8-7.17-3-2.03-6.47-3.4-9.38-5.55ZM250.985,61.353c-6.42-5.88-14.01-12.14-21.96-15.78-1.33-.61-5.13-1.74-5.94-2.39-.43-.34-.9-1.42-1.57-1.97-.33-.27-2.28-1-1.1-1.16.62-.08,1.39.01,2.03.06l13.14,3.18c-2.79-3.19-6.9-4.83-10.4-7.08-.64-.41-3.33-2.2-3.62-2.63-.11-.18-.14-.26-.1-.47,4.67,1.41,9.66,3.19,13.89,5.66,2.62,1.53,2.15,1.86,3.81,3.83,1.15,1.37,2.75,2.47,3.95,3.7,6.32,6.49,11.76,14.03,14.69,22.69-2.34-2.51-4.24-5.28-6.82-7.64Z" fill="#131810"/>
          <path d="M125.982,22.287c-6.517,6.513-12.076,14.368-15.886,22.773,3.906-1.235,7.558-3.086,11.242-4.846,4.031-9.952,13.666-17.052,23.094-21.589,1.345-.648,5.924-2.025,6.541-2.488.407-.305.992-1.781,1.391-2.313,2.901-3.865,6.764-6.924,11.5-8.18,5.931-1.572,14.038-.791,17.466,4.899,3.528-.42,7.68-.087,10.842,1.57,11.448-7.37,28.952-1.705,30.472,12.778,4.687,1.086,9.152,3.009,13.404,5.234,4.758,2.49,9.78,5.489,13.884,8.918.267-.316-3.271-5.637-3.745-6.324-26.988-39.087-86.731-43.888-120.205-10.432h0Z" fill="#131810"/>
          <path d="M132.515,91.152c-.21-.14-.43-.27-.65-.39v-.01c.22.12.44.26.65.4Z" fill="#131810"/>
          <path d="M162.285,13.953c-.31.22-.59.44-.83.65-.12.1-.23.2-.33.29-.51.47-.85.87-1.02,1.08l2.18-2.02Z" fill="#131810"/>
          <path d="M137.729,65.605l-1.002.841,15.973.926-3.326-1.185c-2.945-.77-8.922-1.898-11.645-.582h0Z" fill="#131810"/>
        </g>
      </g>
      <g>
        <path d="M7.351,265.876c0,.572-.131,1.079-.392,1.519s-.632.785-1.112,1.034-1.053.373-1.717.373H1.937v3.108H.089v-8.829h3.966c1.057,0,1.87.243,2.441.73s.855,1.175.855,2.065ZM5.49,265.907c0-.927-.547-1.391-1.642-1.391h-1.911v2.863h1.961c.51,0,.902-.126,1.178-.379s.414-.617.414-1.093Z" fill="#131810"/>
        <path d="M11.78,268.558v3.352h-1.848v-8.829h4.411c1.053,0,1.865.227,2.437.68s.858,1.104.858,1.952c0,.618-.175,1.152-.526,1.601s-.825.745-1.422.887l2.387,3.709h-2.08l-2.049-3.352h-2.168ZM15.777,265.788c0-.422-.136-.739-.407-.952s-.679-.32-1.222-.32h-2.368v2.607h2.419c.518,0,.911-.117,1.178-.351s.401-.562.401-.984Z" fill="#131810"/>
        <path d="M27.681,270.481v1.429h-7.199v-8.829h6.943v1.429h-5.094v2.218h4.712v1.429h-4.712v2.325h5.351Z" fill="#131810"/>
        <path d="M34.447,270.582c1.119,0,1.894-.56,2.325-1.679l1.61.608c-.347.852-.855,1.486-1.526,1.902s-1.474.623-2.409.623c-.944,0-1.748-.181-2.412-.542s-1.171-.885-1.519-1.57-.523-1.508-.523-2.469c0-.969.167-1.788.501-2.456s.827-1.177,1.479-1.526,1.449-.523,2.394-.523c1.036,0,1.88.208,2.531.623s1.109,1.027,1.372,1.833l-1.629.445c-.138-.443-.408-.795-.811-1.056s-.878-.392-1.425-.392c-.835,0-1.469.259-1.902.777s-.649,1.276-.649,2.275c0,.677.099,1.247.298,1.711s.491.816.877,1.056.859.36,1.419.36Z" fill="#131810"/>
        <path d="M42.723,263.081v8.829h-1.848v-8.829h1.848Z" fill="#131810"/>
        <path d="M52.922,269.366c0,.865-.321,1.526-.962,1.983s-1.582.686-2.823.686c-2.235,0-3.536-.808-3.904-2.425l1.786-.294c.121.468.357.807.708,1.018s.838.316,1.46.316c.647,0,1.132-.098,1.454-.294s.482-.491.482-.883c0-.251-.073-.457-.219-.62s-.355-.299-.627-.407c-.134-.054-.33-.114-.589-.179s-.581-.137-.965-.216c-.443-.104-.789-.193-1.04-.266s-.451-.144-.602-.213-.297-.145-.439-.229c-.313-.188-.558-.439-.733-.752s-.263-.704-.263-1.172c0-.798.3-1.409.899-1.833s1.471-.636,2.616-.636c1.094,0,1.916.171,2.466.514s.903.909,1.062,1.698l-1.792.244c-.092-.38-.279-.666-.561-.858s-.686-.288-1.212-.288c-.56,0-.98.088-1.259.263s-.42.439-.42.789c0,.23.06.418.179.564s.296.272.529.376c.221.1.696.228,1.422.382.422.092.785.179,1.09.26s.549.16.733.235c.184.079.348.163.492.251s.268.182.373.282c.213.205.376.448.489.73s.169.607.169.974Z" fill="#131810"/>
        <path d="M57.414,263.081v8.829h-1.848v-8.829h1.848Z" fill="#131810"/>
        <path d="M68.998,267.455c0,.919-.185,1.722-.555,2.409s-.89,1.221-1.56,1.601-1.457.57-2.359.57c-.923,0-1.717-.185-2.381-.555s-1.174-.897-1.529-1.582-.533-1.5-.533-2.444.176-1.752.529-2.425.863-1.187,1.529-1.545,1.465-.536,2.397-.536,1.736.181,2.4.542,1.174.878,1.529,1.551.533,1.477.533,2.412ZM67.112,267.455c0-.952-.226-1.699-.677-2.24s-1.084-.811-1.899-.811c-.827,0-1.466.268-1.917.805s-.677,1.286-.677,2.246c0,.643.104,1.199.313,1.667s.506.828.893,1.081.845.379,1.375.379c.827,0,1.465-.272,1.914-.815s.674-1.314.674-2.312Z" fill="#131810"/>
        <path d="M73.32,266.703v5.207h-1.642v-8.829h2.112l3.904,6.855c-.075-.635-.113-1.209-.113-1.723v-5.132h1.642v8.829h-2.168l-3.847-6.798c.038.33.066.628.085.893s.028.498.028.699Z" fill="#131810"/>
        <path d="M88.926,268.558v3.352h-1.848v-8.829h4.411c1.053,0,1.865.227,2.437.68s.858,1.104.858,1.952c0,.618-.175,1.152-.526,1.601s-.825.745-1.422.887l2.387,3.709h-2.08l-2.049-3.352h-2.168ZM92.923,265.788c0-.422-.136-.739-.407-.952s-.679-.32-1.222-.32h-2.368v2.607h2.419c.518,0,.911-.117,1.178-.351s.401-.562.401-.984Z" fill="#131810"/>
        <path d="M99.477,263.081v8.829h-1.848v-8.829h1.848Z" fill="#131810"/>
        <path d="M104.325,268.671v3.239h-1.848v-8.829h6.51v1.429h-4.662v2.732h4.518v1.429h-4.518Z" fill="#131810"/>
        <path d="M118.184,270.481v1.429h-6.585v-8.829h1.848v7.4h4.737Z" fill="#131810"/>
        <path d="M127.919,270.481v1.429h-7.199v-8.829h6.943v1.429h-5.094v2.218h4.712v1.429h-4.712v2.325h5.351Z" fill="#131810"/>
        <path d="M137.762,269.366c0,.865-.321,1.526-.962,1.983s-1.582.686-2.823.686c-2.235,0-3.536-.808-3.904-2.425l1.786-.294c.121.468.357.807.708,1.018s.838.316,1.46.316c.647,0,1.132-.098,1.454-.294s.482-.491.482-.883c0-.251-.073-.457-.219-.62s-.355-.299-.627-.407c-.134-.054-.33-.114-.589-.179s-.581-.137-.965-.216c-.443-.104-.789-.193-1.04-.266s-.451-.144-.602-.213-.297-.145-.439-.229c-.313-.188-.558-.439-.733-.752s-.263-.704-.263-1.172c0-.798.3-1.409.899-1.833s1.471-.636,2.616-.636c1.094,0,1.916.171,2.466.514s.903.909,1.062,1.698l-1.792.244c-.092-.38-.279-.666-.561-.858s-.686-.288-1.212-.288c-.56,0-.98.088-1.259.263s-.42.439-.42.789c0,.23.06.418.179.564s.296.272.529.376c.221.1.696.228,1.422.382.422.092.785.179,1.09.26s.549.16.733.235c.184.079.348.163.492.251s.268.182.373.282c.213.205.376.448.489.73s.169.607.169.974Z" fill="#131810"/>
        <path d="M147.102,268.671v3.239h-1.848v-8.829h6.51v1.429h-4.662v2.732h4.518v1.429h-4.518Z" fill="#131810"/>
        <path d="M162.959,267.455c0,.919-.185,1.722-.555,2.409s-.89,1.221-1.56,1.601-1.457.57-2.359.57c-.923,0-1.717-.185-2.381-.555s-1.174-.897-1.529-1.582-.533-1.5-.533-2.444.176-1.752.529-2.425.863-1.187,1.529-1.545,1.465-.536,2.397-.536,1.736.181,2.4.542,1.174.878,1.529,1.551.533,1.477.533,2.412ZM161.073,267.455c0-.952-.226-1.699-.677-2.24s-1.084-.811-1.899-.811c-.827,0-1.466.268-1.917.805s-.677,1.286-.677,2.246c0,.643.104,1.199.313,1.667s.506.828.893,1.081.845.379,1.375.379c.827,0,1.465-.272,1.914-.815s.674-1.314.674-2.312Z" fill="#131810"/>
        <path d="M167.488,268.558v3.352h-1.848v-8.829h4.411c1.053,0,1.865.227,2.437.68s.858,1.104.858,1.952c0,.618-.175,1.152-.526,1.601s-.825.745-1.422.887l2.387,3.709h-2.08l-2.049-3.352h-2.168ZM171.486,265.788c0-.422-.136-.739-.407-.952s-.679-.32-1.222-.32h-2.368v2.607h2.419c.518,0,.911-.117,1.178-.351s.401-.562.401-.984Z" fill="#131810"/>
        <path d="M185.024,264.51v7.4h-1.848v-7.4h-2.851v-1.429h7.557v1.429h-2.857Z" fill="#131810"/>
        <path d="M192.009,268.125v3.785h-1.848v-8.829h1.848v3.515h3.847v-3.515h1.848v8.829h-1.848v-3.785h-3.847Z" fill="#131810"/>
        <path d="M207.911,270.481v1.429h-7.199v-8.829h6.943v1.429h-5.094v2.218h4.712v1.429h-4.712v2.325h5.351Z" fill="#131810"/>
        <path d="M217.019,269.654l-.783,2.256h-1.848l3.221-8.829h2.181l3.208,8.829h-1.83l-.783-2.256h-3.365ZM218.698,264.441c-.042.167-.1.368-.175.602s-.129.399-.163.495l-.927,2.726h2.538l-.952-2.782c-.058-.171-.113-.345-.163-.52s-.102-.349-.157-.52Z" fill="#131810"/>
        <path d="M227.118,266.559v5.351h-1.642v-8.829h2.475l1.579,4.937c.071.276.144.552.219.83s.148.555.219.83c.046-.159.09-.316.132-.473s.085-.314.128-.473.089-.315.135-.47l1.623-5.182h2.462v8.829h-1.642v-5.351c0-.121.005-.364.016-.73s.026-.763.047-1.194c-.146.56-.275,1.036-.385,1.429s-.202.7-.273.921l-1.592,4.925h-1.316l-1.592-4.925-.67-2.35c.025.485.044.887.056,1.206s.019.559.019.717Z" fill="#131810"/>
        <path d="M244.648,270.481v1.429h-7.199v-8.829h6.943v1.429h-5.094v2.218h4.712v1.429h-4.712v2.325h5.351Z" fill="#131810"/>
        <path d="M249.14,268.558v3.352h-1.848v-8.829h4.411c1.053,0,1.865.227,2.437.68s.858,1.104.858,1.952c0,.618-.175,1.152-.526,1.601s-.825.745-1.422.887l2.387,3.709h-2.08l-2.049-3.352h-2.168ZM253.138,265.788c0-.422-.136-.739-.407-.952s-.679-.32-1.222-.32h-2.368v2.607h2.419c.518,0,.911-.117,1.178-.351s.401-.562.401-.984Z" fill="#131810"/>
        <path d="M259.69,263.081v8.829h-1.848v-8.829h1.848Z" fill="#131810"/>
        <path d="M266.813,270.582c1.119,0,1.894-.56,2.325-1.679l1.61.608c-.347.852-.855,1.486-1.526,1.902s-1.474.623-2.409.623c-.944,0-1.748-.181-2.412-.542s-1.171-.885-1.519-1.57-.523-1.508-.523-2.469c0-.969.167-1.788.501-2.456s.827-1.177,1.479-1.526,1.449-.523,2.394-.523c1.036,0,1.88.208,2.531.623s1.109,1.027,1.372,1.833l-1.629.445c-.138-.443-.408-.795-.811-1.056s-.878-.392-1.425-.392c-.835,0-1.469.259-1.902.777s-.649,1.276-.649,2.275c0,.677.099,1.247.298,1.711s.491.816.877,1.056.859.36,1.419.36Z" fill="#131810"/>
        <path d="M275.334,269.654l-.783,2.256h-1.848l3.221-8.829h2.181l3.208,8.829h-1.83l-.783-2.256h-3.365ZM277.013,264.441c-.042.167-.1.368-.175.602s-.129.399-.163.495l-.927,2.726h2.538l-.952-2.782c-.058-.171-.113-.345-.163-.52s-.102-.349-.157-.52Z" fill="#131810"/>
        <path d="M285.433,266.703v5.207h-1.642v-8.829h2.112l3.904,6.855c-.075-.635-.113-1.209-.113-1.723v-5.132h1.642v8.829h-2.168l-3.847-6.798c.038.33.066.628.085.893s.028.498.028.699Z" fill="#131810"/>
        <path d="M306.452,265.876c0,.572-.131,1.079-.392,1.519s-.632.785-1.112,1.034-1.053.373-1.717.373h-2.193v3.108h-1.848v-8.829h3.966c1.057,0,1.87.243,2.441.73s.855,1.175.855,2.065ZM304.591,265.907c0-.927-.547-1.391-1.642-1.391h-1.911v2.863h1.961c.51,0,.902-.126,1.178-.379s.414-.617.414-1.093Z" fill="#131810"/>
        <path d="M310.173,269.654l-.783,2.256h-1.848l3.221-8.829h2.181l3.208,8.829h-1.83l-.783-2.256h-3.365ZM311.852,264.441c-.042.167-.1.368-.175.602s-.129.399-.163.495l-.927,2.726h2.538l-.952-2.782c-.058-.171-.113-.345-.163-.52s-.102-.349-.157-.52Z" fill="#131810"/>
        <path d="M321.663,264.51v7.4h-1.848v-7.4h-2.851v-1.429h7.557v1.429h-2.857Z" fill="#131810"/>
        <path d="M328.648,268.558v3.352h-1.848v-8.829h4.411c1.053,0,1.865.227,2.437.68s.858,1.104.858,1.952c0,.618-.175,1.152-.526,1.601s-.825.745-1.422.887l2.387,3.709h-2.08l-2.049-3.352h-2.168ZM332.646,265.788c0-.422-.136-.739-.407-.952s-.679-.32-1.222-.32h-2.368v2.607h2.419c.518,0,.911-.117,1.178-.351s.401-.562.401-.984Z" fill="#131810"/>
        <path d="M339.199,263.081v8.829h-1.848v-8.829h1.848Z" fill="#131810"/>
        <path d="M350.783,267.455c0,.919-.185,1.722-.555,2.409s-.89,1.221-1.56,1.601-1.457.57-2.359.57c-.923,0-1.717-.185-2.381-.555s-1.174-.897-1.529-1.582-.533-1.5-.533-2.444.176-1.752.529-2.425.863-1.187,1.529-1.545,1.465-.536,2.397-.536,1.736.181,2.4.542,1.174.878,1.529,1.551.533,1.477.533,2.412ZM348.897,267.455c0-.952-.226-1.699-.677-2.24s-1.084-.811-1.899-.811c-.827,0-1.466.268-1.917.805s-.677,1.286-.677,2.246c0,.643.104,1.199.313,1.667s.506.828.893,1.081.845.379,1.375.379c.827,0,1.465-.272,1.914-.815s.674-1.314.674-2.312Z" fill="#131810"/>
        <path d="M357.449,264.51v7.4h-1.848v-7.4h-2.851v-1.429h7.557v1.429h-2.857Z" fill="#131810"/>
      </g>
    </g>
  </g>
</svg>